<?xml version="1.0" encoding="UTF-8" standalone="no"?>
<svg width="2499.95mm" height="2499.95mm"
 viewBox="0 0 29527 29527"
 xmlns="http://www.w3.org/2000/svg" xmlns:xlink="http://www.w3.org/1999/xlink"  version="1.2" baseProfile="tiny">
<desc>Generated with Qt</desc>
<defs>
</defs>
<g fill="none" stroke="black" stroke-width="1" fill-rule="evenodd" stroke-linecap="square" stroke-linejoin="bevel" >
    <g fill="#686ab3" fill-opacity="0" stroke="#000000" stroke-opacity="1" stroke-width="236.224" stroke-linecap="square" stroke-linejoin="bevel" transform="matrix(1,0,0,1,0,0)"
    font-family="Ubuntu" font-size="45.8333" font-weight="400" font-style="normal">
        <path vector-effect="none" fill-rule="evenodd" d="M2952.8,14794.7 L14764,14764 L14764,26575.2 L2952.8,26575.2 L2952.8,14794.7"/>
    </g>
    <g fill="none" stroke="#e31a1c" stroke-opacity="1" stroke-width="236.224" stroke-linecap="butt" stroke-linejoin="bevel" transform="matrix(0.999981,0,0,0.999981,0,0)"
    font-family="Ubuntu" font-size="45.8333" font-weight="400" font-style="normal">
        <path vector-effect="none" fill-rule="evenodd" d="M2983.46,14764 L14764,26575.2"/>
          <path vector-effect="none" fill-rule="evenodd" d="M2952.8,26575.2 L14764,14764"/>
    </g>
    <g fill="#45d53a" fill-opacity="1" stroke="#0c59cd" stroke-opacity="1" stroke-width="177.168" stroke-linecap="square" stroke-linejoin="bevel" transform="matrix(0.999981,0,0,0.999981,0,0)"
    font-family="Ubuntu" font-size="45.8333" font-weight="400" font-style="normal">
        <path vector-effect="none" fill-rule="evenodd" d="M15059.3,14764 C15059.3,14927.1 14927.1,15059.3 14764,15059.3 C14600.9,15059.3 14468.7,14927.1 14468.7,14764 C14468.7,14600.9 14600.9,14468.7 14764,14468.7 C14927.1,14468.7 15059.3,14600.9 15059.3,14764 "/>
    </g>
</g>
</svg>
