<?xml version="1.0" encoding="UTF-8" standalone="no"?>
<!-- Created with Inkscape (http://www.inkscape.org/) -->

<svg
   xmlns:dc="http://purl.org/dc/elements/1.1/"
   xmlns:cc="http://creativecommons.org/ns#"
   xmlns:rdf="http://www.w3.org/1999/02/22-rdf-syntax-ns#"
   xmlns:svg="http://www.w3.org/2000/svg"
   xmlns="http://www.w3.org/2000/svg"
   xmlns:sodipodi="http://sodipodi.sourceforge.net/DTD/sodipodi-0.dtd"
   xmlns:inkscape="http://www.inkscape.org/namespaces/inkscape"
   width="2500"
   height="2500"
   id="svg2"
   version="1.1"
   inkscape:version="0.48.4 r9939"
   sodipodi:docname="enfance1.svg">
  <title
     id="title3919">Pictogramme</title>
  <defs
     id="defs4" />
  <sodipodi:namedview
     id="base"
     pagecolor="#ffffff"
     bordercolor="#666666"
     borderopacity="1.0"
     inkscape:pageopacity="0.0"
     inkscape:pageshadow="2"
     inkscape:zoom="0.16"
     inkscape:cx="1631.5695"
     inkscape:cy="716.95623"
     inkscape:document-units="px"
     inkscape:current-layer="layer1"
     showgrid="true"
     showguides="true"
     inkscape:window-width="1600"
     inkscape:window-height="1173"
     inkscape:window-x="1911"
     inkscape:window-y="-9"
     inkscape:window-maximized="1"
     inkscape:guide-bbox="true">
    <inkscape:grid
       type="xygrid"
       id="grid3016"
       empspacing="5"
       visible="true"
       enabled="true"
       snapvisiblegridlinesonly="true" />
  </sodipodi:namedview>
  <metadata
     id="metadata7">
    <rdf:RDF>
      <cc:Work
         rdf:about="">
        <dc:format>image/svg+xml</dc:format>
        <dc:type
           rdf:resource="http://purl.org/dc/dcmitype/StillImage" />
        <dc:title>Pictogramme</dc:title>
        <dc:publisher>
          <cc:Agent>
            <dc:title></dc:title>
          </cc:Agent>
        </dc:publisher>
        <dc:creator>
          <cc:Agent>
            <dc:title>Communauté d'agglomeration de La Rochelle</dc:title>
          </cc:Agent>
        </dc:creator>
        <dc:rights>
          <cc:Agent>
            <dc:title></dc:title>
          </cc:Agent>
        </dc:rights>
      </cc:Work>
    </rdf:RDF>
  </metadata>
  <g
     inkscape:label="Calque 1"
     inkscape:groupmode="layer"
     id="layer1"
     transform="translate(0,1447.6378)"
     style="display:inline">
    <rect
       style="fill:#0000ff;fill-rule:evenodd;stroke:#00f900;stroke-width:50;stroke-linecap:butt;stroke-linejoin:miter;stroke-miterlimit:4;stroke-opacity:1;stroke-dasharray:none"
       id="rect3026"
       width="1000"
       height="1000"
       x="750.03314"
       y="-1402.2092" />
    <path
       style="fill:none;stroke:#cd1f53;stroke-width:3;stroke-linecap:butt;stroke-linejoin:miter;stroke-miterlimit:4;stroke-opacity:1;stroke-dasharray:none"
       d="m -2230,-197.6378 5510,0"
       id="path3018"
       inkscape:connector-curvature="0" />
    <path
       style="fill:none;stroke:#ff0000;stroke-width:3;stroke-linecap:butt;stroke-linejoin:miter;stroke-miterlimit:4;stroke-opacity:1;stroke-dasharray:none"
       d="m 1250,-2147.6378 0,5120"
       id="path3020"
       inkscape:connector-curvature="0" />
    <path
       id="path_contour"
       d="m 1640.979,-593.7507 c 70.245,-87.79757 109.0291,-197.18949 109.0291,-310.56313 0,-132.13727 -52.6838,-258.86587 -146.4583,-352.30087 -93.7744,-93.4351 -220.9631,-145.9287 -353.5797,-145.9287 -132.6171,0 -259.80548,52.4936 -353.57919,145.9287 -93.77442,93.435 -146.45864,220.1636 -146.45864,352.30087 0,113.37364 38.78446,222.76556 109.02963,310.56313 130.33539,152.31237 260.6718,263.95751 391.0082,395.93651 130.336,-131.979 280.782,-267.2967 391.0089,-395.93651 z"
       stroke-miterlimit="4"
       style="fill:none;stroke:#000000;stroke-width:50;stroke-linecap:round;stroke-linejoin:miter;stroke-miterlimit:4;stroke-opacity:1;stroke-dasharray:none;stroke-dashoffset:0"
       inkscape:connector-curvature="0" />
    <ellipse
       sodipodi:ry="9.9874382"
       sodipodi:rx="10.049938"
       sodipodi:cy="20.009174"
       sodipodi:cx="149.98869"
       d="m 160.03863,20.009174 c 0,5.51591 -4.49951,9.987439 -10.04994,9.987439 -5.55042,0 -10.04993,-4.471529 -10.04993,-9.987439 0,-5.515909 4.49951,-9.987438 10.04993,-9.987438 5.55043,0 10.04994,4.471529 10.04994,9.987438 z"
       ry="9.9874382"
       rx="10.049938"
       stroke="param(outline) #000000"
       fill="param(outline) #000000"
       id="path4281-0-4-79-8-2-4"
       cy="20.009174"
       cx="149.98869"
       style="stroke-width:0"
       transform="matrix(12.299424,0,0,12.299424,-600.54588,-1422.6149)" />
    <rect
       stroke="param(outline) #000000"
       fill="param(outline) #000000"
       id="rect4283-5-45-9-96-4-0"
       transform="matrix(0.70710678,0.70710678,-0.70710678,0.70710678,0,0)"
       y="-1583.35"
       x="74.052101"
       ry="50.316113"
       rx="75.490753"
       height="295.94296"
       width="85.494629"
       style="stroke-width:0" />
    <rect
       stroke="param(outline) #000000"
       fill="param(outline) #000000"
       id="rect4283-1-9-6-3-2-8-9"
       transform="matrix(0.70710678,-0.70710678,0.70710678,0.70710678,0,0)"
       y="180.08061"
       x="1602.4103"
       ry="50.316113"
       rx="75.490753"
       height="295.94296"
       width="85.494629"
       style="stroke-width:0" />
    <rect
       stroke="param(outline) #000000"
       fill="param(outline) #000000"
       id="rect4300-6-5-0-6-1-4"
       y="-1053.1517"
       x="1096.5194"
       ry="103.79647"
       rx="103.71025"
       height="245.38374"
       width="296.67337"
       style="stroke-width:0" />
    <path
       inkscape:connector-curvature="0"
       stroke="param(outline) #000000"
       fill="param(outline) #000000"
       id="path4302-37-8-9-8-5-8"
       d="m 1122.6773,-783.78521 c -85.2391,55.1666 -97.0173,109.00978 -95.3593,138.10653 l 151.2597,134.81891 c 0,0 65.8147,-14.54898 65.7654,-65.76502 l -85.4949,-85.49452 49.3236,-49.32439 z"
       style="stroke-width:0" />
    <path
       inkscape:connector-curvature="0"
       stroke="param(outline) #000000"
       fill="param(outline) #000000"
       id="path4302-3-6-8-5-3-2-8"
       d="m 1372.9299,-783.37073 c 85.3383,55.23057 97.1298,109.13648 95.4694,138.26644 l -151.4342,134.97388 c 0,0 -65.8893,-14.56621 -65.84,-65.84128 l 85.5928,-85.59292 -49.3809,-49.38096 z"
       style="stroke-width:0" />
  </g>
</svg>
