<?xml version="1.0" encoding="UTF-8" standalone="no"?>
<!-- Generator: Adobe Illustrator 16.0.0, SVG Export Plug-In . SVG Version: 6.00 Build 0)  -->

<svg
   xmlns:dc="http://purl.org/dc/elements/1.1/"
   xmlns:cc="http://creativecommons.org/ns#"
   xmlns:rdf="http://www.w3.org/1999/02/22-rdf-syntax-ns#"
   xmlns:svg="http://www.w3.org/2000/svg"
   xmlns="http://www.w3.org/2000/svg"
   xmlns:sodipodi="http://sodipodi.sourceforge.net/DTD/sodipodi-0.dtd"
   xmlns:inkscape="http://www.inkscape.org/namespaces/inkscape"
   version="1.1"
   id="Calque_1"
   x="0px"
   y="0px"
   width="141.73px"
   height="141.73px"
   viewBox="0 0 141.73 141.73"
   enable-background="new 0 0 141.73 141.73"
   xml:space="preserve"
   inkscape:version="0.91 r13725"
   sodipodi:docname="urbanisme.svg"><metadata
     id="metadata15"><rdf:RDF><cc:Work
         rdf:about=""><dc:format>image/svg+xml</dc:format><dc:type
           rdf:resource="http://purl.org/dc/dcmitype/StillImage" /><dc:title></dc:title></cc:Work></rdf:RDF></metadata><defs
     id="defs13" /><sodipodi:namedview
     pagecolor="#ffffff"
     bordercolor="#666666"
     borderopacity="1"
     objecttolerance="10"
     gridtolerance="10"
     guidetolerance="10"
     inkscape:pageopacity="0"
     inkscape:pageshadow="2"
     inkscape:window-width="884"
     inkscape:window-height="480"
     id="namedview11"
     showgrid="false"
     inkscape:zoom="1.665138"
     inkscape:cx="-0.60055083"
     inkscape:cy="70.864998"
     inkscape:window-x="65"
     inkscape:window-y="80"
     inkscape:window-maximized="0"
     inkscape:current-layer="Calque_1" /><path
     fill="#E84E0F"
     d="M71.64,139c0,0-23.697-48.46-29.618-60.432c-6.778-13.703-11.987-26.031-11.987-34.647  c0-22.978,18.627-41.604,41.605-41.604s41.605,18.627,41.605,41.604c-0.001,8.616-5.21,20.944-11.987,34.647  C95.337,90.54,71.64,139,71.64,139z"
     id="path3" /><circle
     fill="#FFFFFF"
     cx="71.64"
     cy="44.511"
     r="33.489"
     id="circle5" /><g
     id="g7"><path
       fill="#E84E0F"
       d="M71.13,19.286c-0.073,0.023-0.221,0.086-0.321,0.138c-0.106,0.052-5.707,5.612-12.736,12.644   c-10.294,10.297-12.57,12.6-12.675,12.819c-0.158,0.333-0.173,0.956-0.03,1.278c0.233,0.526,0.835,0.95,1.351,0.95   c0.602,0,0.514,0.08,4.625-4.211l1.122-1.171l0.027,10.01l0.026,10.01l0.159,0.296c0.218,0.401,0.694,0.863,1.104,1.066   l0.338,0.168h17.542c17.179,0,17.547-0.002,17.71-0.102c0.235-0.145,0.435-0.419,0.575-0.795l0.118-0.312l0.026-10.072l0.027-10.07   l2.513,2.42c2.783,2.679,2.823,2.71,3.497,2.751c1.149,0.07,1.986-0.961,1.675-2.062l-0.09-0.316L85.105,32.116   c-9.376-9.379-12.668-12.641-12.848-12.729C72,19.26,71.383,19.204,71.13,19.286L71.13,19.286z M85.294,37.125l1.681,1.691v10.676   v10.676h-3.918h-3.918l-0.019-5.707c-0.019-5.607-0.021-5.715-0.135-6.175c-0.488-1.984-1.813-3.258-3.854-3.705   c-0.246-0.054-1.074-0.07-3.492-0.07c-2.862,0-3.212,0.01-3.626,0.097c-2.378,0.51-4.103,2.086-4.489,4.108   c-0.063,0.327-0.076,1.381-0.076,5.925v5.527h-3.92h-3.922V49.371c0-10.474,0.004-10.796,0.101-10.796   c0.06,0,3.102-3.024,7.828-7.783l7.729-7.782l6.174,6.211C80.834,32.638,84.37,36.194,85.294,37.125L85.294,37.125z M74.434,47.653   c0.752,0.106,1.227,0.479,1.424,1.117c0.104,0.333,0.107,0.516,0.107,5.87v5.527h-4.7h-4.7l0.014-5.492l0.014-5.492l0.118-0.258   c0.299-0.646,1.128-1.142,2.132-1.272C69.325,47.59,73.991,47.59,74.434,47.653L74.434,47.653z"
       id="path9" /></g></svg>