<?xml version="1.0" encoding="UTF-8"?>
<!-- Generator: Adobe Illustrator 13.0.0, SVG Export Plug-In  -->
<!DOCTYPE svg PUBLIC "-//W3C//DTD SVG 1.1//EN" "http://www.w3.org/Graphics/SVG/1.1/DTD/svg11.dtd" [
	<!ENTITY ns_flows "http://ns.adobe.com/Flows/1.0/">
]>
<svg version="1.1" xmlns="http://www.w3.org/2000/svg" xmlns:xlink="http://www.w3.org/1999/xlink" xmlns:a="http://ns.adobe.com/AdobeSVGViewerExtensions/3.0/" x="0px" y="0px" width="803px" height="690px" viewBox="-0.606 -0.067 803 690" enable-background="new -0.606 -0.067 803 690" xml:space="preserve">
<defs>
</defs>
<path fill="#8F8F8F" d="M799.215,1.22c-10.611-2.718-24.173-0.044-34.883-0.044c-15.465,0-30.931,0-46.396,0  c-30.931,0-61.861,0-92.792,0c-64.428,0-128.856,0-193.285,0c-127.453,0-254.905,0-382.357,0c-15.5,0-31,0-46.499,0  c-2.585,0-2.177,13.685-2.2,15.199C0.609,29.27,1.656,42.149,1.215,55.034c-0.553,16.143-2.75,34.519,0.619,50.387  c1.921,9.048,57.702,3.589,66.981,3.589c32.059,0,66.85-5.742,96.723,9.671c11.312,5.836,16.077,12.553,24.189,22.785  c7.147,9.014,7.488,17.458,11.667,28.844c0,83.631,0,167.262,0,250.894c0,65.445,0,130.891,0,196.338  c0,6.974-2.783,71.503,2.256,71.503c101.9,0,203.801,0,305.701,0c39.703,0,79.405,0,119.108,0c6.604,0,2.935-68.074,2.935-76.326  c0-130.742,0-261.484,0-392.226c0-17.481-2.794-39.655,1.519-56.788c4.434-17.613,13.284-29.562,26.388-40.187  c4.782-3.877,12.128-8.862,19.68-12.114l19.414-2.394c12.084,0,101.486,5.294,102.416-4.261  C801.949,93.037,803.012,2.192,799.215,1.22z"/>
<linearGradient id="SVGID_1_" gradientUnits="userSpaceOnUse" x1="665.1182" y1="391.7329" x2="672.1182" y2="391.7329">
	<stop offset="0" style="stop-color:#FFFFFF"/>
	<stop offset="1" style="stop-color:#000000"/>
</linearGradient>
<rect x="665.118" y="376.733" fill="url(#SVGID_1_)" stroke="#000000" width="7" height="30"/>
<path fill="#C2C2C2" stroke="#000000" d="M677.868,369.735c0,5.246-4.142,9.498-9.25,9.498l0,0c-5.108,0-9.25-4.252-9.25-9.498  V338.23c0-5.246,4.142-9.498,9.25-9.498l0,0c5.108,0,9.25,4.252,9.25,9.498V369.735z"/>
<ellipse fill="#EA302E" stroke="#000000" cx="668.643" cy="337.705" rx="7.042" ry="6.338"/>
<ellipse fill="#F5C461" stroke="#000000" cx="668.643" cy="354.205" rx="7.042" ry="6.339"/>
<ellipse fill="#81C891" stroke="#000000" cx="668.393" cy="370.705" rx="7.042" ry="6.339"/>
<polyline fill="none" points="631.394,158.044 631.394,96.043 698.394,96.043 "/>
<line fill="none" stroke="#FFFFFF" stroke-width="160" stroke-dasharray="30,30" x1="220.394" y1="249.043" x2="639.394" y2="249.043"/>
<line fill="#FFFFFF" stroke="#FFFFFF" stroke-width="8" x1="418.394" y1="403.043" x2="418.394" y2="686.043"/>
<line fill="#FFFFFF" stroke="#FFFFFF" stroke-width="7" stroke-dasharray="12" x1="614.394" y1="405.043" x2="418.394" y2="405.043"/>
<ellipse fill="#FFFFFF" cx="504.013" cy="523.409" rx="12.042" ry="21.93"/>
<ellipse fill="#FFFFFF" cx="543.436" cy="524.043" rx="12.042" ry="21.929"/>
<path fill="#FFFFFF" d="M536.084,489.817l-8.113-22.31l-1.268-1.014l-3.218-7.51c0.739-1.396,1.19-3.254,1.19-5.293  c0-4.341-2.043-7.86-4.564-7.86c-2.52,0-4.563,3.52-4.563,7.86s2.043,7.859,4.563,7.859c0.003,0,0.005-0.001,0.007-0.001  l0.754,3.169l-0.253,1.775l-1.015,1.521l-11.915,23.071l-0.76,1.268l0.506,1.267l0.761,0.508h1.521l1.268-1.268l9.38-16.479  l6.338,18.254l-8.873,2.788l-1.521,0.508l-1.773,0.507l-1.015,0.761l-1.014,1.268l0.253,1.521l0.254,1.015l5.07,11.155l1.014,0.507  l0.761-0.254l0.761-0.76l1.014-2.029v-1.521l-1.521-4.311l4.817-1.014l0.254,0.761l-2.535,9.887l-0.254,1.521l1.774,19.015  l0.508,1.267l1.014,0.254h1.774l0.507-0.761l0.254-1.774l-0.761-16.732l7.859-17.746l0.507-2.028l0.508-2.281l0.253-3.043  L536.084,489.817z"/>
<line fill="#FFFFFF" stroke="#FFFFFF" stroke-width="7" stroke-dasharray="12" x1="622.394" y1="609.043" x2="426.394" y2="609.043"/>
<line fill="none" stroke="#3A7ABE" stroke-width="0.3" x1="619.379" y1="405.368" x2="651.394" y2="405.368"/>
<line fill="none" stroke="#3A7ABE" stroke-width="0.3" x1="631.379" y1="609.368" x2="663.394" y2="609.368"/>
<g>
	<g>
		<line fill="#0E58A8" x1="657.394" y1="413.04" x2="657.394" y2="603.932"/>
		<path fill="#0E58A8" d="M657.394,609.967c-1.054-2.84-2.852-6.363-4.755-8.547l4.755,1.72l4.755-1.72    C660.245,603.604,658.446,607.127,657.394,609.967z"/>
		<path fill="#0E58A8" d="M657.394,407.004c1.054,2.84,2.852,6.363,4.755,8.547l-4.755-1.72l-4.755,1.72    C654.542,413.368,656.341,409.844,657.394,407.004z"/>
	</g>
	<g>
		
			<radialGradient id="SVGID_2_" cx="378.6709" cy="-103.4375" r="97.9547" gradientTransform="matrix(-1 0 0 -0.689 1036.0645 437.2167)" gradientUnits="userSpaceOnUse">
			<stop offset="0" style="stop-color:#C9CDD3"/>
			<stop offset="0.1027" style="stop-color:#C1C5CB"/>
			<stop offset="0.2273" style="stop-color:#ACB0B6"/>
			<stop offset="0.3631" style="stop-color:#8D9296"/>
			<stop offset="0.506" style="stop-color:#676D6F"/>
			<stop offset="0.6" style="stop-color:#4D5556"/>
			<stop offset="0.605" style="stop-color:#2D3434"/>
			<stop offset="0.6356" style="stop-color:#3F4646"/>
			<stop offset="0.6761" style="stop-color:#545A5C"/>
			<stop offset="0.7203" style="stop-color:#656C70"/>
			<stop offset="0.7687" style="stop-color:#757C81"/>
			<stop offset="0.8234" style="stop-color:#80878D"/>
			<stop offset="0.8897" style="stop-color:#868E94"/>
			<stop offset="1" style="stop-color:#899097"/>
		</radialGradient>
		<line fill="url(#SVGID_2_)" x1="657.394" y1="413.04" x2="657.394" y2="603.932"/>
		
			<radialGradient id="SVGID_3_" cx="378.6709" cy="-103.4395" r="97.9542" gradientTransform="matrix(-1 0 0 -0.689 1036.0645 437.2167)" gradientUnits="userSpaceOnUse">
			<stop offset="0" style="stop-color:#C9CDD3"/>
			<stop offset="0.1027" style="stop-color:#C1C5CB"/>
			<stop offset="0.2273" style="stop-color:#ACB0B6"/>
			<stop offset="0.3631" style="stop-color:#8D9296"/>
			<stop offset="0.506" style="stop-color:#676D6F"/>
			<stop offset="0.6" style="stop-color:#4D5556"/>
			<stop offset="0.605" style="stop-color:#2D3434"/>
			<stop offset="0.6356" style="stop-color:#3F4646"/>
			<stop offset="0.6761" style="stop-color:#545A5C"/>
			<stop offset="0.7203" style="stop-color:#656C70"/>
			<stop offset="0.7687" style="stop-color:#757C81"/>
			<stop offset="0.8234" style="stop-color:#80878D"/>
			<stop offset="0.8897" style="stop-color:#868E94"/>
			<stop offset="1" style="stop-color:#899097"/>
		</radialGradient>
		<path fill="url(#SVGID_3_)" d="M657.394,609.967c-1.054-2.84-2.852-6.363-4.755-8.547l4.755,1.72l4.755-1.72    C660.245,603.604,658.446,607.127,657.394,609.967z"/>
		
			<radialGradient id="SVGID_4_" cx="378.6709" cy="-103.4355" r="97.9492" gradientTransform="matrix(-1 0 0 -0.689 1036.0645 437.2167)" gradientUnits="userSpaceOnUse">
			<stop offset="0" style="stop-color:#C9CDD3"/>
			<stop offset="0.1027" style="stop-color:#C1C5CB"/>
			<stop offset="0.2273" style="stop-color:#ACB0B6"/>
			<stop offset="0.3631" style="stop-color:#8D9296"/>
			<stop offset="0.506" style="stop-color:#676D6F"/>
			<stop offset="0.6" style="stop-color:#4D5556"/>
			<stop offset="0.605" style="stop-color:#2D3434"/>
			<stop offset="0.6356" style="stop-color:#3F4646"/>
			<stop offset="0.6761" style="stop-color:#545A5C"/>
			<stop offset="0.7203" style="stop-color:#656C70"/>
			<stop offset="0.7687" style="stop-color:#757C81"/>
			<stop offset="0.8234" style="stop-color:#80878D"/>
			<stop offset="0.8897" style="stop-color:#868E94"/>
			<stop offset="1" style="stop-color:#899097"/>
		</radialGradient>
		<path fill="url(#SVGID_4_)" d="M657.394,407.004c1.054,2.84,2.852,6.363,4.755,8.547l-4.755-1.72l-4.755,1.72    C654.542,413.368,656.341,409.844,657.394,407.004z"/>
	</g>
	<g>
		
			<radialGradient id="SVGID_5_" cx="378.6709" cy="-103.4375" r="97.9547" fx="359.4485" fy="-129.3285" gradientTransform="matrix(-1 0 0 -0.689 1036.0645 437.2167)" gradientUnits="userSpaceOnUse">
			<stop offset="0" style="stop-color:#E8E9EC"/>
			<stop offset="0.04" style="stop-color:#E8E9EC"/>
			<stop offset="0.0712" style="stop-color:#CACCD0"/>
			<stop offset="0.1175" style="stop-color:#ABB0B5"/>
			<stop offset="0.1636" style="stop-color:#989EA3"/>
			<stop offset="0.209" style="stop-color:#8C939A"/>
			<stop offset="0.2528" style="stop-color:#899097"/>
		</radialGradient>
		<line fill="url(#SVGID_5_)" x1="657.394" y1="413.04" x2="657.394" y2="603.932"/>
		
			<radialGradient id="SVGID_6_" cx="378.6709" cy="-103.4395" r="97.9542" gradientTransform="matrix(-1 0 0 -0.689 1036.0645 437.2167)" gradientUnits="userSpaceOnUse">
			<stop offset="0" style="stop-color:#E8E9EC"/>
			<stop offset="0.04" style="stop-color:#E8E9EC"/>
			<stop offset="0.0712" style="stop-color:#CACCD0"/>
			<stop offset="0.1175" style="stop-color:#ABB0B5"/>
			<stop offset="0.1636" style="stop-color:#989EA3"/>
			<stop offset="0.209" style="stop-color:#8C939A"/>
			<stop offset="0.2528" style="stop-color:#899097"/>
		</radialGradient>
		<path fill="url(#SVGID_6_)" d="M657.394,609.967c-1.054-2.84-2.852-6.363-4.755-8.547l4.755,1.72l4.755-1.72    C660.245,603.604,658.446,607.127,657.394,609.967z"/>
		
			<radialGradient id="SVGID_7_" cx="378.6709" cy="-103.4355" r="97.9492" gradientTransform="matrix(-1 0 0 -0.689 1036.0645 437.2167)" gradientUnits="userSpaceOnUse">
			<stop offset="0" style="stop-color:#E8E9EC"/>
			<stop offset="0.04" style="stop-color:#E8E9EC"/>
			<stop offset="0.0712" style="stop-color:#CACCD0"/>
			<stop offset="0.1175" style="stop-color:#ABB0B5"/>
			<stop offset="0.1636" style="stop-color:#989EA3"/>
			<stop offset="0.209" style="stop-color:#8C939A"/>
			<stop offset="0.2528" style="stop-color:#899097"/>
		</radialGradient>
		<path fill="url(#SVGID_7_)" d="M657.394,407.004c1.054,2.84,2.852,6.363,4.755,8.547l-4.755-1.72l-4.755,1.72    C654.542,413.368,656.341,409.844,657.394,407.004z"/>
	</g>
	<g>
		<line fill="none" stroke="#3A7ABE" stroke-width="0.3" x1="657.394" y1="413.04" x2="657.394" y2="603.932"/>
		<path fill="#3A7ABE" d="M657.394,605.743c-0.316-0.852-0.855-1.909-1.427-2.564l1.427,0.517l1.427-0.517    C658.249,603.833,657.71,604.891,657.394,605.743z"/>
		<path fill="#3A7ABE" d="M657.394,411.229c0.316,0.852,0.855,1.909,1.427,2.564l-1.427-0.517l-1.427,0.517    C656.538,413.138,657.077,412.081,657.394,411.229z"/>
	</g>
</g>
<path fill="#005EAD" d="M646.685,539.444l-0.211-1.582c0.896-0.182,1.543-0.49,1.938-0.928c0.396-0.436,0.594-0.968,0.594-1.595  c0-0.744-0.258-1.372-0.773-1.886c-0.516-0.512-1.154-0.769-1.916-0.769c-0.727,0-1.325,0.237-1.797,0.712s-0.708,1.078-0.708,1.811  c0,0.299,0.059,0.671,0.176,1.116l-1.389-0.176c0.012-0.105,0.018-0.19,0.018-0.255c0-0.674-0.176-1.28-0.527-1.819  s-0.894-0.809-1.626-0.809c-0.58,0-1.061,0.196-1.441,0.589s-0.571,0.899-0.571,1.521c0,0.615,0.193,1.128,0.58,1.538  s0.967,0.674,1.74,0.791l-0.281,1.582c-1.061-0.193-1.882-0.633-2.466-1.318c-0.582-0.686-0.874-1.538-0.874-2.558  c0-0.703,0.151-1.351,0.452-1.942c0.303-0.592,0.714-1.044,1.235-1.357s1.075-0.471,1.661-0.471c0.557,0,1.063,0.149,1.521,0.448  s0.82,0.741,1.09,1.327c0.176-0.762,0.54-1.354,1.095-1.775c0.553-0.422,1.246-0.633,2.078-0.633c1.125,0,2.078,0.41,2.861,1.23  c0.781,0.82,1.173,1.857,1.173,3.111c0,1.131-0.337,2.07-1.011,2.816C648.63,538.913,647.757,539.338,646.685,539.444z"/>
<path fill="#005EAD" d="M639.592,518.904v1.274l-2.461,2.03v-2.118L639.592,518.904z M650.086,517.594  c-0.328,0.164-0.712,0.27-1.151,0.316c0.498,0.586,0.85,1.15,1.055,1.691c0.205,0.543,0.308,1.124,0.308,1.745  c0,1.025-0.251,1.813-0.751,2.364c-0.502,0.551-1.142,0.826-1.921,0.826c-0.457,0-0.874-0.104-1.253-0.313  c-0.377-0.207-0.681-0.479-0.909-0.816s-0.401-0.717-0.519-1.139c-0.082-0.311-0.161-0.779-0.237-1.406  c-0.152-1.277-0.334-2.218-0.545-2.821c-0.217-0.006-0.354-0.009-0.413-0.009c-0.645,0-1.099,0.149-1.362,0.448  c-0.357,0.404-0.536,1.005-0.536,1.802c0,0.744,0.131,1.294,0.391,1.648c0.262,0.354,0.723,0.616,1.385,0.786l-0.211,1.547  c-0.662-0.141-1.196-0.372-1.604-0.694s-0.721-0.788-0.941-1.397c-0.219-0.609-0.329-1.315-0.329-2.118  c0-0.797,0.094-1.444,0.281-1.942s0.424-0.864,0.708-1.099s0.643-0.398,1.076-0.492c0.27-0.053,0.756-0.079,1.459-0.079h2.109  c1.471,0,2.401-0.033,2.791-0.101s0.763-0.201,1.12-0.4V517.594L650.086,517.594z M645.401,518.042  c0.234,0.574,0.434,1.436,0.598,2.584c0.094,0.65,0.199,1.11,0.316,1.38s0.289,0.478,0.514,0.624c0.227,0.146,0.477,0.22,0.752,0.22  c0.422,0,0.773-0.159,1.055-0.479s0.422-0.787,0.422-1.402c0-0.609-0.133-1.151-0.4-1.626c-0.266-0.475-0.631-0.823-1.094-1.046  c-0.357-0.17-0.885-0.255-1.582-0.255H645.401z"/>
<path fill="#005EAD" d="M646.711,509.429l-0.141-1.661c0.809-0.123,1.417-0.408,1.823-0.857c0.408-0.447,0.611-0.988,0.611-1.621  c0-0.762-0.287-1.406-0.861-1.934s-1.336-0.791-2.285-0.791c-0.902,0-1.614,0.254-2.136,0.76c-0.521,0.508-0.782,1.171-0.782,1.991  c0,0.51,0.116,0.97,0.348,1.38s0.531,0.732,0.9,0.967l-0.193,1.485l-6.618-1.248v-6.407h1.512v5.142l3.463,0.694  c-0.539-0.773-0.809-1.585-0.809-2.435c0-1.125,0.39-2.074,1.169-2.848s1.781-1.16,3.006-1.16c1.166,0,2.174,0.34,3.023,1.02  c1.043,0.826,1.564,1.954,1.564,3.384c0,1.172-0.328,2.129-0.984,2.869C648.665,508.901,647.795,509.324,646.711,509.429z"/>
<path fill="#005EAD" d="M650.086,493.978h-9.334v-1.415h1.31c-0.457-0.293-0.824-0.683-1.104-1.169  c-0.277-0.486-0.417-1.04-0.417-1.661c0-0.691,0.144-1.258,0.431-1.701c0.287-0.441,0.688-0.754,1.204-0.936  c-1.09-0.738-1.635-1.699-1.635-2.883c0-0.926,0.257-1.638,0.769-2.136c0.514-0.498,1.303-0.747,2.369-0.747h6.407v1.573h-5.88  c-0.633,0-1.088,0.052-1.367,0.153c-0.277,0.104-0.502,0.289-0.672,0.559s-0.255,0.586-0.255,0.949c0,0.656,0.219,1.201,0.655,1.635  s1.135,0.65,2.096,0.65h5.423v1.582h-6.064c-0.703,0-1.23,0.129-1.582,0.387s-0.527,0.68-0.527,1.266  c0,0.445,0.117,0.857,0.352,1.234c0.234,0.379,0.577,0.652,1.028,0.822s1.102,0.255,1.951,0.255h4.843V493.978z"/>
</svg>