<?xml version="1.0" encoding="UTF-8"?>
<!-- Generator: Adobe Illustrator 13.0.0, SVG Export Plug-In  -->
<!DOCTYPE svg PUBLIC "-//W3C//DTD SVG 1.1//EN" "http://www.w3.org/Graphics/SVG/1.1/DTD/svg11.dtd" [
	<!ENTITY ns_flows "http://ns.adobe.com/Flows/1.0/">
]>
<svg version="1.1" xmlns="http://www.w3.org/2000/svg" xmlns:xlink="http://www.w3.org/1999/xlink" xmlns:a="http://ns.adobe.com/AdobeSVGViewerExtensions/3.0/" x="0px" y="0px" width="1575px" height="913px" viewBox="0 0 1575 913" enable-background="new 0 0 1575 913" xml:space="preserve">
<defs>
</defs>
<rect fill="#BFBFBF" width="1575" height="912.32"/>
<polygon fill="#FFFFFF" points="863.352,424.395 832.014,241.417 800.675,58.44 769.338,241.417 738,424.395 783.07,424.395   783.07,792 814.056,792 814.056,424.395 "/>
<polygon fill="#FFFFFF" points="1180.168,235.689 1112.563,54 1112.039,190.383 991.437,304.704 992.843,307.938 991.436,787.801   1021.013,789.21 1022.398,366.923 1111.675,284.789 1111.155,420.197 "/>
<polygon fill="#FFFFFF" points="387.267,235.689 454.873,54 455.397,190.383 575.999,304.704 574.592,307.938 576,787.801   546.422,789.21 545.038,366.923 455.76,284.789 456.281,420.197 "/>
<polygon fill="#FFFFFF" points="1491.017,428.45 1455.441,340.966 1455.441,474.718 1359.709,555.876 1359.709,428.596   1410.374,428.596 1377.278,248.858 1344.186,69.119 1311.094,248.858 1278,428.596 1324.782,428.596 1324.782,789.21   1359.709,789.21 1359.709,650.469 1455.441,567.672 1455.441,690.902 1491.017,603.413 1526.593,515.933 "/>
<polygon fill="#FFFFFF" points="89.576,428.45 125.152,340.966 125.152,474.718 220.883,555.876 220.883,428.596 170.219,428.596   203.315,248.858 236.407,69.119 269.499,248.858 302.593,428.596 255.811,428.596 255.811,789.21 220.883,789.21 220.883,650.469   125.152,567.672 125.152,690.902 89.576,603.413 54,515.933 "/>
<path d="M1276.556,839v-15.032h10.142v1.773h-8.151v4.656h7.055v1.773h-7.055V839H1276.556z"/>
<path d="M1289.005,839v-15.032h1.846V839H1289.005z"/>
<path d="M1301.166,835.493l1.908,0.236c-0.302,1.114-0.858,1.979-1.672,2.594s-1.853,0.923-3.117,0.923  c-1.593,0-2.855-0.49-3.789-1.472c-0.933-0.98-1.399-2.356-1.399-4.127c0-1.832,0.472-3.254,1.415-4.266s2.167-1.518,3.671-1.518  c1.456,0,2.646,0.496,3.568,1.486c0.923,0.992,1.384,2.387,1.384,4.184c0,0.11-0.003,0.274-0.01,0.492h-8.121  c0.068,1.197,0.406,2.113,1.016,2.748c0.607,0.637,1.366,0.954,2.275,0.954c0.678,0,1.255-0.178,1.733-0.533  S1300.885,836.272,1301.166,835.493z M1295.106,832.508h6.081c-0.082-0.915-0.315-1.603-0.697-2.061  c-0.589-0.711-1.351-1.066-2.287-1.066c-0.848,0-1.561,0.284-2.138,0.852C1295.487,830.8,1295.167,831.559,1295.106,832.508z   M1299.361,826.756h-1.486l-2.369-2.871h2.472L1299.361,826.756z"/>
<path d="M1312.497,835.01l1.815,0.236c-0.199,1.251-0.706,2.23-1.523,2.938c-0.816,0.708-1.82,1.062-3.01,1.062  c-1.49,0-2.688-0.487-3.594-1.461c-0.905-0.975-1.358-2.37-1.358-4.188c0-1.176,0.194-2.205,0.585-3.087  c0.389-0.882,0.982-1.543,1.778-1.984c0.797-0.44,1.663-0.661,2.6-0.661c1.183,0,2.149,0.299,2.901,0.897  c0.752,0.598,1.234,1.447,1.446,2.548l-1.794,0.277c-0.172-0.731-0.474-1.282-0.908-1.651c-0.434-0.369-0.959-0.554-1.574-0.554  c-0.93,0-1.685,0.333-2.266,1c-0.581,0.666-0.871,1.721-0.871,3.163c0,1.463,0.279,2.526,0.84,3.188  c0.561,0.664,1.293,0.995,2.195,0.995c0.724,0,1.329-0.222,1.814-0.667C1312.059,836.618,1312.367,835.934,1312.497,835.01z"/>
<path d="M1315.89,839v-15.032h1.846v5.394c0.861-0.998,1.949-1.497,3.262-1.497c0.806,0,1.507,0.159,2.102,0.477  c0.595,0.318,1.021,0.758,1.276,1.318c0.257,0.561,0.385,1.373,0.385,2.439V839h-1.846v-6.901c0-0.922-0.2-1.594-0.6-2.015  c-0.4-0.42-0.966-0.63-1.697-0.63c-0.547,0-1.062,0.142-1.543,0.425c-0.482,0.284-0.825,0.669-1.03,1.153  c-0.205,0.486-0.309,1.156-0.309,2.01V839H1315.89z"/>
<path d="M1335.025,835.493l1.906,0.236c-0.301,1.114-0.857,1.979-1.671,2.594s-1.853,0.923-3.117,0.923  c-1.593,0-2.855-0.49-3.789-1.472c-0.933-0.98-1.399-2.356-1.399-4.127c0-1.832,0.472-3.254,1.415-4.266s2.167-1.518,3.671-1.518  c1.456,0,2.646,0.496,3.568,1.486c0.923,0.992,1.385,2.387,1.385,4.184c0,0.11-0.004,0.274-0.011,0.492h-8.121  c0.068,1.197,0.406,2.113,1.015,2.748c0.608,0.637,1.367,0.954,2.277,0.954c0.676,0,1.254-0.178,1.732-0.533  S1334.744,836.272,1335.025,835.493z M1328.964,832.508h6.08c-0.082-0.915-0.314-1.603-0.697-2.061  c-0.588-0.711-1.35-1.066-2.286-1.066c-0.848,0-1.561,0.284-2.138,0.852C1329.345,830.8,1329.026,831.559,1328.964,832.508z"/>
<path d="M1346.786,839h-1.712v-15.032h1.846v5.363c0.779-0.978,1.773-1.467,2.983-1.467c0.67,0,1.304,0.135,1.902,0.405  c0.598,0.27,1.09,0.649,1.477,1.138c0.386,0.489,0.688,1.079,0.907,1.77s0.328,1.429,0.328,2.215c0,1.865-0.461,3.309-1.385,4.326  c-0.922,1.02-2.029,1.528-3.322,1.528c-1.285,0-2.293-0.536-3.024-1.61V839z M1346.765,833.473c0,1.306,0.178,2.249,0.533,2.83  c0.581,0.95,1.367,1.425,2.358,1.425c0.807,0,1.504-0.351,2.092-1.051c0.588-0.701,0.882-1.745,0.882-3.133  c0-1.422-0.282-2.472-0.846-3.147c-0.564-0.678-1.246-1.016-2.046-1.016c-0.807,0-1.504,0.351-2.092,1.051  C1347.059,831.133,1346.765,832.147,1346.765,833.473z"/>
<path d="M1356.773,826.09v-2.123h1.846v2.123H1356.773z M1356.773,839v-10.89h1.846V839H1356.773z"/>
<path d="M1368.494,839v-1.374c-0.691,1.08-1.706,1.62-3.046,1.62c-0.868,0-1.666-0.239-2.395-0.718  c-0.728-0.479-1.292-1.146-1.691-2.005c-0.4-0.857-0.601-1.844-0.601-2.958c0-1.087,0.182-2.073,0.544-2.958  c0.362-0.886,0.905-1.563,1.63-2.036c0.725-0.471,1.535-0.707,2.431-0.707c0.656,0,1.241,0.139,1.753,0.415  c0.514,0.277,0.93,0.638,1.252,1.082v-5.394h1.835V839H1368.494z M1362.659,833.565c0,1.395,0.294,2.438,0.882,3.127  c0.588,0.691,1.281,1.036,2.082,1.036c0.806,0,1.491-0.33,2.056-0.989c0.563-0.66,0.846-1.666,0.846-3.02  c0-1.49-0.287-2.584-0.861-3.281s-1.282-1.047-2.122-1.047c-0.82,0-1.506,0.336-2.057,1.006  C1362.934,831.067,1362.659,832.123,1362.659,833.565z"/>
<path d="M1373.118,826.09v-2.123h1.846v2.123H1373.118z M1373.118,839v-10.89h1.846V839H1373.118z"/>
<path d="M1377.752,839v-10.89h1.661v1.65c0.424-0.771,0.815-1.281,1.174-1.527c0.359-0.246,0.754-0.369,1.185-0.369  c0.622,0,1.254,0.198,1.897,0.595l-0.637,1.712c-0.451-0.266-0.902-0.399-1.354-0.399c-0.403,0-0.766,0.121-1.086,0.364  c-0.322,0.242-0.551,0.579-0.688,1.01c-0.205,0.656-0.308,1.374-0.308,2.153V839H1377.752z"/>
<path d="M1392.22,835.493l1.908,0.236c-0.302,1.114-0.858,1.979-1.672,2.594s-1.853,0.923-3.117,0.923  c-1.593,0-2.855-0.49-3.789-1.472c-0.933-0.98-1.399-2.356-1.399-4.127c0-1.832,0.472-3.254,1.415-4.266s2.167-1.518,3.671-1.518  c1.456,0,2.646,0.496,3.568,1.486c0.923,0.992,1.384,2.387,1.384,4.184c0,0.11-0.003,0.274-0.01,0.492h-8.121  c0.068,1.197,0.406,2.113,1.016,2.748c0.607,0.637,1.366,0.954,2.275,0.954c0.678,0,1.255-0.178,1.733-0.533  S1391.94,836.272,1392.22,835.493z M1386.161,832.508h6.081c-0.082-0.915-0.315-1.603-0.697-2.061  c-0.589-0.711-1.351-1.066-2.287-1.066c-0.848,0-1.561,0.284-2.138,0.852C1386.542,830.8,1386.222,831.559,1386.161,832.508z"/>
<path d="M1403.551,835.01l1.815,0.236c-0.199,1.251-0.706,2.23-1.523,2.938c-0.816,0.708-1.82,1.062-3.01,1.062  c-1.49,0-2.688-0.487-3.594-1.461c-0.905-0.975-1.358-2.37-1.358-4.188c0-1.176,0.194-2.205,0.585-3.087  c0.389-0.882,0.982-1.543,1.778-1.984c0.797-0.44,1.663-0.661,2.6-0.661c1.183,0,2.149,0.299,2.901,0.897  c0.752,0.598,1.234,1.447,1.446,2.548l-1.794,0.277c-0.172-0.731-0.474-1.282-0.908-1.651c-0.434-0.369-0.959-0.554-1.574-0.554  c-0.93,0-1.685,0.333-2.266,1c-0.581,0.666-0.871,1.721-0.871,3.163c0,1.463,0.279,2.526,0.84,3.188  c0.561,0.664,1.293,0.995,2.195,0.995c0.724,0,1.329-0.222,1.814-0.667C1403.114,836.618,1403.421,835.934,1403.551,835.01z"/>
<path d="M1410.166,837.42c0.205,0,0.475-0.023,0.81-0.072l0.267,1.631c-0.52,0.109-0.984,0.164-1.395,0.164  c-0.67,0-1.189-0.106-1.559-0.318c-0.369-0.211-0.629-0.49-0.779-0.835c-0.15-0.346-0.226-1.071-0.226-2.179v-6.266h-1.354v-1.436  h1.354v-2.697l1.835-1.107v3.805h1.856v1.436h-1.856v6.367c0,0.527,0.033,0.865,0.098,1.016c0.065,0.15,0.171,0.271,0.318,0.359  C1409.681,837.376,1409.891,837.42,1410.166,837.42L1410.166,837.42z"/>
<path d="M1412.791,826.09v-2.123h1.846v2.123H1412.791z M1412.791,839v-10.89h1.846V839H1412.791z"/>
<path d="M1416.758,833.555c0-2.017,0.561-3.511,1.682-4.481c0.937-0.807,2.078-1.21,3.425-1.21c1.497,0,2.721,0.49,3.671,1.472  c0.95,0.98,1.425,2.336,1.425,4.065c0,1.401-0.21,2.504-0.63,3.307c-0.421,0.804-1.032,1.428-1.836,1.871  c-0.803,0.444-1.68,0.667-2.63,0.667c-1.524,0-2.757-0.488-3.696-1.466C1417.228,836.802,1416.758,835.394,1416.758,833.555z   M1418.656,833.555c0,1.395,0.304,2.438,0.912,3.132c0.608,0.694,1.374,1.041,2.297,1.041c0.916,0,1.678-0.349,2.287-1.046  c0.607-0.697,0.912-1.76,0.912-3.189c0-1.346-0.306-2.366-0.918-3.061c-0.611-0.693-1.372-1.041-2.281-1.041  c-0.923,0-1.688,0.346-2.297,1.036S1418.656,832.161,1418.656,833.555z"/>
<path d="M1429.125,839v-10.89h1.661v1.549c0.8-1.196,1.955-1.795,3.466-1.795c0.656,0,1.26,0.118,1.81,0.354  c0.551,0.236,0.962,0.546,1.235,0.928c0.273,0.384,0.465,0.838,0.574,1.364c0.068,0.342,0.104,0.94,0.104,1.794V839h-1.846v-6.624  c0-0.752-0.072-1.314-0.216-1.687c-0.144-0.373-0.398-0.67-0.764-0.893c-0.366-0.222-0.795-0.333-1.287-0.333  c-0.786,0-1.465,0.25-2.035,0.748c-0.571,0.5-0.856,1.446-0.856,2.841V839H1429.125z"/>
<path d="M1440.804,839v-10.89h1.66v1.549c0.801-1.196,1.955-1.795,3.467-1.795c0.656,0,1.259,0.118,1.81,0.354  c0.55,0.236,0.962,0.546,1.235,0.928c0.273,0.384,0.465,0.838,0.574,1.364c0.068,0.342,0.103,0.94,0.103,1.794V839h-1.846v-6.624  c0-0.752-0.071-1.314-0.216-1.687c-0.143-0.373-0.397-0.67-0.764-0.893c-0.365-0.222-0.795-0.333-1.287-0.333  c-0.786,0-1.464,0.25-2.035,0.748c-0.57,0.5-0.855,1.446-0.855,2.841V839H1440.804z"/>
<path d="M1459.937,835.493l1.908,0.236c-0.302,1.114-0.858,1.979-1.672,2.594s-1.853,0.923-3.117,0.923  c-1.593,0-2.855-0.49-3.789-1.472c-0.933-0.98-1.399-2.356-1.399-4.127c0-1.832,0.472-3.254,1.415-4.266s2.167-1.518,3.671-1.518  c1.456,0,2.646,0.496,3.568,1.486c0.923,0.992,1.384,2.387,1.384,4.184c0,0.11-0.003,0.274-0.01,0.492h-8.121  c0.068,1.197,0.406,2.113,1.016,2.748c0.607,0.637,1.366,0.954,2.275,0.954c0.678,0,1.255-0.178,1.733-0.533  S1459.657,836.272,1459.937,835.493z M1453.877,832.508h6.081c-0.082-0.915-0.315-1.603-0.697-2.061  c-0.589-0.711-1.351-1.066-2.287-1.066c-0.848,0-1.561,0.284-2.138,0.852C1454.258,830.8,1453.939,831.559,1453.877,832.508z"/>
<path d="M1464.121,839v-15.032h1.846V839H1464.121z"/>
<path d="M1468.787,839v-15.032h1.846V839H1468.787z"/>
<path d="M1480.948,835.493l1.907,0.236c-0.301,1.114-0.858,1.979-1.672,2.594s-1.853,0.923-3.117,0.923  c-1.593,0-2.855-0.49-3.788-1.472c-0.934-0.98-1.399-2.356-1.399-4.127c0-1.832,0.471-3.254,1.414-4.266s2.167-1.518,3.672-1.518  c1.455,0,2.645,0.496,3.568,1.486c0.922,0.992,1.384,2.387,1.384,4.184c0,0.11-0.004,0.274-0.011,0.492h-8.121  c0.068,1.197,0.407,2.113,1.016,2.748c0.608,0.637,1.367,0.954,2.276,0.954c0.677,0,1.254-0.178,1.733-0.533  C1480.288,836.839,1480.667,836.272,1480.948,835.493z M1474.888,832.508h6.08c-0.082-0.915-0.314-1.603-0.697-2.061  c-0.588-0.711-1.351-1.066-2.287-1.066c-0.848,0-1.56,0.284-2.138,0.852C1475.269,830.8,1474.949,831.559,1474.888,832.508z"/>
<path d="M1273.603,862.42c0.205,0,0.476-0.023,0.811-0.072l0.267,1.631c-0.52,0.109-0.984,0.164-1.395,0.164  c-0.67,0-1.189-0.106-1.559-0.318c-0.369-0.211-0.629-0.49-0.779-0.835c-0.15-0.346-0.226-1.071-0.226-2.179v-6.266h-1.354v-1.436  h1.354v-2.697l1.836-1.107v3.805h1.855v1.436h-1.855v6.367c0,0.527,0.032,0.865,0.097,1.016c0.065,0.15,0.171,0.271,0.318,0.359  C1273.12,862.376,1273.33,862.42,1273.603,862.42L1273.603,862.42z"/>
<path d="M1275.531,858.555c0-2.017,0.561-3.511,1.682-4.481c0.937-0.807,2.078-1.21,3.426-1.21c1.496,0,2.72,0.49,3.67,1.472  c0.95,0.98,1.426,2.336,1.426,4.065c0,1.401-0.21,2.504-0.631,3.307c-0.42,0.804-1.032,1.428-1.835,1.871  c-0.804,0.444-1.681,0.667-2.63,0.667c-1.525,0-2.757-0.488-3.697-1.466C1276.001,861.802,1275.531,860.394,1275.531,858.555z   M1277.428,858.555c0,1.395,0.304,2.438,0.913,3.132c0.607,0.694,1.373,1.041,2.297,1.041c0.915,0,1.678-0.349,2.286-1.046  s0.913-1.76,0.913-3.189c0-1.346-0.307-2.366-0.918-3.061c-0.612-0.693-1.373-1.041-2.281-1.041c-0.924,0-1.689,0.346-2.297,1.036  C1277.732,856.118,1277.428,857.161,1277.428,858.555z"/>
<path d="M1295.035,864v-1.6c-0.849,1.23-2,1.846-3.456,1.846c-0.643,0-1.242-0.123-1.8-0.369c-0.557-0.246-0.971-0.556-1.24-0.928  c-0.271-0.373-0.46-0.829-0.569-1.369c-0.075-0.362-0.112-0.937-0.112-1.723v-6.747h1.846v6.039c0,0.965,0.037,1.614,0.112,1.949  c0.116,0.485,0.362,0.866,0.738,1.143c0.376,0.277,0.841,0.416,1.395,0.416s1.073-0.143,1.559-0.426  c0.485-0.284,0.829-0.67,1.03-1.159c0.202-0.488,0.303-1.197,0.303-2.128v-5.834h1.846V864H1295.035z"/>
<path d="M1299.556,864v-10.89h1.661v1.65c0.424-0.771,0.815-1.281,1.174-1.527c0.359-0.246,0.754-0.369,1.185-0.369  c0.622,0,1.254,0.198,1.896,0.595l-0.635,1.712c-0.451-0.266-0.902-0.399-1.354-0.399c-0.404,0-0.767,0.121-1.088,0.364  c-0.321,0.242-0.55,0.579-0.687,1.01c-0.205,0.656-0.308,1.374-0.308,2.153V864H1299.556z"/>
<path d="M1306.57,864v-10.89h1.661v1.549c0.8-1.196,1.955-1.795,3.466-1.795c0.656,0,1.26,0.118,1.81,0.354  c0.551,0.236,0.962,0.546,1.235,0.928c0.273,0.384,0.465,0.838,0.574,1.364c0.068,0.342,0.104,0.94,0.104,1.794V864h-1.846v-6.624  c0-0.752-0.072-1.314-0.216-1.687c-0.144-0.373-0.398-0.67-0.764-0.893c-0.366-0.222-0.795-0.333-1.287-0.333  c-0.786,0-1.465,0.25-2.035,0.748c-0.571,0.5-0.856,1.446-0.856,2.841V864H1306.57z"/>
<path d="M1325.704,860.493l1.907,0.236c-0.301,1.114-0.858,1.979-1.672,2.594s-1.853,0.923-3.117,0.923  c-1.593,0-2.855-0.49-3.788-1.472c-0.934-0.98-1.399-2.356-1.399-4.127c0-1.832,0.471-3.254,1.414-4.266s2.167-1.518,3.672-1.518  c1.455,0,2.645,0.496,3.568,1.486c0.922,0.992,1.384,2.387,1.384,4.184c0,0.11-0.004,0.274-0.011,0.492h-8.121  c0.068,1.197,0.407,2.113,1.016,2.748c0.608,0.637,1.367,0.954,2.276,0.954c0.677,0,1.254-0.178,1.733-0.533  C1325.043,861.839,1325.423,861.272,1325.704,860.493z M1319.644,857.508h6.08c-0.082-0.915-0.314-1.603-0.697-2.061  c-0.588-0.711-1.351-1.066-2.287-1.066c-0.848,0-1.56,0.284-2.138,0.852C1320.025,855.8,1319.705,856.559,1319.644,857.508z"/>
<path d="M1329.21,859.488v-1.856h5.67v1.856H1329.21z"/>
<path d="M1344.396,864c-0.191-0.383-0.314-0.831-0.369-1.343c-0.684,0.581-1.341,0.991-1.974,1.23  c-0.632,0.238-1.311,0.358-2.035,0.358c-1.196,0-2.116-0.292-2.759-0.877c-0.643-0.584-0.963-1.331-0.963-2.24  c0-0.533,0.121-1.021,0.363-1.461c0.243-0.441,0.561-0.795,0.954-1.062c0.393-0.267,0.835-0.468,1.327-0.605  c0.362-0.095,0.909-0.188,1.641-0.276c1.49-0.178,2.588-0.39,3.292-0.636c0.007-0.253,0.011-0.413,0.011-0.482  c0-0.751-0.175-1.281-0.523-1.589c-0.472-0.417-1.173-0.626-2.102-0.626c-0.869,0-1.51,0.152-1.923,0.457  c-0.414,0.304-0.72,0.843-0.918,1.615l-1.805-0.246c0.164-0.772,0.434-1.396,0.81-1.872c0.376-0.475,0.92-0.841,1.631-1.097  c0.711-0.257,1.534-0.385,2.471-0.385c0.93,0,1.686,0.109,2.267,0.328s1.008,0.494,1.282,0.825c0.272,0.332,0.464,0.751,0.574,1.257  c0.061,0.314,0.092,0.881,0.092,1.701v2.461c0,1.717,0.039,2.802,0.118,3.256c0.078,0.455,0.233,0.891,0.466,1.308H1344.396  L1344.396,864z M1343.874,858.534c-0.67,0.274-1.675,0.507-3.015,0.697c-0.759,0.11-1.296,0.233-1.609,0.369  c-0.315,0.138-0.558,0.337-0.729,0.601c-0.171,0.263-0.256,0.556-0.256,0.876c0,0.492,0.186,0.902,0.559,1.23  c0.372,0.328,0.918,0.492,1.635,0.492c0.711,0,1.344-0.155,1.897-0.466c0.554-0.312,0.96-0.736,1.22-1.276  c0.198-0.417,0.298-1.032,0.298-1.846V858.534z M1342.869,851.756h-1.486l-2.369-2.871h2.471L1342.869,851.756z"/>
<path d="M1347.882,859.488v-1.856h5.671v1.856H1347.882z"/>
<path d="M1362.659,864v-1.374c-0.69,1.08-1.706,1.62-3.046,1.62c-0.868,0-1.666-0.239-2.394-0.718  c-0.729-0.479-1.292-1.146-1.692-2.005c-0.399-0.857-0.6-1.844-0.6-2.958c0-1.087,0.181-2.073,0.543-2.958  c0.362-0.886,0.906-1.563,1.631-2.036c0.725-0.471,1.534-0.707,2.43-0.707c0.656,0,1.241,0.139,1.754,0.415  c0.513,0.277,0.93,0.638,1.251,1.082v-5.394h1.835V864H1362.659z M1356.824,858.565c0,1.395,0.294,2.438,0.883,3.127  c0.587,0.691,1.281,1.036,2.081,1.036c0.807,0,1.492-0.33,2.056-0.989c0.564-0.66,0.846-1.666,0.846-3.02  c0-1.49-0.287-2.584-0.861-3.281s-1.281-1.047-2.122-1.047c-0.82,0-1.506,0.336-2.056,1.006  C1357.099,856.067,1356.824,857.123,1356.824,858.565z"/>
<path d="M1367.252,864v-10.89h1.661v1.65c0.424-0.771,0.815-1.281,1.174-1.527c0.359-0.246,0.754-0.369,1.185-0.369  c0.622,0,1.254,0.198,1.897,0.595l-0.637,1.712c-0.451-0.266-0.902-0.399-1.354-0.399c-0.403,0-0.766,0.121-1.086,0.364  c-0.322,0.242-0.551,0.579-0.688,1.01c-0.205,0.656-0.308,1.374-0.308,2.153V864H1367.252z"/>
<path d="M1373.58,858.555c0-2.017,0.56-3.511,1.682-4.481c0.936-0.807,2.077-1.21,3.424-1.21c1.498,0,2.721,0.49,3.672,1.472  c0.949,0.98,1.425,2.336,1.425,4.065c0,1.401-0.21,2.504-0.631,3.307c-0.42,0.804-1.032,1.428-1.835,1.871  c-0.804,0.444-1.681,0.667-2.631,0.667c-1.524,0-2.756-0.488-3.696-1.466C1374.049,861.802,1373.58,860.394,1373.58,858.555z   M1375.476,858.555c0,1.395,0.304,2.438,0.912,3.132c0.608,0.694,1.375,1.041,2.297,1.041c0.916,0,1.679-0.349,2.287-1.046  s0.912-1.76,0.912-3.189c0-1.346-0.306-2.366-0.917-3.061c-0.612-0.693-1.373-1.041-2.282-1.041c-0.922,0-1.688,0.346-2.297,1.036  S1375.476,857.161,1375.476,858.555z"/>
<path d="M1385.956,851.09v-2.123h1.846v2.123H1385.956z M1385.956,864v-10.89h1.846V864H1385.956z"/>
<path d="M1393.831,862.42c0.205,0,0.475-0.023,0.81-0.072l0.268,1.631c-0.521,0.109-0.984,0.164-1.395,0.164  c-0.671,0-1.189-0.106-1.559-0.318c-0.369-0.211-0.63-0.49-0.779-0.835c-0.151-0.346-0.227-1.071-0.227-2.179v-6.266h-1.354v-1.436  h1.354v-2.697l1.836-1.107v3.805h1.855v1.436h-1.855v6.367c0,0.527,0.032,0.865,0.098,1.016c0.064,0.15,0.171,0.271,0.317,0.359  C1393.347,862.376,1393.557,862.42,1393.831,862.42L1393.831,862.42z"/>
<path d="M1403.9,860.493l1.907,0.236c-0.301,1.114-0.858,1.979-1.671,2.594c-0.814,0.615-1.854,0.923-3.117,0.923  c-1.594,0-2.856-0.49-3.789-1.472c-0.934-0.98-1.4-2.356-1.4-4.127c0-1.832,0.473-3.254,1.416-4.266s2.166-1.518,3.67-1.518  c1.457,0,2.646,0.496,3.568,1.486c0.924,0.992,1.385,2.387,1.385,4.184c0,0.11-0.004,0.274-0.01,0.492h-8.121  c0.067,1.197,0.406,2.113,1.015,2.748c0.608,0.637,1.367,0.954,2.276,0.954c0.677,0,1.254-0.178,1.732-0.533  S1403.62,861.272,1403.9,860.493z M1397.839,857.508h6.081c-0.082-0.915-0.314-1.603-0.697-2.061  c-0.588-0.711-1.351-1.066-2.286-1.066c-0.849,0-1.561,0.284-2.139,0.852C1398.221,855.8,1397.902,856.559,1397.839,857.508z"/>
<path d="M1421.414,860.493l1.907,0.236c-0.301,1.114-0.858,1.979-1.671,2.594c-0.814,0.615-1.854,0.923-3.117,0.923  c-1.594,0-2.856-0.49-3.789-1.472c-0.934-0.98-1.4-2.356-1.4-4.127c0-1.832,0.473-3.254,1.416-4.266s2.166-1.518,3.67-1.518  c1.457,0,2.646,0.496,3.568,1.486c0.924,0.992,1.385,2.387,1.385,4.184c0,0.11-0.004,0.274-0.01,0.492h-8.121  c0.067,1.197,0.406,2.113,1.015,2.748c0.608,0.637,1.367,0.954,2.276,0.954c0.677,0,1.254-0.178,1.732-0.533  S1421.133,861.272,1421.414,860.493z M1415.353,857.508h6.081c-0.082-0.915-0.314-1.603-0.697-2.061  c-0.588-0.711-1.351-1.066-2.286-1.066c-0.849,0-1.561,0.284-2.139,0.852C1415.735,855.8,1415.416,856.559,1415.353,857.508z"/>
<path d="M1428.858,862.42c0.205,0,0.475-0.023,0.81-0.072l0.268,1.631c-0.521,0.109-0.984,0.164-1.395,0.164  c-0.671,0-1.189-0.106-1.559-0.318c-0.369-0.211-0.63-0.49-0.779-0.835c-0.151-0.346-0.227-1.071-0.227-2.179v-6.266h-1.354v-1.436  h1.354v-2.697l1.836-1.107v3.805h1.855v1.436h-1.855v6.367c0,0.527,0.032,0.865,0.098,1.016c0.064,0.15,0.171,0.271,0.317,0.359  C1428.375,862.376,1428.584,862.42,1428.858,862.42L1428.858,862.42z"/>
<path d="M1444.373,864v-1.374c-0.691,1.08-1.706,1.62-3.046,1.62c-0.868,0-1.666-0.239-2.395-0.718  c-0.728-0.479-1.292-1.146-1.691-2.005c-0.4-0.857-0.601-1.844-0.601-2.958c0-1.087,0.182-2.073,0.544-2.958  c0.362-0.886,0.905-1.563,1.63-2.036c0.725-0.471,1.535-0.707,2.431-0.707c0.656,0,1.241,0.139,1.753,0.415  c0.514,0.277,0.93,0.638,1.252,1.082v-5.394h1.835V864H1444.373z M1438.538,858.565c0,1.395,0.294,2.438,0.882,3.127  c0.588,0.691,1.281,1.036,2.082,1.036c0.806,0,1.491-0.33,2.056-0.989c0.563-0.66,0.846-1.666,0.846-3.02  c0-1.49-0.287-2.584-0.861-3.281s-1.282-1.047-2.122-1.047c-0.82,0-1.506,0.336-2.057,1.006  C1438.813,856.067,1438.538,857.123,1438.538,858.565z"/>
<path d="M1448.997,851.09v-2.123h1.846v2.123H1448.997z M1448.997,864v-10.89h1.846V864H1448.997z"/>
<path d="M1453.631,864v-10.89h1.661v1.65c0.424-0.771,0.815-1.281,1.174-1.527c0.359-0.246,0.754-0.369,1.185-0.369  c0.622,0,1.254,0.198,1.897,0.595l-0.637,1.712c-0.451-0.266-0.902-0.399-1.354-0.399c-0.403,0-0.766,0.121-1.086,0.364  c-0.322,0.242-0.551,0.579-0.688,1.01c-0.205,0.656-0.308,1.374-0.308,2.153V864H1453.631z"/>
<path d="M1468.099,860.493l1.908,0.236c-0.302,1.114-0.858,1.979-1.672,2.594s-1.853,0.923-3.117,0.923  c-1.593,0-2.855-0.49-3.789-1.472c-0.933-0.98-1.399-2.356-1.399-4.127c0-1.832,0.472-3.254,1.415-4.266s2.167-1.518,3.671-1.518  c1.456,0,2.646,0.496,3.568,1.486c0.923,0.992,1.384,2.387,1.384,4.184c0,0.11-0.003,0.274-0.01,0.492h-8.121  c0.068,1.197,0.406,2.113,1.016,2.748c0.607,0.637,1.366,0.954,2.275,0.954c0.678,0,1.255-0.178,1.733-0.533  S1467.819,861.272,1468.099,860.493z M1462.04,857.508h6.081c-0.082-0.915-0.315-1.603-0.697-2.061  c-0.589-0.711-1.351-1.066-2.287-1.066c-0.848,0-1.561,0.284-2.138,0.852C1462.42,855.8,1462.101,856.559,1462.04,857.508z"/>
<path d="M1479.43,860.01l1.815,0.236c-0.199,1.251-0.706,2.23-1.523,2.938c-0.816,0.708-1.82,1.062-3.01,1.062  c-1.49,0-2.688-0.487-3.594-1.461c-0.905-0.975-1.358-2.37-1.358-4.188c0-1.176,0.194-2.205,0.585-3.087  c0.389-0.882,0.982-1.543,1.778-1.984c0.797-0.44,1.663-0.661,2.6-0.661c1.183,0,2.149,0.299,2.901,0.897  c0.752,0.598,1.234,1.447,1.446,2.548l-1.794,0.277c-0.172-0.731-0.474-1.282-0.908-1.651c-0.434-0.369-0.959-0.554-1.574-0.554  c-0.93,0-1.685,0.333-2.266,1c-0.581,0.666-0.871,1.721-0.871,3.163c0,1.463,0.279,2.526,0.84,3.188  c0.561,0.664,1.293,0.995,2.195,0.995c0.724,0,1.329-0.222,1.814-0.667C1478.993,861.618,1479.3,860.934,1479.43,860.01z"/>
<path d="M1486.044,862.42c0.205,0,0.475-0.023,0.81-0.072l0.267,1.631c-0.52,0.109-0.984,0.164-1.395,0.164  c-0.67,0-1.189-0.106-1.559-0.318c-0.369-0.211-0.629-0.49-0.779-0.835c-0.15-0.346-0.226-1.071-0.226-2.179v-6.266h-1.354v-1.436  h1.354v-2.697l1.835-1.107v3.805h1.856v1.436h-1.856v6.367c0,0.527,0.033,0.865,0.098,1.016c0.065,0.15,0.171,0.271,0.318,0.359  C1485.56,862.376,1485.77,862.42,1486.044,862.42L1486.044,862.42z"/>
<path d="M988.982,839v-15.032h10.142v1.773h-8.151v4.656h7.055v1.773h-7.055V839H988.982z"/>
<path d="M1001.431,839v-15.032h1.846V839H1001.431z"/>
<path d="M1013.591,835.493l1.908,0.236c-0.302,1.114-0.858,1.979-1.672,2.594s-1.853,0.923-3.117,0.923  c-1.593,0-2.855-0.49-3.789-1.472c-0.933-0.98-1.399-2.356-1.399-4.127c0-1.832,0.472-3.254,1.415-4.266s2.167-1.518,3.671-1.518  c1.456,0,2.646,0.496,3.568,1.486c0.923,0.992,1.384,2.387,1.384,4.184c0,0.11-0.003,0.274-0.01,0.492h-8.121  c0.068,1.197,0.406,2.113,1.016,2.748c0.607,0.637,1.366,0.954,2.275,0.954c0.678,0,1.255-0.178,1.733-0.533  S1013.311,836.272,1013.591,835.493z M1007.532,832.508h6.081c-0.082-0.915-0.315-1.603-0.697-2.061  c-0.589-0.711-1.351-1.066-2.287-1.066c-0.848,0-1.561,0.284-2.138,0.852C1007.913,830.8,1007.593,831.559,1007.532,832.508z   M1011.787,826.756h-1.486l-2.369-2.871h2.472L1011.787,826.756z"/>
<path d="M1024.922,835.01l1.815,0.236c-0.199,1.251-0.706,2.23-1.523,2.938c-0.816,0.708-1.82,1.062-3.01,1.062  c-1.49,0-2.688-0.487-3.594-1.461c-0.905-0.975-1.358-2.37-1.358-4.188c0-1.176,0.194-2.205,0.585-3.087  c0.389-0.882,0.982-1.543,1.778-1.984c0.797-0.44,1.663-0.661,2.6-0.661c1.183,0,2.149,0.299,2.901,0.897  c0.752,0.598,1.234,1.447,1.446,2.548l-1.794,0.277c-0.172-0.731-0.474-1.282-0.908-1.651c-0.434-0.369-0.959-0.554-1.574-0.554  c-0.93,0-1.685,0.333-2.266,1c-0.581,0.666-0.871,1.721-0.871,3.163c0,1.463,0.279,2.526,0.84,3.188  c0.561,0.664,1.293,0.995,2.195,0.995c0.724,0,1.329-0.222,1.814-0.667C1024.485,836.618,1024.792,835.934,1024.922,835.01z"/>
<path d="M1028.316,839v-15.032h1.846v5.394c0.861-0.998,1.949-1.497,3.262-1.497c0.806,0,1.507,0.159,2.102,0.477  c0.595,0.318,1.021,0.758,1.276,1.318c0.257,0.561,0.385,1.373,0.385,2.439V839h-1.846v-6.901c0-0.922-0.2-1.594-0.6-2.015  c-0.4-0.42-0.966-0.63-1.697-0.63c-0.547,0-1.062,0.142-1.543,0.425c-0.482,0.284-0.825,0.669-1.03,1.153  c-0.205,0.486-0.309,1.156-0.309,2.01V839H1028.316z"/>
<path d="M1047.451,835.493l1.906,0.236c-0.301,1.114-0.857,1.979-1.671,2.594s-1.853,0.923-3.117,0.923  c-1.593,0-2.855-0.49-3.789-1.472c-0.933-0.98-1.399-2.356-1.399-4.127c0-1.832,0.472-3.254,1.415-4.266s2.167-1.518,3.671-1.518  c1.456,0,2.646,0.496,3.568,1.486c0.923,0.992,1.385,2.387,1.385,4.184c0,0.11-0.004,0.274-0.011,0.492h-8.121  c0.068,1.197,0.406,2.113,1.015,2.748c0.608,0.637,1.367,0.954,2.277,0.954c0.676,0,1.254-0.178,1.732-0.533  S1047.169,836.272,1047.451,835.493z M1041.39,832.508h6.08c-0.082-0.915-0.314-1.603-0.697-2.061  c-0.588-0.711-1.35-1.066-2.286-1.066c-0.848,0-1.561,0.284-2.138,0.852C1041.771,830.8,1041.452,831.559,1041.39,832.508z"/>
<path d="M954.868,864v-1.374c-0.69,1.08-1.706,1.62-3.046,1.62c-0.868,0-1.666-0.239-2.394-0.718  c-0.729-0.479-1.292-1.146-1.692-2.005c-0.399-0.857-0.6-1.844-0.6-2.958c0-1.087,0.181-2.073,0.543-2.958  c0.362-0.886,0.906-1.563,1.631-2.036c0.725-0.471,1.534-0.707,2.43-0.707c0.656,0,1.241,0.139,1.754,0.415  c0.513,0.277,0.93,0.638,1.251,1.082v-5.394h1.835V864H954.868z M949.033,858.565c0,1.395,0.294,2.438,0.883,3.127  c0.587,0.691,1.281,1.036,2.081,1.036c0.807,0,1.492-0.33,2.056-0.989c0.564-0.66,0.846-1.666,0.846-3.02  c0-1.49-0.287-2.584-0.861-3.281s-1.281-1.047-2.122-1.047c-0.82,0-1.506,0.336-2.056,1.006  C949.308,856.067,949.033,857.123,949.033,858.565z"/>
<path d="M966.937,860.493l1.906,0.236c-0.301,1.114-0.857,1.979-1.671,2.594s-1.853,0.923-3.117,0.923  c-1.593,0-2.855-0.49-3.789-1.472c-0.933-0.98-1.399-2.356-1.399-4.127c0-1.832,0.472-3.254,1.415-4.266s2.167-1.518,3.671-1.518  c1.456,0,2.646,0.496,3.568,1.486c0.923,0.992,1.385,2.387,1.385,4.184c0,0.11-0.004,0.274-0.011,0.492h-8.121  c0.068,1.197,0.406,2.113,1.015,2.748c0.608,0.637,1.367,0.954,2.277,0.954c0.676,0,1.254-0.178,1.732-0.533  S966.656,861.272,966.937,860.493z M960.876,857.508h6.08c-0.082-0.915-0.314-1.603-0.697-2.061  c-0.588-0.711-1.35-1.066-2.286-1.066c-0.848,0-1.561,0.284-2.138,0.852C961.257,855.8,960.938,856.559,960.876,857.508z"/>
<path d="M980.215,862.42c0.205,0,0.475-0.023,0.81-0.072l0.268,1.631c-0.521,0.109-0.984,0.164-1.395,0.164  c-0.671,0-1.189-0.106-1.559-0.318c-0.369-0.211-0.63-0.49-0.779-0.835c-0.151-0.346-0.227-1.071-0.227-2.179v-6.266h-1.354v-1.436  h1.354v-2.697l1.836-1.107v3.805h1.855v1.436h-1.855v6.367c0,0.527,0.032,0.865,0.098,1.016c0.064,0.15,0.171,0.271,0.317,0.359  C979.732,862.376,979.942,862.42,980.215,862.42L980.215,862.42z"/>
<path d="M982.143,858.555c0-2.017,0.561-3.511,1.682-4.481c0.937-0.807,2.078-1.21,3.425-1.21c1.497,0,2.721,0.49,3.671,1.472  c0.95,0.98,1.425,2.336,1.425,4.065c0,1.401-0.21,2.504-0.63,3.307c-0.421,0.804-1.032,1.428-1.836,1.871  c-0.803,0.444-1.68,0.667-2.63,0.667c-1.524,0-2.757-0.488-3.696-1.466C982.613,861.802,982.143,860.394,982.143,858.555z   M984.041,858.555c0,1.395,0.304,2.438,0.912,3.132c0.608,0.694,1.374,1.041,2.297,1.041c0.916,0,1.678-0.349,2.287-1.046  c0.607-0.697,0.912-1.76,0.912-3.189c0-1.346-0.306-2.366-0.918-3.061c-0.611-0.693-1.372-1.041-2.281-1.041  c-0.923,0-1.688,0.346-2.297,1.036S984.041,857.161,984.041,858.555z"/>
<path d="M1001.646,864v-1.6c-0.848,1.23-2,1.846-3.455,1.846c-0.644,0-1.243-0.123-1.8-0.369c-0.558-0.246-0.971-0.556-1.241-0.928  c-0.27-0.373-0.46-0.829-0.568-1.369c-0.076-0.362-0.113-0.937-0.113-1.723v-6.747h1.846v6.039c0,0.965,0.037,1.614,0.113,1.949  c0.115,0.485,0.361,0.866,0.738,1.143c0.375,0.277,0.84,0.416,1.395,0.416c0.553,0,1.072-0.143,1.559-0.426  c0.484-0.284,0.828-0.67,1.03-1.159c0.201-0.488,0.302-1.197,0.302-2.128v-5.834h1.846V864H1001.646z"/>
<path d="M1006.167,864v-10.89h1.662v1.65c0.423-0.771,0.814-1.281,1.174-1.527c0.358-0.246,0.754-0.369,1.184-0.369  c0.622,0,1.255,0.198,1.897,0.595l-0.636,1.712c-0.451-0.266-0.902-0.399-1.354-0.399c-0.403,0-0.766,0.121-1.087,0.364  c-0.321,0.242-0.551,0.579-0.687,1.01c-0.205,0.656-0.309,1.374-0.309,2.153V864H1006.167z"/>
<path d="M1013.181,864v-10.89h1.662v1.549c0.799-1.196,1.954-1.795,3.465-1.795c0.656,0,1.26,0.118,1.811,0.354  c0.55,0.236,0.962,0.546,1.235,0.928c0.273,0.384,0.465,0.838,0.574,1.364c0.068,0.342,0.103,0.94,0.103,1.794V864h-1.846v-6.624  c0-0.752-0.072-1.314-0.215-1.687c-0.145-0.373-0.398-0.67-0.765-0.893c-0.365-0.222-0.794-0.333-1.286-0.333  c-0.787,0-1.465,0.25-2.036,0.748c-0.57,0.5-0.856,1.446-0.856,2.841V864H1013.181z"/>
<path d="M1032.316,860.493l1.906,0.236c-0.301,1.114-0.857,1.979-1.671,2.594s-1.853,0.923-3.117,0.923  c-1.593,0-2.855-0.49-3.789-1.472c-0.933-0.98-1.399-2.356-1.399-4.127c0-1.832,0.472-3.254,1.415-4.266s2.167-1.518,3.671-1.518  c1.456,0,2.646,0.496,3.568,1.486c0.923,0.992,1.385,2.387,1.385,4.184c0,0.11-0.004,0.274-0.011,0.492h-8.121  c0.068,1.197,0.406,2.113,1.015,2.748c0.608,0.637,1.367,0.954,2.277,0.954c0.676,0,1.254-0.178,1.732-0.533  S1032.035,861.272,1032.316,860.493z M1026.255,857.508h6.08c-0.082-0.915-0.314-1.603-0.697-2.061  c-0.588-0.711-1.35-1.066-2.286-1.066c-0.848,0-1.561,0.284-2.138,0.852C1026.636,855.8,1026.317,856.559,1026.255,857.508z"/>
<path d="M1035.822,859.488v-1.856h5.671v1.856H1035.822z"/>
<path d="M1051.008,864c-0.191-0.383-0.314-0.831-0.369-1.343c-0.684,0.581-1.342,0.991-1.974,1.23  c-0.633,0.238-1.312,0.358-2.035,0.358c-1.197,0-2.116-0.292-2.759-0.877c-0.643-0.584-0.964-1.331-0.964-2.24  c0-0.533,0.121-1.021,0.364-1.461c0.242-0.441,0.561-0.795,0.953-1.062c0.394-0.267,0.836-0.468,1.328-0.605  c0.362-0.095,0.909-0.188,1.641-0.276c1.49-0.178,2.587-0.39,3.292-0.636c0.006-0.253,0.01-0.413,0.01-0.482  c0-0.751-0.174-1.281-0.523-1.589c-0.471-0.417-1.172-0.626-2.102-0.626c-0.868,0-1.509,0.152-1.923,0.457  c-0.413,0.304-0.72,0.843-0.917,1.615l-1.805-0.246c0.164-0.772,0.434-1.396,0.81-1.872c0.376-0.475,0.919-0.841,1.63-1.097  c0.711-0.257,1.535-0.385,2.472-0.385c0.93,0,1.685,0.109,2.267,0.328c0.58,0.219,1.008,0.494,1.281,0.825  c0.273,0.332,0.465,0.751,0.574,1.257c0.062,0.314,0.092,0.881,0.092,1.701v2.461c0,1.717,0.04,2.802,0.118,3.256  c0.079,0.455,0.234,0.891,0.467,1.308H1051.008L1051.008,864z M1050.486,858.534c-0.671,0.274-1.676,0.507-3.016,0.697  c-0.758,0.11-1.295,0.233-1.609,0.369c-0.314,0.138-0.558,0.337-0.729,0.601c-0.171,0.263-0.256,0.556-0.256,0.876  c0,0.492,0.187,0.902,0.559,1.23c0.373,0.328,0.918,0.492,1.636,0.492c0.711,0,1.343-0.155,1.897-0.466  c0.553-0.312,0.96-0.736,1.22-1.276c0.198-0.417,0.298-1.032,0.298-1.846V858.534z M1049.48,851.756h-1.486l-2.369-2.871h2.472  L1049.48,851.756z"/>
<path d="M1054.495,859.488v-1.856h5.671v1.856H1054.495z"/>
<path d="M1069.271,864v-1.374c-0.691,1.08-1.706,1.62-3.046,1.62c-0.868,0-1.666-0.239-2.395-0.718  c-0.728-0.479-1.292-1.146-1.691-2.005c-0.4-0.857-0.601-1.844-0.601-2.958c0-1.087,0.182-2.073,0.544-2.958  c0.362-0.886,0.905-1.563,1.63-2.036c0.725-0.471,1.535-0.707,2.431-0.707c0.656,0,1.241,0.139,1.753,0.415  c0.514,0.277,0.93,0.638,1.252,1.082v-5.394h1.835V864H1069.271z M1063.436,858.565c0,1.395,0.294,2.438,0.882,3.127  c0.588,0.691,1.281,1.036,2.082,1.036c0.806,0,1.491-0.33,2.056-0.989c0.563-0.66,0.846-1.666,0.846-3.02  c0-1.49-0.287-2.584-0.861-3.281s-1.282-1.047-2.122-1.047c-0.82,0-1.506,0.336-2.057,1.006  C1063.711,856.067,1063.436,857.123,1063.436,858.565z"/>
<path d="M1073.865,864v-10.89h1.66v1.65c0.424-0.771,0.815-1.281,1.175-1.527c0.358-0.246,0.753-0.369,1.185-0.369  c0.621,0,1.254,0.198,1.896,0.595l-0.636,1.712c-0.451-0.266-0.902-0.399-1.354-0.399c-0.403,0-0.766,0.121-1.087,0.364  c-0.321,0.242-0.551,0.579-0.688,1.01c-0.205,0.656-0.307,1.374-0.307,2.153V864H1073.865z"/>
<path d="M1080.191,858.555c0-2.017,0.561-3.511,1.682-4.481c0.937-0.807,2.078-1.21,3.425-1.21c1.497,0,2.721,0.49,3.671,1.472  c0.95,0.98,1.426,2.336,1.426,4.065c0,1.401-0.211,2.504-0.631,3.307c-0.421,0.804-1.032,1.428-1.836,1.871  c-0.803,0.444-1.68,0.667-2.63,0.667c-1.524,0-2.757-0.488-3.696-1.466C1080.661,861.802,1080.191,860.394,1080.191,858.555z   M1082.087,858.555c0,1.395,0.305,2.438,0.913,3.132c0.608,0.694,1.374,1.041,2.297,1.041c0.916,0,1.678-0.349,2.286-1.046  s0.913-1.76,0.913-3.189c0-1.346-0.306-2.366-0.918-3.061c-0.611-0.693-1.372-1.041-2.281-1.041c-0.923,0-1.688,0.346-2.297,1.036  S1082.087,857.161,1082.087,858.555z"/>
<path d="M1092.568,851.09v-2.123h1.846v2.123H1092.568z M1092.568,864v-10.89h1.846V864H1092.568z"/>
<path d="M1100.443,862.42c0.205,0,0.475-0.023,0.81-0.072l0.267,1.631c-0.52,0.109-0.984,0.164-1.395,0.164  c-0.67,0-1.189-0.106-1.559-0.318c-0.369-0.211-0.629-0.49-0.779-0.835c-0.15-0.346-0.226-1.071-0.226-2.179v-6.266h-1.354v-1.436  h1.354v-2.697l1.835-1.107v3.805h1.856v1.436h-1.856v6.367c0,0.527,0.033,0.865,0.098,1.016c0.065,0.15,0.171,0.271,0.318,0.359  C1099.958,862.376,1100.168,862.42,1100.443,862.42L1100.443,862.42z"/>
<path d="M1110.511,860.493l1.908,0.236c-0.302,1.114-0.858,1.979-1.672,2.594s-1.853,0.923-3.117,0.923  c-1.593,0-2.855-0.49-3.789-1.472c-0.933-0.98-1.399-2.356-1.399-4.127c0-1.832,0.472-3.254,1.415-4.266s2.167-1.518,3.671-1.518  c1.456,0,2.646,0.496,3.568,1.486c0.923,0.992,1.384,2.387,1.384,4.184c0,0.11-0.003,0.274-0.01,0.492h-8.121  c0.068,1.197,0.406,2.113,1.016,2.748c0.607,0.637,1.366,0.954,2.275,0.954c0.678,0,1.255-0.178,1.733-0.533  S1110.231,861.272,1110.511,860.493z M1104.452,857.508h6.081c-0.082-0.915-0.315-1.603-0.697-2.061  c-0.589-0.711-1.351-1.066-2.287-1.066c-0.848,0-1.561,0.284-2.138,0.852C1104.833,855.8,1104.513,856.559,1104.452,857.508z"/>
<path d="M142.557,839v-15.032h10.141v1.773h-8.152v4.656h7.055v1.773h-7.055V839H142.557z"/>
<path d="M155.005,839v-15.032h1.846V839H155.005z"/>
<path d="M167.166,835.493l1.907,0.236c-0.301,1.114-0.858,1.979-1.671,2.594s-1.853,0.923-3.117,0.923  c-1.593,0-2.855-0.49-3.789-1.472c-0.933-0.98-1.399-2.356-1.399-4.127c0-1.832,0.472-3.254,1.415-4.266s2.167-1.518,3.671-1.518  c1.456,0,2.646,0.496,3.568,1.486c0.923,0.992,1.384,2.387,1.384,4.184c0,0.11-0.003,0.274-0.01,0.492h-8.121  c0.068,1.197,0.407,2.113,1.015,2.748c0.608,0.637,1.367,0.954,2.276,0.954c0.677,0,1.254-0.178,1.733-0.533  S166.886,836.272,167.166,835.493z M161.106,832.508h6.081c-0.082-0.915-0.314-1.603-0.697-2.061  c-0.588-0.711-1.35-1.066-2.287-1.066c-0.848,0-1.561,0.284-2.138,0.852C161.487,830.8,161.167,831.559,161.106,832.508z   M165.361,826.756h-1.487l-2.369-2.871h2.471L165.361,826.756z"/>
<path d="M178.497,835.01l1.815,0.236c-0.198,1.251-0.706,2.23-1.523,2.938c-0.817,0.708-1.82,1.062-3.009,1.062  c-1.49,0-2.688-0.487-3.594-1.461c-0.906-0.975-1.358-2.37-1.358-4.188c0-1.176,0.195-2.205,0.584-3.087s0.982-1.543,1.779-1.984  c0.796-0.44,1.663-0.661,2.6-0.661c1.183,0,2.15,0.299,2.902,0.897c0.752,0.598,1.234,1.447,1.446,2.548l-1.794,0.277  c-0.171-0.731-0.474-1.282-0.908-1.651s-0.958-0.554-1.574-0.554c-0.93,0-1.685,0.333-2.266,1c-0.581,0.666-0.872,1.721-0.872,3.163  c0,1.463,0.28,2.526,0.841,3.188c0.561,0.664,1.292,0.995,2.194,0.995c0.725,0,1.33-0.222,1.815-0.667  C178.059,836.618,178.367,835.934,178.497,835.01z"/>
<path d="M181.891,839v-15.032h1.846v5.394c0.861-0.998,1.948-1.497,3.261-1.497c0.807,0,1.507,0.159,2.102,0.477  c0.595,0.318,1.021,0.758,1.276,1.318c0.257,0.561,0.385,1.373,0.385,2.439V839h-1.846v-6.901c0-0.922-0.2-1.594-0.6-2.015  c-0.4-0.42-0.966-0.63-1.697-0.63c-0.547,0-1.062,0.142-1.543,0.425c-0.482,0.284-0.826,0.669-1.031,1.153  c-0.205,0.486-0.308,1.156-0.308,2.01V839H181.891z"/>
<path d="M201.024,835.493l1.907,0.236c-0.301,1.114-0.858,1.979-1.671,2.594s-1.853,0.923-3.117,0.923  c-1.593,0-2.855-0.49-3.789-1.472c-0.933-0.98-1.399-2.356-1.399-4.127c0-1.832,0.472-3.254,1.415-4.266s2.167-1.518,3.671-1.518  c1.456,0,2.646,0.496,3.568,1.486c0.923,0.992,1.384,2.387,1.384,4.184c0,0.11-0.003,0.274-0.01,0.492h-8.121  c0.068,1.197,0.407,2.113,1.015,2.748c0.608,0.637,1.367,0.954,2.276,0.954c0.677,0,1.254-0.178,1.733-0.533  S200.744,836.272,201.024,835.493z M194.964,832.508h6.081c-0.082-0.915-0.314-1.603-0.697-2.061  c-0.588-0.711-1.35-1.066-2.287-1.066c-0.848,0-1.561,0.284-2.138,0.852C195.345,830.8,195.026,831.559,194.964,832.508z"/>
<path d="M212.786,839h-1.712v-15.032h1.846v5.363c0.779-0.978,1.774-1.467,2.984-1.467c0.67,0,1.304,0.135,1.902,0.405  c0.598,0.27,1.09,0.649,1.477,1.138c0.386,0.489,0.688,1.079,0.907,1.77s0.328,1.429,0.328,2.215c0,1.865-0.461,3.309-1.384,4.326  c-0.923,1.02-2.03,1.528-3.322,1.528c-1.285,0-2.293-0.536-3.025-1.61V839z M212.765,833.473c0,1.306,0.178,2.249,0.533,2.83  c0.581,0.95,1.367,1.425,2.358,1.425c0.807,0,1.504-0.351,2.092-1.051c0.588-0.701,0.882-1.745,0.882-3.133  c0-1.422-0.282-2.472-0.846-3.147c-0.564-0.678-1.246-1.016-2.046-1.016c-0.807,0-1.504,0.351-2.092,1.051  C213.059,831.133,212.765,832.147,212.765,833.473z"/>
<path d="M222.773,826.09v-2.123h1.846v2.123H222.773z M222.773,839v-10.89h1.846V839H222.773z"/>
<path d="M234.493,839v-1.374c-0.69,1.08-1.706,1.62-3.045,1.62c-0.868,0-1.666-0.239-2.395-0.718  c-0.728-0.479-1.292-1.146-1.691-2.005c-0.4-0.857-0.6-1.844-0.6-2.958c0-1.087,0.181-2.073,0.543-2.958  c0.362-0.886,0.906-1.563,1.63-2.036c0.725-0.471,1.535-0.707,2.43-0.707c0.656,0,1.241,0.139,1.753,0.415  c0.513,0.277,0.93,0.638,1.251,1.082v-5.394h1.835V839H234.493z M228.659,833.565c0,1.395,0.294,2.438,0.882,3.127  c0.588,0.691,1.282,1.036,2.082,1.036c0.807,0,1.492-0.33,2.056-0.989c0.563-0.66,0.846-1.666,0.846-3.02  c0-1.49-0.287-2.584-0.861-3.281s-1.282-1.047-2.123-1.047c-0.82,0-1.506,0.336-2.056,1.006S228.659,832.123,228.659,833.565z"/>
<path d="M239.118,826.09v-2.123h1.846v2.123H239.118z M239.118,839v-10.89h1.846V839H239.118z"/>
<path d="M243.752,839v-10.89h1.661v1.65c0.424-0.771,0.815-1.281,1.174-1.527c0.359-0.246,0.754-0.369,1.185-0.369  c0.622,0,1.254,0.198,1.897,0.595l-0.636,1.712c-0.451-0.266-0.902-0.399-1.354-0.399c-0.403,0-0.766,0.121-1.087,0.364  c-0.321,0.242-0.55,0.579-0.687,1.01c-0.205,0.656-0.308,1.374-0.308,2.153V839H243.752z"/>
<path d="M258.221,835.493l1.907,0.236c-0.301,1.114-0.858,1.979-1.671,2.594s-1.853,0.923-3.117,0.923  c-1.593,0-2.855-0.49-3.789-1.472c-0.933-0.98-1.399-2.356-1.399-4.127c0-1.832,0.472-3.254,1.415-4.266s2.167-1.518,3.671-1.518  c1.456,0,2.646,0.496,3.568,1.486c0.923,0.992,1.384,2.387,1.384,4.184c0,0.11-0.003,0.274-0.01,0.492h-8.121  c0.068,1.197,0.407,2.113,1.015,2.748c0.608,0.637,1.367,0.954,2.276,0.954c0.677,0,1.254-0.178,1.733-0.533  S257.94,836.272,258.221,835.493z M252.161,832.508h6.081c-0.082-0.915-0.314-1.603-0.697-2.061  c-0.588-0.711-1.35-1.066-2.287-1.066c-0.848,0-1.561,0.284-2.138,0.852C252.542,830.8,252.222,831.559,252.161,832.508z"/>
<path d="M269.551,835.01l1.815,0.236c-0.198,1.251-0.706,2.23-1.523,2.938c-0.817,0.708-1.82,1.062-3.009,1.062  c-1.49,0-2.688-0.487-3.594-1.461c-0.906-0.975-1.358-2.37-1.358-4.188c0-1.176,0.195-2.205,0.584-3.087s0.982-1.543,1.779-1.984  c0.796-0.44,1.663-0.661,2.6-0.661c1.183,0,2.15,0.299,2.902,0.897c0.752,0.598,1.234,1.447,1.446,2.548l-1.794,0.277  c-0.171-0.731-0.474-1.282-0.908-1.651s-0.958-0.554-1.574-0.554c-0.93,0-1.685,0.333-2.266,1c-0.581,0.666-0.872,1.721-0.872,3.163  c0,1.463,0.28,2.526,0.841,3.188c0.561,0.664,1.292,0.995,2.194,0.995c0.725,0,1.33-0.222,1.815-0.667  C269.114,836.618,269.421,835.934,269.551,835.01z"/>
<path d="M276.165,837.42c0.205,0,0.475-0.023,0.81-0.072l0.267,1.631c-0.52,0.109-0.984,0.164-1.395,0.164  c-0.67,0-1.189-0.106-1.559-0.318c-0.369-0.211-0.629-0.49-0.779-0.835c-0.15-0.346-0.226-1.071-0.226-2.179v-6.266h-1.354v-1.436  h1.354v-2.697l1.835-1.107v3.805h1.856v1.436h-1.856v6.367c0,0.527,0.032,0.865,0.097,1.016s0.171,0.271,0.318,0.359  C275.681,837.376,275.892,837.42,276.165,837.42L276.165,837.42z"/>
<path d="M278.79,826.09v-2.123h1.846v2.123H278.79z M278.79,839v-10.89h1.846V839H278.79z"/>
<path d="M282.758,833.555c0-2.017,0.561-3.511,1.682-4.481c0.937-0.807,2.078-1.21,3.425-1.21c1.497,0,2.721,0.49,3.671,1.472  c0.95,0.98,1.425,2.336,1.425,4.065c0,1.401-0.21,2.504-0.63,3.307c-0.421,0.804-1.033,1.428-1.836,1.871  c-0.803,0.444-1.68,0.667-2.63,0.667c-1.524,0-2.757-0.488-3.696-1.466C283.228,836.802,282.758,835.394,282.758,833.555z   M284.655,833.555c0,1.395,0.304,2.438,0.913,3.132c0.608,0.694,1.374,1.041,2.297,1.041c0.916,0,1.678-0.349,2.287-1.046  s0.913-1.76,0.913-3.189c0-1.346-0.306-2.366-0.918-3.061c-0.612-0.693-1.372-1.041-2.281-1.041c-0.923,0-1.688,0.346-2.297,1.036  S284.655,832.161,284.655,833.555z"/>
<path d="M295.125,839v-10.89h1.661v1.549c0.8-1.196,1.955-1.795,3.466-1.795c0.656,0,1.259,0.118,1.81,0.354  c0.55,0.236,0.962,0.546,1.236,0.928c0.273,0.384,0.465,0.838,0.574,1.364c0.068,0.342,0.103,0.94,0.103,1.794V839h-1.846v-6.624  c0-0.752-0.072-1.314-0.215-1.687c-0.144-0.373-0.398-0.67-0.764-0.893c-0.366-0.222-0.795-0.333-1.287-0.333  c-0.786,0-1.465,0.25-2.035,0.748c-0.571,0.5-0.856,1.446-0.856,2.841V839H295.125z"/>
<path d="M306.804,839v-10.89h1.661v1.549c0.8-1.196,1.955-1.795,3.466-1.795c0.656,0,1.259,0.118,1.81,0.354  c0.55,0.236,0.962,0.546,1.235,0.928c0.273,0.384,0.465,0.838,0.574,1.364c0.068,0.342,0.103,0.94,0.103,1.794V839h-1.846v-6.624  c0-0.752-0.072-1.314-0.215-1.687c-0.144-0.373-0.398-0.67-0.764-0.893c-0.366-0.222-0.794-0.333-1.287-0.333  c-0.786,0-1.465,0.25-2.036,0.748c-0.571,0.5-0.856,1.446-0.856,2.841V839H306.804z"/>
<path d="M325.938,835.493l1.907,0.236c-0.301,1.114-0.858,1.979-1.671,2.594s-1.853,0.923-3.117,0.923  c-1.593,0-2.855-0.49-3.789-1.472c-0.933-0.98-1.399-2.356-1.399-4.127c0-1.832,0.472-3.254,1.415-4.266s2.167-1.518,3.671-1.518  c1.456,0,2.646,0.496,3.568,1.486c0.923,0.992,1.384,2.387,1.384,4.184c0,0.11-0.003,0.274-0.01,0.492h-8.121  c0.068,1.197,0.407,2.113,1.015,2.748c0.608,0.637,1.367,0.954,2.276,0.954c0.677,0,1.254-0.178,1.733-0.533  S325.657,836.272,325.938,835.493z M319.877,832.508h6.081c-0.082-0.915-0.314-1.603-0.697-2.061  c-0.588-0.711-1.35-1.066-2.287-1.066c-0.848,0-1.561,0.284-2.138,0.852C320.258,830.8,319.939,831.559,319.877,832.508z"/>
<path d="M330.121,839v-15.032h1.846V839H330.121z"/>
<path d="M334.787,839v-15.032h1.846V839H334.787z"/>
<path d="M346.948,835.493l1.907,0.236c-0.301,1.114-0.858,1.979-1.671,2.594s-1.853,0.923-3.117,0.923  c-1.593,0-2.856-0.49-3.789-1.472c-0.934-0.98-1.4-2.356-1.4-4.127c0-1.832,0.472-3.254,1.415-4.266s2.167-1.518,3.671-1.518  c1.456,0,2.646,0.496,3.568,1.486c0.923,0.992,1.384,2.387,1.384,4.184c0,0.11-0.003,0.274-0.01,0.492h-8.121  c0.068,1.197,0.407,2.113,1.015,2.748c0.608,0.637,1.367,0.954,2.276,0.954c0.677,0,1.254-0.178,1.733-0.533  S346.667,836.272,346.948,835.493z M340.888,832.508h6.081c-0.082-0.915-0.314-1.603-0.697-2.061  c-0.588-0.711-1.35-1.066-2.287-1.066c-0.848,0-1.561,0.284-2.138,0.852S340.949,831.559,340.888,832.508z"/>
<path d="M139.604,862.42c0.205,0,0.475-0.023,0.81-0.072l0.267,1.631c-0.52,0.109-0.984,0.164-1.395,0.164  c-0.67,0-1.189-0.106-1.559-0.318c-0.369-0.211-0.629-0.49-0.779-0.835c-0.15-0.346-0.226-1.071-0.226-2.179v-6.266h-1.354v-1.436  h1.354v-2.697l1.835-1.107v3.805h1.856v1.436h-1.856v6.367c0,0.527,0.032,0.865,0.097,1.016s0.171,0.271,0.318,0.359  C139.12,862.376,139.33,862.42,139.604,862.42L139.604,862.42z"/>
<path d="M141.531,858.555c0-2.017,0.561-3.511,1.682-4.481c0.937-0.807,2.078-1.21,3.425-1.21c1.497,0,2.721,0.49,3.671,1.472  c0.95,0.98,1.425,2.336,1.425,4.065c0,1.401-0.21,2.504-0.631,3.307c-0.42,0.804-1.032,1.428-1.835,1.871  c-0.804,0.444-1.68,0.667-2.63,0.667c-1.524,0-2.757-0.488-3.697-1.466S141.531,860.394,141.531,858.555z M143.428,858.555  c0,1.395,0.304,2.438,0.913,3.132c0.608,0.694,1.374,1.041,2.297,1.041c0.916,0,1.678-0.349,2.287-1.046s0.913-1.76,0.913-3.189  c0-1.346-0.306-2.366-0.917-3.061c-0.612-0.693-1.373-1.041-2.282-1.041c-0.923,0-1.688,0.346-2.297,1.036  S143.428,857.161,143.428,858.555z"/>
<path d="M161.034,864v-1.6c-0.848,1.23-2,1.846-3.456,1.846c-0.643,0-1.243-0.123-1.8-0.369s-0.971-0.556-1.24-0.928  c-0.271-0.373-0.46-0.829-0.569-1.369c-0.075-0.362-0.113-0.937-0.113-1.723v-6.747h1.846v6.039c0,0.965,0.038,1.614,0.113,1.949  c0.116,0.485,0.362,0.866,0.738,1.143c0.376,0.277,0.841,0.416,1.395,0.416s1.073-0.143,1.559-0.426  c0.485-0.284,0.829-0.67,1.03-1.159c0.202-0.488,0.303-1.197,0.303-2.128v-5.834h1.846V864H161.034z"/>
<path d="M165.556,864v-10.89h1.661v1.65c0.424-0.771,0.815-1.281,1.174-1.527c0.359-0.246,0.754-0.369,1.185-0.369  c0.622,0,1.254,0.198,1.897,0.595l-0.636,1.712c-0.451-0.266-0.902-0.399-1.354-0.399c-0.403,0-0.766,0.121-1.087,0.364  c-0.321,0.242-0.55,0.579-0.687,1.01c-0.205,0.656-0.308,1.374-0.308,2.153V864H165.556z"/>
<path d="M172.57,864v-10.89h1.661v1.549c0.8-1.196,1.955-1.795,3.466-1.795c0.656,0,1.259,0.118,1.81,0.354  c0.55,0.236,0.962,0.546,1.236,0.928c0.273,0.384,0.465,0.838,0.574,1.364c0.068,0.342,0.103,0.94,0.103,1.794V864h-1.846v-6.624  c0-0.752-0.072-1.314-0.215-1.687c-0.144-0.373-0.398-0.67-0.764-0.893c-0.366-0.222-0.795-0.333-1.287-0.333  c-0.786,0-1.465,0.25-2.035,0.748c-0.571,0.5-0.856,1.446-0.856,2.841V864H172.57z"/>
<path d="M191.704,860.493l1.907,0.236c-0.301,1.114-0.858,1.979-1.671,2.594s-1.853,0.923-3.117,0.923  c-1.593,0-2.856-0.49-3.789-1.472c-0.934-0.98-1.4-2.356-1.4-4.127c0-1.832,0.472-3.254,1.415-4.266s2.167-1.518,3.671-1.518  c1.456,0,2.646,0.496,3.568,1.486c0.923,0.992,1.384,2.387,1.384,4.184c0,0.11-0.003,0.274-0.01,0.492h-8.121  c0.068,1.197,0.407,2.113,1.015,2.748c0.608,0.637,1.367,0.954,2.276,0.954c0.677,0,1.254-0.178,1.733-0.533  S191.423,861.272,191.704,860.493z M185.644,857.508h6.081c-0.082-0.915-0.314-1.603-0.697-2.061  c-0.588-0.711-1.35-1.066-2.287-1.066c-0.848,0-1.561,0.284-2.138,0.852S185.705,856.559,185.644,857.508z"/>
<path d="M195.21,859.488v-1.856h5.67v1.856H195.21z"/>
<path d="M210.396,864c-0.191-0.383-0.314-0.831-0.369-1.343c-0.684,0.581-1.342,0.991-1.974,1.23  c-0.632,0.238-1.311,0.358-2.035,0.358c-1.196,0-2.116-0.292-2.758-0.877c-0.643-0.584-0.964-1.331-0.964-2.24  c0-0.533,0.121-1.021,0.364-1.461c0.243-0.441,0.561-0.795,0.954-1.062c0.393-0.267,0.835-0.468,1.328-0.605  c0.362-0.095,0.909-0.188,1.641-0.276c1.49-0.178,2.587-0.39,3.292-0.636c0.007-0.253,0.01-0.413,0.01-0.482  c0-0.751-0.174-1.281-0.523-1.589c-0.472-0.417-1.172-0.626-2.102-0.626c-0.868,0-1.509,0.152-1.922,0.457  c-0.414,0.304-0.72,0.843-0.918,1.615l-1.805-0.246c0.164-0.772,0.434-1.396,0.81-1.872c0.376-0.475,0.919-0.841,1.63-1.097  c0.711-0.257,1.535-0.385,2.471-0.385c0.93,0,1.685,0.109,2.266,0.328s1.008,0.494,1.282,0.825c0.273,0.332,0.465,0.751,0.574,1.257  c0.062,0.314,0.092,0.881,0.092,1.701v2.461c0,1.717,0.039,2.802,0.118,3.256c0.078,0.455,0.234,0.891,0.466,1.308H210.396  L210.396,864z M209.874,858.534c-0.67,0.274-1.675,0.507-3.015,0.697c-0.759,0.11-1.295,0.233-1.61,0.369  c-0.314,0.138-0.557,0.337-0.728,0.601c-0.171,0.263-0.256,0.556-0.256,0.876c0,0.492,0.186,0.902,0.559,1.23  c0.372,0.328,0.917,0.492,1.635,0.492c0.711,0,1.343-0.155,1.897-0.466c0.554-0.312,0.96-0.736,1.22-1.276  c0.198-0.417,0.297-1.032,0.297-1.846V858.534z M208.869,851.756h-1.487l-2.369-2.871h2.471L208.869,851.756z"/>
<path d="M213.883,859.488v-1.856h5.67v1.856H213.883z"/>
<path d="M221.255,864.902l1.794,0.267c0.075,0.554,0.284,0.957,0.625,1.21c0.458,0.342,1.083,0.513,1.876,0.513  c0.854,0,1.514-0.171,1.979-0.513s0.779-0.82,0.943-1.436c0.096-0.376,0.14-1.165,0.133-2.368c-0.807,0.95-1.812,1.425-3.015,1.425  c-1.497,0-2.656-0.54-3.476-1.62s-1.23-2.375-1.23-3.887c0-1.038,0.188-1.997,0.564-2.876c0.376-0.878,0.921-1.557,1.635-2.035  s1.554-0.718,2.518-0.718c1.285,0,2.345,0.52,3.179,1.559v-1.313h1.702v9.413c0,1.695-0.173,2.896-0.518,3.604  c-0.346,0.707-0.893,1.266-1.641,1.676c-0.749,0.41-1.67,0.615-2.764,0.615c-1.299,0-2.348-0.292-3.148-0.876  C221.614,866.958,221.228,866.078,221.255,864.902z M222.783,858.36c0,1.429,0.284,2.471,0.851,3.127s1.278,0.984,2.133,0.984  c0.848,0,1.559-0.326,2.133-0.979c0.574-0.653,0.861-1.677,0.861-3.071c0-1.333-0.296-2.338-0.887-3.015  c-0.592-0.677-1.304-1.016-2.138-1.016c-0.82,0-1.518,0.334-2.092,1C223.07,856.058,222.783,857.047,222.783,858.36z"/>
<path d="M240.748,864c-0.191-0.383-0.314-0.831-0.369-1.343c-0.684,0.581-1.342,0.991-1.974,1.23  c-0.632,0.238-1.311,0.358-2.035,0.358c-1.196,0-2.116-0.292-2.758-0.877c-0.643-0.584-0.964-1.331-0.964-2.24  c0-0.533,0.121-1.021,0.364-1.461c0.243-0.441,0.561-0.795,0.954-1.062c0.393-0.267,0.835-0.468,1.328-0.605  c0.362-0.095,0.909-0.188,1.641-0.276c1.49-0.178,2.587-0.39,3.292-0.636c0.007-0.253,0.01-0.413,0.01-0.482  c0-0.751-0.174-1.281-0.523-1.589c-0.472-0.417-1.172-0.626-2.102-0.626c-0.868,0-1.509,0.152-1.922,0.457  c-0.414,0.304-0.72,0.843-0.918,1.615l-1.805-0.246c0.164-0.772,0.434-1.396,0.81-1.872c0.376-0.475,0.919-0.841,1.63-1.097  c0.711-0.257,1.535-0.385,2.471-0.385c0.93,0,1.685,0.109,2.266,0.328s1.008,0.494,1.282,0.825c0.273,0.332,0.465,0.751,0.574,1.257  c0.062,0.314,0.092,0.881,0.092,1.701v2.461c0,1.717,0.039,2.802,0.118,3.256c0.078,0.455,0.234,0.891,0.466,1.308H240.748  L240.748,864z M240.225,858.534c-0.67,0.274-1.675,0.507-3.015,0.697c-0.759,0.11-1.295,0.233-1.61,0.369  c-0.314,0.138-0.557,0.337-0.728,0.601c-0.171,0.263-0.256,0.556-0.256,0.876c0,0.492,0.186,0.902,0.559,1.23  c0.372,0.328,0.917,0.492,1.635,0.492c0.711,0,1.343-0.155,1.897-0.466c0.554-0.312,0.96-0.736,1.22-1.276  c0.198-0.417,0.297-1.032,0.297-1.846V858.534z"/>
<path d="M252.089,864v-1.6c-0.848,1.23-2,1.846-3.456,1.846c-0.643,0-1.243-0.123-1.8-0.369s-0.971-0.556-1.24-0.928  c-0.271-0.373-0.46-0.829-0.569-1.369c-0.075-0.362-0.113-0.937-0.113-1.723v-6.747h1.846v6.039c0,0.965,0.038,1.614,0.113,1.949  c0.116,0.485,0.362,0.866,0.738,1.143c0.376,0.277,0.841,0.416,1.395,0.416s1.073-0.143,1.559-0.426  c0.485-0.284,0.829-0.67,1.03-1.159c0.202-0.488,0.303-1.197,0.303-2.128v-5.834h1.846V864H252.089z"/>
<path d="M263.737,860.01l1.815,0.236c-0.198,1.251-0.706,2.23-1.522,2.938c-0.817,0.708-1.82,1.062-3.01,1.062  c-1.49,0-2.688-0.487-3.594-1.461c-0.906-0.975-1.359-2.37-1.359-4.188c0-1.176,0.195-2.205,0.584-3.087s0.982-1.543,1.779-1.984  c0.796-0.44,1.663-0.661,2.599-0.661c1.183,0,2.15,0.299,2.902,0.897c0.752,0.598,1.234,1.447,1.446,2.548l-1.794,0.277  c-0.171-0.731-0.474-1.282-0.907-1.651c-0.435-0.369-0.959-0.554-1.574-0.554c-0.93,0-1.685,0.333-2.266,1  c-0.581,0.666-0.872,1.721-0.872,3.163c0,1.463,0.28,2.526,0.841,3.188c0.561,0.664,1.292,0.995,2.194,0.995  c0.725,0,1.33-0.222,1.815-0.667C263.3,861.618,263.607,860.934,263.737,860.01z"/>
<path d="M267.131,864v-15.032h1.846v5.394c0.861-0.998,1.948-1.497,3.261-1.497c0.807,0,1.507,0.159,2.102,0.477  c0.595,0.318,1.02,0.758,1.277,1.318c0.256,0.561,0.384,1.373,0.384,2.439V864h-1.846v-6.901c0-0.922-0.2-1.594-0.6-2.015  c-0.399-0.42-0.965-0.63-1.697-0.63c-0.547,0-1.061,0.142-1.543,0.425c-0.481,0.284-0.825,0.669-1.03,1.153  c-0.205,0.486-0.308,1.156-0.308,2.01V864H267.131z"/>
<path d="M286.265,860.493l1.907,0.236c-0.301,1.114-0.858,1.979-1.671,2.594s-1.853,0.923-3.117,0.923  c-1.593,0-2.856-0.49-3.789-1.472c-0.934-0.98-1.4-2.356-1.4-4.127c0-1.832,0.472-3.254,1.415-4.266s2.167-1.518,3.671-1.518  c1.456,0,2.646,0.496,3.568,1.486c0.923,0.992,1.384,2.387,1.384,4.184c0,0.11-0.003,0.274-0.01,0.492h-8.121  c0.068,1.197,0.407,2.113,1.015,2.748c0.608,0.637,1.367,0.954,2.276,0.954c0.677,0,1.254-0.178,1.733-0.533  S285.985,861.272,286.265,860.493z M280.205,857.508h6.081c-0.082-0.915-0.314-1.603-0.697-2.061  c-0.588-0.711-1.35-1.066-2.287-1.066c-0.848,0-1.561,0.284-2.138,0.852S280.267,856.559,280.205,857.508z"/>
<path d="M303.779,860.493l1.907,0.236c-0.301,1.114-0.858,1.979-1.671,2.594s-1.853,0.923-3.117,0.923  c-1.593,0-2.856-0.49-3.789-1.472c-0.934-0.98-1.4-2.356-1.4-4.127c0-1.832,0.472-3.254,1.415-4.266s2.167-1.518,3.671-1.518  c1.456,0,2.646,0.496,3.568,1.486c0.923,0.992,1.384,2.387,1.384,4.184c0,0.11-0.003,0.274-0.01,0.492h-8.121  c0.068,1.197,0.407,2.113,1.015,2.748c0.608,0.637,1.367,0.954,2.276,0.954c0.677,0,1.254-0.178,1.733-0.533  S303.499,861.272,303.779,860.493z M297.719,857.508h6.081c-0.082-0.915-0.314-1.603-0.697-2.061  c-0.588-0.711-1.35-1.066-2.287-1.066c-0.848,0-1.561,0.284-2.138,0.852S297.78,856.559,297.719,857.508z"/>
<path d="M311.223,862.42c0.205,0,0.475-0.023,0.81-0.072l0.267,1.631c-0.52,0.109-0.984,0.164-1.395,0.164  c-0.67,0-1.189-0.106-1.559-0.318c-0.369-0.211-0.629-0.49-0.779-0.835c-0.15-0.346-0.226-1.071-0.226-2.179v-6.266h-1.354v-1.436  h1.354v-2.697l1.835-1.107v3.805h1.856v1.436h-1.856v6.367c0,0.527,0.032,0.865,0.098,1.016c0.064,0.15,0.17,0.271,0.317,0.359  S310.95,862.42,311.223,862.42L311.223,862.42z"/>
<path d="M326.737,864v-1.374c-0.69,1.08-1.706,1.62-3.045,1.62c-0.868,0-1.666-0.239-2.395-0.718  c-0.728-0.479-1.292-1.146-1.691-2.005c-0.4-0.857-0.6-1.844-0.6-2.958c0-1.087,0.181-2.073,0.543-2.958  c0.362-0.886,0.906-1.563,1.63-2.036c0.725-0.471,1.535-0.707,2.43-0.707c0.656,0,1.241,0.139,1.753,0.415  c0.513,0.277,0.93,0.638,1.251,1.082v-5.394h1.835V864H326.737z M320.903,858.565c0,1.395,0.294,2.438,0.882,3.127  c0.588,0.691,1.282,1.036,2.082,1.036c0.807,0,1.492-0.33,2.056-0.989c0.563-0.66,0.846-1.666,0.846-3.02  c0-1.49-0.287-2.584-0.861-3.281s-1.282-1.047-2.123-1.047c-0.82,0-1.506,0.336-2.056,1.006S320.903,857.123,320.903,858.565z"/>
<path d="M331.362,851.09v-2.123h1.846v2.123H331.362z M331.362,864v-10.89h1.846V864H331.362z"/>
<path d="M335.997,864v-10.89h1.661v1.65c0.424-0.771,0.815-1.281,1.174-1.527c0.359-0.246,0.754-0.369,1.185-0.369  c0.622,0,1.254,0.198,1.897,0.595l-0.636,1.712c-0.451-0.266-0.902-0.399-1.354-0.399c-0.403,0-0.766,0.121-1.087,0.364  c-0.321,0.242-0.55,0.579-0.687,1.01c-0.205,0.656-0.308,1.374-0.308,2.153V864H335.997z"/>
<path d="M350.465,860.493l1.907,0.236c-0.301,1.114-0.858,1.979-1.671,2.594s-1.853,0.923-3.117,0.923  c-1.593,0-2.855-0.49-3.789-1.472c-0.933-0.98-1.399-2.356-1.399-4.127c0-1.832,0.472-3.254,1.415-4.266s2.167-1.518,3.671-1.518  c1.456,0,2.646,0.496,3.568,1.486c0.923,0.992,1.384,2.387,1.384,4.184c0,0.11-0.003,0.274-0.01,0.492h-8.121  c0.068,1.197,0.407,2.113,1.015,2.748c0.608,0.637,1.367,0.954,2.276,0.954c0.677,0,1.254-0.178,1.733-0.533  S350.185,861.272,350.465,860.493z M344.405,857.508h6.081c-0.082-0.915-0.314-1.603-0.697-2.061  c-0.588-0.711-1.35-1.066-2.287-1.066c-0.848,0-1.561,0.284-2.138,0.852C344.786,855.8,344.466,856.559,344.405,857.508z"/>
<path d="M361.795,860.01l1.815,0.236c-0.198,1.251-0.706,2.23-1.523,2.938c-0.817,0.708-1.82,1.062-3.009,1.062  c-1.49,0-2.688-0.487-3.594-1.461c-0.906-0.975-1.358-2.37-1.358-4.188c0-1.176,0.195-2.205,0.584-3.087s0.982-1.543,1.779-1.984  c0.796-0.44,1.663-0.661,2.6-0.661c1.183,0,2.15,0.299,2.902,0.897c0.752,0.598,1.234,1.447,1.446,2.548l-1.794,0.277  c-0.171-0.731-0.474-1.282-0.908-1.651s-0.958-0.554-1.574-0.554c-0.93,0-1.685,0.333-2.266,1c-0.581,0.666-0.872,1.721-0.872,3.163  c0,1.463,0.28,2.526,0.841,3.188c0.561,0.664,1.292,0.995,2.194,0.995c0.725,0,1.33-0.222,1.815-0.667  C361.358,861.618,361.666,860.934,361.795,860.01z"/>
<path d="M368.409,862.42c0.205,0,0.475-0.023,0.81-0.072l0.267,1.631c-0.52,0.109-0.984,0.164-1.395,0.164  c-0.67,0-1.189-0.106-1.559-0.318c-0.369-0.211-0.629-0.49-0.779-0.835c-0.15-0.346-0.226-1.071-0.226-2.179v-6.266h-1.354v-1.436  h1.354v-2.697l1.835-1.107v3.805h1.856v1.436h-1.856v6.367c0,0.527,0.032,0.865,0.097,1.016s0.171,0.271,0.318,0.359  C367.925,862.376,368.136,862.42,368.409,862.42L368.409,862.42z"/>
<path d="M534.398,839v-15.032h10.141v1.773h-8.152v4.656h7.055v1.773h-7.055V839H534.398z"/>
<path d="M546.846,839v-15.032h1.846V839H546.846z"/>
<path d="M559.007,835.493l1.907,0.236c-0.301,1.114-0.858,1.979-1.671,2.594s-1.853,0.923-3.117,0.923  c-1.593,0-2.856-0.49-3.789-1.472c-0.934-0.98-1.4-2.356-1.4-4.127c0-1.832,0.472-3.254,1.415-4.266s2.167-1.518,3.671-1.518  c1.456,0,2.646,0.496,3.568,1.486c0.923,0.992,1.384,2.387,1.384,4.184c0,0.11-0.003,0.274-0.01,0.492h-8.121  c0.068,1.197,0.407,2.113,1.015,2.748c0.608,0.637,1.367,0.954,2.276,0.954c0.677,0,1.254-0.178,1.733-0.533  S558.727,836.272,559.007,835.493z M552.947,832.508h6.081c-0.082-0.915-0.314-1.603-0.697-2.061  c-0.588-0.711-1.35-1.066-2.287-1.066c-0.848,0-1.561,0.284-2.138,0.852S553.009,831.559,552.947,832.508z M557.203,826.756h-1.487  l-2.369-2.871h2.471L557.203,826.756z"/>
<path d="M570.338,835.01l1.815,0.236c-0.198,1.251-0.706,2.23-1.522,2.938c-0.817,0.708-1.82,1.062-3.01,1.062  c-1.49,0-2.688-0.487-3.594-1.461c-0.906-0.975-1.359-2.37-1.359-4.188c0-1.176,0.195-2.205,0.584-3.087s0.982-1.543,1.779-1.984  c0.796-0.44,1.663-0.661,2.599-0.661c1.183,0,2.15,0.299,2.902,0.897c0.752,0.598,1.234,1.447,1.446,2.548l-1.794,0.277  c-0.171-0.731-0.474-1.282-0.907-1.651c-0.435-0.369-0.959-0.554-1.574-0.554c-0.93,0-1.685,0.333-2.266,1  c-0.581,0.666-0.872,1.721-0.872,3.163c0,1.463,0.28,2.526,0.841,3.188c0.561,0.664,1.292,0.995,2.194,0.995  c0.725,0,1.33-0.222,1.815-0.667C569.9,836.618,570.208,835.934,570.338,835.01z"/>
<path d="M573.732,839v-15.032h1.846v5.394c0.861-0.998,1.948-1.497,3.261-1.497c0.807,0,1.507,0.159,2.102,0.477  c0.595,0.318,1.02,0.758,1.277,1.318c0.256,0.561,0.384,1.373,0.384,2.439V839h-1.846v-6.901c0-0.922-0.2-1.594-0.6-2.015  c-0.399-0.42-0.965-0.63-1.697-0.63c-0.547,0-1.061,0.142-1.543,0.425c-0.481,0.284-0.825,0.669-1.03,1.153  c-0.205,0.486-0.308,1.156-0.308,2.01V839H573.732z"/>
<path d="M592.866,835.493l1.907,0.236c-0.301,1.114-0.858,1.979-1.671,2.594s-1.853,0.923-3.117,0.923  c-1.593,0-2.856-0.49-3.789-1.472c-0.934-0.98-1.4-2.356-1.4-4.127c0-1.832,0.472-3.254,1.415-4.266s2.167-1.518,3.671-1.518  c1.456,0,2.646,0.496,3.568,1.486c0.923,0.992,1.384,2.387,1.384,4.184c0,0.11-0.003,0.274-0.01,0.492h-8.121  c0.068,1.197,0.407,2.113,1.015,2.748c0.608,0.637,1.367,0.954,2.276,0.954c0.677,0,1.254-0.178,1.733-0.533  S592.585,836.272,592.866,835.493z M586.806,832.508h6.081c-0.082-0.915-0.314-1.603-0.697-2.061  c-0.588-0.711-1.35-1.066-2.287-1.066c-0.848,0-1.561,0.284-2.138,0.852S586.867,831.559,586.806,832.508z"/>
<path d="M494.449,864v-1.374c-0.69,1.08-1.706,1.62-3.045,1.62c-0.868,0-1.667-0.239-2.394-0.718  c-0.729-0.479-1.292-1.146-1.692-2.005c-0.399-0.857-0.6-1.844-0.6-2.958c0-1.087,0.181-2.073,0.543-2.958  c0.362-0.886,0.906-1.563,1.63-2.036c0.725-0.471,1.535-0.707,2.43-0.707c0.656,0,1.241,0.139,1.753,0.415  c0.513,0.277,0.93,0.638,1.251,1.082v-5.394h1.835V864H494.449z M488.614,858.565c0,1.395,0.294,2.438,0.882,3.127  c0.588,0.691,1.282,1.036,2.082,1.036c0.807,0,1.492-0.33,2.056-0.989c0.564-0.66,0.846-1.666,0.846-3.02  c0-1.49-0.287-2.584-0.861-3.281s-1.282-1.047-2.123-1.047c-0.82,0-1.506,0.336-2.056,1.006  C488.889,856.067,488.614,857.123,488.614,858.565z"/>
<path d="M506.518,860.493l1.907,0.236c-0.301,1.114-0.858,1.979-1.671,2.594s-1.853,0.923-3.117,0.923  c-1.593,0-2.855-0.49-3.789-1.472c-0.933-0.98-1.399-2.356-1.399-4.127c0-1.832,0.472-3.254,1.415-4.266s2.167-1.518,3.671-1.518  c1.456,0,2.646,0.496,3.568,1.486c0.923,0.992,1.384,2.387,1.384,4.184c0,0.11-0.003,0.274-0.01,0.492h-8.121  c0.068,1.197,0.407,2.113,1.015,2.748c0.608,0.637,1.367,0.954,2.276,0.954c0.677,0,1.254-0.178,1.733-0.533  S506.237,861.272,506.518,860.493z M500.458,857.508h6.081c-0.082-0.915-0.314-1.603-0.697-2.061  c-0.588-0.711-1.35-1.066-2.287-1.066c-0.848,0-1.561,0.284-2.138,0.852C500.838,855.8,500.519,856.559,500.458,857.508z"/>
<path d="M519.796,862.42c0.205,0,0.475-0.023,0.81-0.072l0.267,1.631c-0.52,0.109-0.984,0.164-1.395,0.164  c-0.67,0-1.189-0.106-1.559-0.318c-0.369-0.211-0.629-0.49-0.779-0.835c-0.15-0.346-0.226-1.071-0.226-2.179v-6.266h-1.354v-1.436  h1.354v-2.697l1.835-1.107v3.805h1.856v1.436h-1.856v6.367c0,0.527,0.032,0.865,0.098,1.016c0.064,0.15,0.17,0.271,0.317,0.359  S519.523,862.42,519.796,862.42L519.796,862.42z"/>
<path d="M521.724,858.555c0-2.017,0.561-3.511,1.682-4.481c0.937-0.807,2.078-1.21,3.425-1.21c1.497,0,2.721,0.49,3.671,1.472  c0.95,0.98,1.425,2.336,1.425,4.065c0,1.401-0.21,2.504-0.63,3.307c-0.421,0.804-1.033,1.428-1.836,1.871  c-0.803,0.444-1.68,0.667-2.63,0.667c-1.524,0-2.757-0.488-3.696-1.466C522.194,861.802,521.724,860.394,521.724,858.555z   M523.621,858.555c0,1.395,0.304,2.438,0.913,3.132c0.608,0.694,1.374,1.041,2.297,1.041c0.916,0,1.678-0.349,2.287-1.046  s0.913-1.76,0.913-3.189c0-1.346-0.306-2.366-0.918-3.061c-0.612-0.693-1.372-1.041-2.281-1.041c-0.923,0-1.688,0.346-2.297,1.036  S523.621,857.161,523.621,858.555z"/>
<path d="M541.227,864v-1.6c-0.848,1.23-2,1.846-3.456,1.846c-0.643,0-1.243-0.123-1.799-0.369c-0.558-0.246-0.971-0.556-1.241-0.928  c-0.27-0.373-0.459-0.829-0.569-1.369c-0.075-0.362-0.113-0.937-0.113-1.723v-6.747h1.846v6.039c0,0.965,0.038,1.614,0.113,1.949  c0.116,0.485,0.362,0.866,0.738,1.143c0.376,0.277,0.841,0.416,1.395,0.416s1.073-0.143,1.559-0.426  c0.485-0.284,0.829-0.67,1.031-1.159c0.201-0.488,0.302-1.197,0.302-2.128v-5.834h1.846V864H541.227z"/>
<path d="M545.749,864v-10.89h1.661v1.65c0.424-0.771,0.815-1.281,1.174-1.527c0.358-0.246,0.753-0.369,1.184-0.369  c0.622,0,1.254,0.198,1.897,0.595l-0.636,1.712c-0.451-0.266-0.902-0.399-1.354-0.399c-0.403,0-0.766,0.121-1.087,0.364  c-0.321,0.242-0.55,0.579-0.687,1.01c-0.205,0.656-0.308,1.374-0.308,2.153V864H545.749z"/>
<path d="M552.763,864v-10.89h1.661v1.549c0.8-1.196,1.955-1.795,3.466-1.795c0.656,0,1.259,0.118,1.81,0.354  c0.55,0.236,0.962,0.546,1.235,0.928c0.273,0.384,0.465,0.838,0.574,1.364c0.068,0.342,0.103,0.94,0.103,1.794V864h-1.846v-6.624  c0-0.752-0.072-1.314-0.215-1.687c-0.144-0.373-0.398-0.67-0.764-0.893c-0.366-0.222-0.794-0.333-1.287-0.333  c-0.786,0-1.465,0.25-2.036,0.748c-0.571,0.5-0.856,1.446-0.856,2.841V864H552.763z"/>
<path d="M571.896,860.493l1.907,0.236c-0.301,1.114-0.858,1.979-1.671,2.594s-1.853,0.923-3.117,0.923  c-1.593,0-2.855-0.49-3.789-1.472c-0.933-0.98-1.399-2.356-1.399-4.127c0-1.832,0.472-3.254,1.415-4.266s2.167-1.518,3.671-1.518  c1.456,0,2.646,0.496,3.568,1.486c0.923,0.992,1.384,2.387,1.384,4.184c0,0.11-0.003,0.274-0.01,0.492h-8.121  c0.068,1.197,0.407,2.113,1.015,2.748c0.608,0.637,1.367,0.954,2.276,0.954c0.677,0,1.254-0.178,1.733-0.533  S571.616,861.272,571.896,860.493z M565.836,857.508h6.081c-0.082-0.915-0.314-1.603-0.697-2.061  c-0.588-0.711-1.35-1.066-2.287-1.066c-0.848,0-1.561,0.284-2.138,0.852C566.217,855.8,565.898,856.559,565.836,857.508z"/>
<path d="M575.403,859.488v-1.856h5.67v1.856H575.403z"/>
<path d="M590.589,864c-0.191-0.383-0.314-0.831-0.369-1.343c-0.684,0.581-1.342,0.991-1.974,1.23  c-0.633,0.238-1.311,0.358-2.036,0.358c-1.196,0-2.116-0.292-2.758-0.877c-0.643-0.584-0.964-1.331-0.964-2.24  c0-0.533,0.121-1.021,0.364-1.461c0.242-0.441,0.56-0.795,0.953-1.062s0.836-0.468,1.328-0.605c0.362-0.095,0.909-0.188,1.641-0.276  c1.49-0.178,2.587-0.39,3.292-0.636c0.007-0.253,0.01-0.413,0.01-0.482c0-0.751-0.174-1.281-0.523-1.589  c-0.472-0.417-1.172-0.626-2.102-0.626c-0.868,0-1.509,0.152-1.923,0.457c-0.414,0.304-0.719,0.843-0.917,1.615l-1.805-0.246  c0.164-0.772,0.434-1.396,0.81-1.872c0.376-0.475,0.919-0.841,1.63-1.097c0.711-0.257,1.535-0.385,2.471-0.385  c0.93,0,1.685,0.109,2.266,0.328s1.008,0.494,1.282,0.825c0.273,0.332,0.465,0.751,0.574,1.257c0.062,0.314,0.092,0.881,0.092,1.701  v2.461c0,1.717,0.039,2.802,0.118,3.256c0.079,0.455,0.234,0.891,0.467,1.308H590.589L590.589,864z M590.066,858.534  c-0.67,0.274-1.675,0.507-3.015,0.697c-0.759,0.11-1.295,0.233-1.61,0.369c-0.314,0.138-0.557,0.337-0.728,0.601  c-0.171,0.263-0.256,0.556-0.256,0.876c0,0.492,0.186,0.902,0.559,1.23s0.918,0.492,1.636,0.492c0.711,0,1.343-0.155,1.897-0.466  c0.554-0.312,0.96-0.736,1.22-1.276c0.198-0.417,0.297-1.032,0.297-1.846V858.534z M589.062,851.756h-1.487l-2.369-2.871h2.471  L589.062,851.756z"/>
<path d="M594.076,859.488v-1.856h5.67v1.856H594.076z"/>
<path d="M601.448,864.902l1.794,0.267c0.075,0.554,0.284,0.957,0.625,1.21c0.458,0.342,1.083,0.513,1.876,0.513  c0.854,0,1.514-0.171,1.979-0.513s0.779-0.82,0.943-1.436c0.096-0.376,0.14-1.165,0.133-2.368c-0.807,0.95-1.812,1.425-3.015,1.425  c-1.497,0-2.656-0.54-3.476-1.62s-1.23-2.375-1.23-3.887c0-1.038,0.188-1.997,0.564-2.876c0.376-0.878,0.921-1.557,1.636-2.035  c0.714-0.479,1.553-0.718,2.517-0.718c1.285,0,2.345,0.52,3.179,1.559v-1.313h1.702v9.413c0,1.695-0.173,2.896-0.518,3.604  c-0.345,0.707-0.892,1.266-1.641,1.676c-0.748,0.41-1.669,0.615-2.763,0.615c-1.299,0-2.348-0.292-3.148-0.876  C601.807,866.958,601.421,866.078,601.448,864.902z M602.976,858.36c0,1.429,0.284,2.471,0.851,3.127s1.278,0.984,2.133,0.984  c0.848,0,1.559-0.326,2.133-0.979c0.574-0.653,0.861-1.677,0.861-3.071c0-1.333-0.296-2.338-0.887-3.015s-1.304-1.016-2.138-1.016  c-0.82,0-1.518,0.334-2.092,1C603.263,856.058,602.976,857.047,602.976,858.36z"/>
<path d="M620.941,864c-0.191-0.383-0.314-0.831-0.369-1.343c-0.684,0.581-1.342,0.991-1.974,1.23  c-0.633,0.238-1.311,0.358-2.036,0.358c-1.196,0-2.116-0.292-2.758-0.877c-0.643-0.584-0.964-1.331-0.964-2.24  c0-0.533,0.121-1.021,0.364-1.461c0.242-0.441,0.56-0.795,0.953-1.062s0.836-0.468,1.328-0.605c0.362-0.095,0.909-0.188,1.641-0.276  c1.49-0.178,2.587-0.39,3.292-0.636c0.007-0.253,0.01-0.413,0.01-0.482c0-0.751-0.174-1.281-0.523-1.589  c-0.472-0.417-1.172-0.626-2.102-0.626c-0.868,0-1.509,0.152-1.923,0.457c-0.414,0.304-0.719,0.843-0.917,1.615l-1.805-0.246  c0.164-0.772,0.434-1.396,0.81-1.872c0.376-0.475,0.919-0.841,1.63-1.097c0.711-0.257,1.535-0.385,2.471-0.385  c0.93,0,1.685,0.109,2.266,0.328s1.008,0.494,1.282,0.825c0.273,0.332,0.465,0.751,0.574,1.257c0.062,0.314,0.092,0.881,0.092,1.701  v2.461c0,1.717,0.039,2.802,0.118,3.256c0.079,0.455,0.234,0.891,0.467,1.308H620.941L620.941,864z M620.418,858.534  c-0.67,0.274-1.675,0.507-3.015,0.697c-0.759,0.11-1.295,0.233-1.61,0.369c-0.314,0.138-0.557,0.337-0.728,0.601  c-0.171,0.263-0.256,0.556-0.256,0.876c0,0.492,0.186,0.902,0.559,1.23s0.918,0.492,1.636,0.492c0.711,0,1.343-0.155,1.897-0.466  c0.554-0.312,0.96-0.736,1.22-1.276c0.198-0.417,0.297-1.032,0.297-1.846V858.534z"/>
<path d="M632.282,864v-1.6c-0.848,1.23-2,1.846-3.456,1.846c-0.643,0-1.243-0.123-1.799-0.369c-0.558-0.246-0.971-0.556-1.241-0.928  c-0.27-0.373-0.459-0.829-0.569-1.369c-0.075-0.362-0.113-0.937-0.113-1.723v-6.747h1.846v6.039c0,0.965,0.038,1.614,0.113,1.949  c0.116,0.485,0.362,0.866,0.738,1.143c0.376,0.277,0.841,0.416,1.395,0.416s1.073-0.143,1.559-0.426  c0.485-0.284,0.829-0.67,1.031-1.159c0.201-0.488,0.302-1.197,0.302-2.128v-5.834h1.846V864H632.282z"/>
<path d="M643.93,860.01l1.815,0.236c-0.198,1.251-0.706,2.23-1.523,2.938c-0.817,0.708-1.82,1.062-3.009,1.062  c-1.49,0-2.688-0.487-3.594-1.461c-0.906-0.975-1.358-2.37-1.358-4.188c0-1.176,0.195-2.205,0.584-3.087s0.982-1.543,1.779-1.984  c0.796-0.44,1.663-0.661,2.6-0.661c1.183,0,2.15,0.299,2.902,0.897c0.752,0.598,1.234,1.447,1.446,2.548l-1.794,0.277  c-0.171-0.731-0.474-1.282-0.908-1.651s-0.958-0.554-1.574-0.554c-0.93,0-1.685,0.333-2.266,1c-0.581,0.666-0.872,1.721-0.872,3.163  c0,1.463,0.28,2.526,0.841,3.188c0.561,0.664,1.292,0.995,2.194,0.995c0.725,0,1.33-0.222,1.815-0.667  C643.493,861.618,643.8,860.934,643.93,860.01z"/>
<path d="M647.324,864v-15.032h1.846v5.394c0.861-0.998,1.948-1.497,3.261-1.497c0.807,0,1.507,0.159,2.102,0.477  c0.595,0.318,1.021,0.758,1.276,1.318c0.257,0.561,0.385,1.373,0.385,2.439V864h-1.846v-6.901c0-0.922-0.2-1.594-0.6-2.015  c-0.4-0.42-0.966-0.63-1.697-0.63c-0.547,0-1.062,0.142-1.543,0.425c-0.482,0.284-0.826,0.669-1.031,1.153  c-0.205,0.486-0.308,1.156-0.308,2.01V864H647.324z"/>
<path d="M666.458,860.493l1.907,0.236c-0.301,1.114-0.858,1.979-1.671,2.594s-1.853,0.923-3.117,0.923  c-1.593,0-2.855-0.49-3.789-1.472c-0.933-0.98-1.399-2.356-1.399-4.127c0-1.832,0.472-3.254,1.415-4.266s2.167-1.518,3.671-1.518  c1.456,0,2.646,0.496,3.568,1.486c0.923,0.992,1.384,2.387,1.384,4.184c0,0.11-0.003,0.274-0.01,0.492h-8.121  c0.068,1.197,0.407,2.113,1.015,2.748c0.608,0.637,1.367,0.954,2.276,0.954c0.677,0,1.254-0.178,1.733-0.533  S666.178,861.272,666.458,860.493z M660.398,857.508h6.081c-0.082-0.915-0.314-1.603-0.697-2.061  c-0.588-0.711-1.35-1.066-2.287-1.066c-0.848,0-1.561,0.284-2.138,0.852C660.779,855.8,660.459,856.559,660.398,857.508z"/>
<path d="M768.895,839v-15.032h10.141v1.773h-8.152v4.656h7.055v1.773h-7.055V839H768.895z"/>
<path d="M781.343,839v-15.032h1.846V839H781.343z"/>
<path d="M793.504,835.493l1.907,0.236c-0.301,1.114-0.858,1.979-1.671,2.594s-1.853,0.923-3.117,0.923  c-1.593,0-2.855-0.49-3.789-1.472c-0.933-0.98-1.399-2.356-1.399-4.127c0-1.832,0.472-3.254,1.415-4.266s2.167-1.518,3.671-1.518  c1.456,0,2.646,0.496,3.568,1.486c0.923,0.992,1.384,2.387,1.384,4.184c0,0.11-0.003,0.274-0.01,0.492h-8.121  c0.068,1.197,0.407,2.113,1.015,2.748c0.608,0.637,1.367,0.954,2.276,0.954c0.677,0,1.254-0.178,1.733-0.533  S793.224,836.272,793.504,835.493z M787.444,832.508h6.081c-0.082-0.915-0.314-1.603-0.697-2.061  c-0.588-0.711-1.35-1.066-2.287-1.066c-0.848,0-1.561,0.284-2.138,0.852C787.825,830.8,787.505,831.559,787.444,832.508z   M791.699,826.756h-1.487l-2.369-2.871h2.471L791.699,826.756z"/>
<path d="M804.834,835.01l1.815,0.236c-0.198,1.251-0.706,2.23-1.523,2.938c-0.817,0.708-1.82,1.062-3.009,1.062  c-1.49,0-2.688-0.487-3.594-1.461c-0.906-0.975-1.358-2.37-1.358-4.188c0-1.176,0.195-2.205,0.584-3.087s0.982-1.543,1.779-1.984  c0.796-0.44,1.663-0.661,2.6-0.661c1.183,0,2.15,0.299,2.902,0.897c0.752,0.598,1.234,1.447,1.446,2.548l-1.794,0.277  c-0.171-0.731-0.474-1.282-0.908-1.651s-0.958-0.554-1.574-0.554c-0.93,0-1.685,0.333-2.266,1c-0.581,0.666-0.872,1.721-0.872,3.163  c0,1.463,0.28,2.526,0.841,3.188c0.561,0.664,1.292,0.995,2.194,0.995c0.725,0,1.33-0.222,1.815-0.667  C804.397,836.618,804.705,835.934,804.834,835.01z"/>
<path d="M808.229,839v-15.032h1.846v5.394c0.861-0.998,1.948-1.497,3.261-1.497c0.807,0,1.507,0.159,2.102,0.477  c0.595,0.318,1.021,0.758,1.276,1.318c0.257,0.561,0.385,1.373,0.385,2.439V839h-1.846v-6.901c0-0.922-0.2-1.594-0.6-2.015  c-0.4-0.42-0.966-0.63-1.697-0.63c-0.547,0-1.062,0.142-1.543,0.425c-0.482,0.284-0.826,0.669-1.031,1.153  c-0.205,0.486-0.308,1.156-0.308,2.01V839H808.229z"/>
<path d="M827.362,835.493l1.907,0.236c-0.301,1.114-0.858,1.979-1.671,2.594s-1.853,0.923-3.117,0.923  c-1.593,0-2.855-0.49-3.789-1.472c-0.933-0.98-1.399-2.356-1.399-4.127c0-1.832,0.472-3.254,1.415-4.266s2.167-1.518,3.671-1.518  c1.456,0,2.646,0.496,3.568,1.486c0.923,0.992,1.384,2.387,1.384,4.184c0,0.11-0.003,0.274-0.01,0.492H821.2  c0.068,1.197,0.407,2.113,1.015,2.748c0.608,0.637,1.367,0.954,2.276,0.954c0.677,0,1.254-0.178,1.733-0.533  S827.082,836.272,827.362,835.493z M821.302,832.508h6.081c-0.082-0.915-0.314-1.603-0.697-2.061  c-0.588-0.711-1.35-1.066-2.287-1.066c-0.848,0-1.561,0.284-2.138,0.852C821.683,830.8,821.364,831.559,821.302,832.508z"/>
<path d="M746.449,864v-1.374c-0.69,1.08-1.706,1.62-3.045,1.62c-0.868,0-1.667-0.239-2.394-0.718  c-0.729-0.479-1.292-1.146-1.692-2.005c-0.399-0.857-0.6-1.844-0.6-2.958c0-1.087,0.181-2.073,0.543-2.958  c0.362-0.886,0.906-1.563,1.63-2.036c0.725-0.471,1.535-0.707,2.43-0.707c0.656,0,1.241,0.139,1.753,0.415  c0.513,0.277,0.93,0.638,1.251,1.082v-5.394h1.835V864H746.449z M740.614,858.565c0,1.395,0.294,2.438,0.882,3.127  c0.588,0.691,1.282,1.036,2.082,1.036c0.807,0,1.492-0.33,2.056-0.989c0.564-0.66,0.846-1.666,0.846-3.02  c0-1.49-0.287-2.584-0.861-3.281s-1.282-1.047-2.123-1.047c-0.82,0-1.506,0.336-2.056,1.006  C740.889,856.067,740.614,857.123,740.614,858.565z"/>
<path d="M758.518,860.493l1.907,0.236c-0.301,1.114-0.858,1.979-1.671,2.594s-1.853,0.923-3.117,0.923  c-1.593,0-2.855-0.49-3.789-1.472c-0.933-0.98-1.399-2.356-1.399-4.127c0-1.832,0.472-3.254,1.415-4.266s2.167-1.518,3.671-1.518  c1.456,0,2.646,0.496,3.568,1.486c0.923,0.992,1.384,2.387,1.384,4.184c0,0.11-0.003,0.274-0.01,0.492h-8.121  c0.068,1.197,0.407,2.113,1.015,2.748c0.608,0.637,1.367,0.954,2.276,0.954c0.677,0,1.254-0.178,1.733-0.533  S758.237,861.272,758.518,860.493z M752.458,857.508h6.081c-0.082-0.915-0.314-1.603-0.697-2.061  c-0.588-0.711-1.35-1.066-2.287-1.066c-0.848,0-1.561,0.284-2.138,0.852C752.838,855.8,752.519,856.559,752.458,857.508z"/>
<path d="M775.683,860.01l1.815,0.236c-0.198,1.251-0.706,2.23-1.522,2.938c-0.817,0.708-1.82,1.062-3.01,1.062  c-1.49,0-2.688-0.487-3.594-1.461c-0.906-0.975-1.359-2.37-1.359-4.188c0-1.176,0.195-2.205,0.584-3.087s0.982-1.543,1.779-1.984  c0.796-0.44,1.663-0.661,2.599-0.661c1.183,0,2.15,0.299,2.902,0.897c0.752,0.598,1.234,1.447,1.446,2.548l-1.794,0.277  c-0.171-0.731-0.474-1.282-0.907-1.651c-0.435-0.369-0.959-0.554-1.574-0.554c-0.93,0-1.685,0.333-2.266,1  c-0.581,0.666-0.872,1.721-0.872,3.163c0,1.463,0.28,2.526,0.841,3.188c0.561,0.664,1.292,0.995,2.194,0.995  c0.725,0,1.33-0.222,1.815-0.667C775.245,861.618,775.553,860.934,775.683,860.01z"/>
<path d="M778.39,858.555c0-2.017,0.561-3.511,1.682-4.481c0.937-0.807,2.078-1.21,3.425-1.21c1.497,0,2.721,0.49,3.671,1.472  c0.95,0.98,1.425,2.336,1.425,4.065c0,1.401-0.21,2.504-0.631,3.307c-0.42,0.804-1.032,1.428-1.835,1.871  c-0.804,0.444-1.68,0.667-2.63,0.667c-1.524,0-2.757-0.488-3.697-1.466S778.39,860.394,778.39,858.555z M780.287,858.555  c0,1.395,0.304,2.438,0.913,3.132c0.608,0.694,1.374,1.041,2.297,1.041c0.916,0,1.678-0.349,2.287-1.046s0.913-1.76,0.913-3.189  c0-1.346-0.306-2.366-0.917-3.061c-0.612-0.693-1.373-1.041-2.282-1.041c-0.923,0-1.688,0.346-2.297,1.036  S780.287,857.161,780.287,858.555z"/>
<path d="M790.756,864v-10.89h1.661v1.549c0.8-1.196,1.955-1.795,3.466-1.795c0.656,0,1.259,0.118,1.81,0.354  c0.55,0.236,0.962,0.546,1.235,0.928c0.273,0.384,0.465,0.838,0.574,1.364c0.068,0.342,0.103,0.94,0.103,1.794V864h-1.846v-6.624  c0-0.752-0.072-1.314-0.215-1.687c-0.144-0.373-0.398-0.67-0.764-0.893c-0.366-0.222-0.794-0.333-1.287-0.333  c-0.786,0-1.465,0.25-2.036,0.748c-0.571,0.5-0.856,1.446-0.856,2.841V864H790.756z"/>
<path d="M805.655,862.42c0.205,0,0.475-0.023,0.81-0.072l0.267,1.631c-0.52,0.109-0.984,0.164-1.395,0.164  c-0.67,0-1.189-0.106-1.559-0.318c-0.369-0.211-0.629-0.49-0.779-0.835c-0.15-0.346-0.226-1.071-0.226-2.179v-6.266h-1.354v-1.436  h1.354v-2.697l1.835-1.107v3.805h1.856v1.436h-1.856v6.367c0,0.527,0.032,0.865,0.098,1.016c0.064,0.15,0.17,0.271,0.317,0.359  S805.381,862.42,805.655,862.42L805.655,862.42z"/>
<path d="M808.28,851.09v-2.123h1.846v2.123H808.28z M808.28,864v-10.89h1.846V864H808.28z"/>
<path d="M812.935,864v-10.89h1.661v1.549c0.8-1.196,1.955-1.795,3.466-1.795c0.656,0,1.259,0.118,1.81,0.354  c0.55,0.236,0.962,0.546,1.236,0.928c0.273,0.384,0.465,0.838,0.574,1.364c0.068,0.342,0.103,0.94,0.103,1.794V864h-1.846v-6.624  c0-0.752-0.072-1.314-0.215-1.687c-0.144-0.373-0.398-0.67-0.764-0.893c-0.366-0.222-0.795-0.333-1.287-0.333  c-0.786,0-1.465,0.25-2.035,0.748c-0.571,0.5-0.856,1.446-0.856,2.841V864H812.935z"/>
<path d="M831.751,864v-1.6c-0.848,1.23-2,1.846-3.456,1.846c-0.643,0-1.243-0.123-1.8-0.369s-0.971-0.556-1.24-0.928  c-0.271-0.373-0.46-0.829-0.569-1.369c-0.075-0.362-0.113-0.937-0.113-1.723v-6.747h1.846v6.039c0,0.965,0.038,1.614,0.113,1.949  c0.116,0.485,0.362,0.866,0.738,1.143c0.376,0.277,0.841,0.416,1.395,0.416s1.073-0.143,1.559-0.426  c0.485-0.284,0.829-0.67,1.03-1.159c0.202-0.488,0.303-1.197,0.303-2.128v-5.834h1.846V864H831.751z"/>
<path d="M836.304,851.09v-2.123h1.846v2.123H836.304z M836.304,864v-10.89h1.846V864H836.304z"/>
<path d="M844.179,862.42c0.205,0,0.475-0.023,0.81-0.072l0.267,1.631c-0.52,0.109-0.984,0.164-1.395,0.164  c-0.67,0-1.189-0.106-1.559-0.318c-0.369-0.211-0.629-0.49-0.779-0.835c-0.15-0.346-0.226-1.071-0.226-2.179v-6.266h-1.354v-1.436  h1.354v-2.697l1.835-1.107v3.805h1.856v1.436h-1.856v6.367c0,0.527,0.032,0.865,0.097,1.016s0.171,0.271,0.318,0.359  C843.695,862.376,843.905,862.42,844.179,862.42L844.179,862.42z"/>
<path d="M854.248,860.493l1.907,0.236c-0.301,1.114-0.858,1.979-1.671,2.594s-1.853,0.923-3.117,0.923  c-1.593,0-2.855-0.49-3.789-1.472c-0.933-0.98-1.399-2.356-1.399-4.127c0-1.832,0.472-3.254,1.415-4.266s2.167-1.518,3.671-1.518  c1.456,0,2.646,0.496,3.568,1.486c0.923,0.992,1.384,2.387,1.384,4.184c0,0.11-0.003,0.274-0.01,0.492h-8.121  c0.068,1.197,0.407,2.113,1.015,2.748c0.608,0.637,1.367,0.954,2.276,0.954c0.677,0,1.254-0.178,1.733-0.533  S853.968,861.272,854.248,860.493z M848.188,857.508h6.081c-0.082-0.915-0.314-1.603-0.697-2.061  c-0.588-0.711-1.35-1.066-2.287-1.066c-0.848,0-1.561,0.284-2.138,0.852C848.569,855.8,848.25,856.559,848.188,857.508z   M850.177,851.756l1.364-2.871h2.42l-2.256,2.871H850.177z"/>
</svg>