<?xml version="1.0" encoding="UTF-8" standalone="no"?>
<!-- Generator: Adobe Illustrator 16.0.0, SVG Export Plug-In . SVG Version: 6.00 Build 0)  -->

<svg
   xmlns:dc="http://purl.org/dc/elements/1.1/"
   xmlns:cc="http://creativecommons.org/ns#"
   xmlns:rdf="http://www.w3.org/1999/02/22-rdf-syntax-ns#"
   xmlns:svg="http://www.w3.org/2000/svg"
   xmlns="http://www.w3.org/2000/svg"
   xmlns:sodipodi="http://sodipodi.sourceforge.net/DTD/sodipodi-0.dtd"
   xmlns:inkscape="http://www.inkscape.org/namespaces/inkscape"
   version="1.1"
   id="Calque_1"
   x="0px"
   y="0px"
   width="141.73px"
   height="141.73px"
   viewBox="0 0 141.73 141.73"
   enable-background="new 0 0 141.73 141.73"
   xml:space="preserve"
   inkscape:version="0.91 r13725"
   sodipodi:docname="commerceetattractivite.svg"><metadata
     id="metadata13"><rdf:RDF><cc:Work
         rdf:about=""><dc:format>image/svg+xml</dc:format><dc:type
           rdf:resource="http://purl.org/dc/dcmitype/StillImage" /><dc:title></dc:title></cc:Work></rdf:RDF></metadata><defs
     id="defs11" /><sodipodi:namedview
     pagecolor="#ffffff"
     bordercolor="#666666"
     borderopacity="1"
     objecttolerance="10"
     gridtolerance="10"
     guidetolerance="10"
     inkscape:pageopacity="0"
     inkscape:pageshadow="2"
     inkscape:window-width="884"
     inkscape:window-height="480"
     id="namedview9"
     showgrid="false"
     inkscape:zoom="1.665138"
     inkscape:cx="-0.60055083"
     inkscape:cy="70.864998"
     inkscape:window-x="65"
     inkscape:window-y="80"
     inkscape:window-maximized="0"
     inkscape:current-layer="Calque_1" /><path
     fill="param(fill) #FFF"
     d="M71.011,139c0,0-23.697-48.46-29.618-60.432c-6.778-13.704-11.987-26.031-11.987-34.647  c0-22.978,18.627-41.605,41.605-41.605s41.605,18.627,41.605,41.605c-0.001,8.617-5.21,20.944-11.987,34.647  C94.708,90.54,71.011,139,71.011,139z"
     id="path3" /><circle
     fill="#FFFFFF"
     cx="71.011"
     cy="44.511"
     r="33.489"
     id="circle5" /><path
     fill="param(fill) #FFF"
     d="M88.02,30.435c-0.259-0.008-1.824-0.038-3.475-0.067l-3.006-0.054l-0.053-2.646  c-0.057-2.699-0.102-3.118-0.447-4.125c-1.215-3.551-4.611-6.449-8.253-7.04c-0.762-0.124-2.486-0.163-3.174-0.074  c-0.602,0.077-2.151,0.502-2.719,0.744c-2.448,1.045-4.216,2.755-5.397,5.222c-0.834,1.741-1.078,3.113-1.078,6.054v1.911h-3.542  h-3.542v19.416v19.418h5.727c3.15,0,11.058-0.027,17.578-0.059l11.852-0.059V49.762V30.448L88.02,30.435z M63.828,29.121  c0-3.13,0.396-4.833,1.48-6.35c0.958-1.34,2.814-2.537,4.366-2.813c0.66-0.118,2.332-0.042,3.031,0.137  c0.683,0.174,1.887,0.716,2.44,1.098c1.354,0.931,2.454,2.61,2.728,4.161c0.12,0.682,0.309,4.882,0.223,4.969  c-0.02,0.02-3.242,0.036-7.152,0.036h-7.116V29.121z M84.992,49.774v15.83l-14.013-0.022L56.966,65.56l-0.022-15.806L56.92,33.945  h1.75h1.748v3.543v3.542h1.705h1.705v-3.542v-3.543h7.13h7.129v3.543v3.542h1.704h1.703l0.023-3.521l0.021-3.52l1.728-0.022  l1.726-0.023V49.774z"
     id="path7" /></svg>
