<?xml version="1.0" encoding="UTF-8" standalone="no"?>
<!-- Generator: Adobe Illustrator 16.0.0, SVG Export Plug-In . SVG Version: 6.00 Build 0)  -->

<svg
   xmlns:dc="http://purl.org/dc/elements/1.1/"
   xmlns:cc="http://creativecommons.org/ns#"
   xmlns:rdf="http://www.w3.org/1999/02/22-rdf-syntax-ns#"
   xmlns:svg="http://www.w3.org/2000/svg"
   xmlns="http://www.w3.org/2000/svg"
   xmlns:sodipodi="http://sodipodi.sourceforge.net/DTD/sodipodi-0.dtd"
   xmlns:inkscape="http://www.inkscape.org/namespaces/inkscape"
   version="1.1"
   id="Calque_1"
   x="0px"
   y="0px"
   width="141.73px"
   height="141.73px"
   viewBox="0 0 141.73 141.73"
   enable-background="new 0 0 141.73 141.73"
   xml:space="preserve"
   inkscape:version="0.91 r13725"
   sodipodi:docname="petiteenfance.svg"><metadata
     id="metadata23"><rdf:RDF><cc:Work
         rdf:about=""><dc:format>image/svg+xml</dc:format><dc:type
           rdf:resource="http://purl.org/dc/dcmitype/StillImage" /><dc:title></dc:title></cc:Work></rdf:RDF></metadata><defs
     id="defs21" /><sodipodi:namedview
     pagecolor="#ffffff"
     bordercolor="#666666"
     borderopacity="1"
     objecttolerance="10"
     gridtolerance="10"
     guidetolerance="10"
     inkscape:pageopacity="0"
     inkscape:pageshadow="2"
     inkscape:window-width="884"
     inkscape:window-height="480"
     id="namedview19"
     showgrid="false"
     inkscape:zoom="1.665138"
     inkscape:cx="-0.60055083"
     inkscape:cy="70.864998"
     inkscape:window-x="65"
     inkscape:window-y="80"
     inkscape:window-maximized="0"
     inkscape:current-layer="Calque_1" /><path
     fill="param(fill) #FFF"
     d="M71.011,139c0,0-23.697-48.46-29.618-60.432c-6.778-13.704-11.987-26.031-11.987-34.647  c0-22.978,18.627-41.605,41.605-41.605s41.605,18.627,41.605,41.605c-0.001,8.617-5.21,20.944-11.987,34.647  C94.708,90.54,71.011,139,71.011,139z"
     id="path3" /><circle
     fill="#FFFFFF"
     cx="71.011"
     cy="44.511"
     r="33.489"
     id="circle5" /><g
     id="g7"><path
       fill="param(fill) #FFF"
       d="M76.896,19.472c-0.318,0.129-0.693,0.5-0.837,0.826c-0.247,0.56-0.106,1.314,0.325,1.746   c0.293,0.292,0.54,0.391,1.182,0.467c0.314,0.038,0.733,0.117,0.926,0.175c1.718,0.52,2.923,2.2,2.926,4.077   c0.003,3.063-3.051,5.138-5.734,3.898c-0.445-0.206-0.702-0.381-1.14-0.776c-0.437-0.393-0.704-0.516-1.131-0.52   c-0.44-0.004-0.776,0.148-1.093,0.495c-0.426,0.465-0.531,1.181-0.256,1.757c0.24,0.503,1.298,1.371,2.223,1.823   c1.02,0.498,1.896,0.699,3.049,0.699c1.906,0,3.51-0.672,4.889-2.049c1.392-1.39,2.107-3.05,2.182-5.057   c0.078-2.192-0.684-4.124-2.236-5.66c-1.215-1.201-2.793-1.905-4.429-1.976C77.217,19.375,77.109,19.384,76.896,19.472   L76.896,19.472z"
       id="path9" /><path
       fill="param(fill) #FFF"
       d="M69.709,22.908c-2.167,0.142-3.805,0.443-5.58,1.026c-1.846,0.605-3.442,1.383-5.079,2.476   c-1.356,0.905-2.362,1.74-3.505,2.91c-3.6,3.684-5.813,8.502-6.325,13.776l-0.033,0.331l-0.445,0.315   c-0.541,0.382-1.384,1.246-1.744,1.786c-0.53,0.792-0.907,1.702-1.119,2.692c-0.146,0.679-0.157,2.077-0.023,2.757   c0.609,3.107,2.937,5.401,5.878,5.792l0.47,0.063l0.433,0.69c3.131,4.989,8.114,8.492,13.744,9.662   c3.208,0.667,6.679,0.544,9.808-0.345c5.154-1.465,9.545-4.823,12.466-9.537c0.201-0.326,0.209-0.331,0.47-0.366   c0.367-0.049,1.151-0.306,1.637-0.537c1.375-0.654,2.605-1.895,3.29-3.321c0.919-1.915,0.956-4.228,0.103-6.175   c-0.391-0.885-0.967-1.697-1.697-2.387l-0.479-0.456v-0.295c0-0.431-0.176-1.886-0.324-2.697c-0.438-2.377-1.253-4.706-2.366-6.756   c-0.401-0.74-1.118-1.894-1.392-2.242c-0.388-0.495-1.043-0.701-1.617-0.511c-0.347,0.115-0.76,0.494-0.906,0.831   c-0.268,0.623-0.181,1.076,0.371,1.917c0.554,0.843,0.9,1.456,1.33,2.347c1.224,2.538,1.857,5.195,1.943,8.137l0.032,1.121   l0.541,0.321c1.378,0.818,2.087,1.951,2.169,3.467c0.088,1.617-0.818,3.167-2.249,3.849c-0.548,0.262-0.931,0.346-1.756,0.386   c-0.682,0.033-0.697,0.037-0.766,0.164c-0.761,1.412-1.457,2.499-2.184,3.413c-2.993,3.766-7.175,6.175-11.843,6.825   c-3.809,0.531-7.84-0.259-11.235-2.199c-3.187-1.821-5.685-4.465-7.485-7.923c-0.31-0.595-0.326-0.614-0.461-0.588   c-0.076,0.015-0.449,0.041-0.826,0.058c-0.521,0.022-0.771,0.011-1.045-0.046c-0.795-0.169-1.373-0.487-1.967-1.085   c-0.759-0.762-1.119-1.576-1.183-2.677c-0.071-1.191,0.384-2.361,1.233-3.175c0.413-0.394,0.792-0.626,1.542-0.942   c0.535-0.225,0.56-0.243,0.561-0.386c0.008-1,0.167-2.667,0.353-3.708c0.84-4.684,3.392-8.939,7.087-11.812   c2.678-2.083,5.759-3.339,9.146-3.729c0.651-0.075,2.642-0.087,3.683-0.023c0.722,0.045,0.734,0.044,1.007-0.081   c0.818-0.374,1.143-1.335,0.736-2.176c-0.138-0.285-0.541-0.639-0.837-0.735c-0.13-0.042-0.479-0.099-0.786-0.128   C71.886,22.925,70.154,22.878,69.709,22.908L69.709,22.908z"
       id="path11" /><path
       fill="param(fill) #FFF"
       d="M60.762,41.368c-0.841,0.204-1.587,0.821-1.978,1.633c-0.266,0.555-0.334,0.846-0.334,1.437   c0,1.771,1.462,3.208,3.153,3.098c0.755-0.049,1.44-0.372,1.958-0.926c0.577-0.615,0.853-1.301,0.861-2.137   c0.007-0.605-0.064-0.921-0.33-1.476c-0.163-0.34-0.284-0.506-0.608-0.83c-0.439-0.44-0.812-0.658-1.357-0.796   C61.776,41.28,61.127,41.28,60.762,41.368L60.762,41.368z"
       id="path13" /><path
       fill="param(fill) #FFF"
       d="M78.592,41.391c-0.475,0.139-0.901,0.383-1.267,0.728c-0.636,0.597-0.97,1.369-0.975,2.254   c-0.005,0.596,0.09,1,0.354,1.527c0.215,0.43,0.738,0.997,1.132,1.225c1.522,0.884,3.388,0.306,4.15-1.285   c0.122-0.256,0.247-0.585,0.278-0.731c0.076-0.375,0.066-1.081-0.023-1.461c-0.257-1.086-1.179-2.026-2.23-2.275   C79.593,41.272,78.967,41.281,78.592,41.391L78.592,41.391z"
       id="path15" /><path
       fill="param(fill) #FFF"
       d="M58.105,50.509c-0.371,0.147-0.711,0.494-0.854,0.875c-0.091,0.241-0.108,0.365-0.089,0.675   c0.02,0.343,0.051,0.435,0.312,0.946c2.948,5.772,9.103,8.903,15.288,7.776c3.343-0.609,6.37-2.425,8.582-5.149   c0.551-0.678,1.274-1.791,1.661-2.557l0.341-0.676l-0.002-0.435c-0.003-0.355-0.025-0.481-0.125-0.686   c-0.445-0.91-1.564-1.152-2.295-0.496c-0.173,0.155-0.321,0.371-0.527,0.766c-0.586,1.121-1.214,1.991-2.08,2.878   c-0.994,1.02-1.937,1.707-3.168,2.312c-1.135,0.557-2.271,0.898-3.587,1.076c-0.56,0.075-2.006,0.074-2.603-0.002   c-1.986-0.254-3.803-0.99-5.424-2.194c-0.59-0.439-1.554-1.365-2.015-1.937c-0.453-0.562-1.058-1.481-1.367-2.082   c-0.145-0.28-0.342-0.595-0.441-0.706C59.311,50.45,58.65,50.293,58.105,50.509L58.105,50.509z"
       id="path17" /></g></svg>
