<?xml version="1.0" encoding="UTF-8" standalone="no"?>
<!-- Generator: Adobe Illustrator 16.0.0, SVG Export Plug-In . SVG Version: 6.00 Build 0)  -->

<svg
   xmlns:dc="http://purl.org/dc/elements/1.1/"
   xmlns:cc="http://creativecommons.org/ns#"
   xmlns:rdf="http://www.w3.org/1999/02/22-rdf-syntax-ns#"
   xmlns:svg="http://www.w3.org/2000/svg"
   xmlns="http://www.w3.org/2000/svg"
   xmlns:sodipodi="http://sodipodi.sourceforge.net/DTD/sodipodi-0.dtd"
   xmlns:inkscape="http://www.inkscape.org/namespaces/inkscape"
   version="1.1"
   id="Calque_1"
   x="0px"
   y="0px"
   width="141.73px"
   height="141.73px"
   viewBox="0 0 141.73 141.73"
   enable-background="new 0 0 141.73 141.73"
   xml:space="preserve"
   inkscape:version="0.91 r13725"
   sodipodi:docname="sport.svg"><metadata
     id="metadata21"><rdf:RDF><cc:Work
         rdf:about=""><dc:format>image/svg+xml</dc:format><dc:type
           rdf:resource="http://purl.org/dc/dcmitype/StillImage" /><dc:title></dc:title></cc:Work></rdf:RDF></metadata><defs
     id="defs19" /><sodipodi:namedview
     pagecolor="#ffffff"
     bordercolor="#666666"
     borderopacity="1"
     objecttolerance="10"
     gridtolerance="10"
     guidetolerance="10"
     inkscape:pageopacity="0"
     inkscape:pageshadow="2"
     inkscape:window-width="884"
     inkscape:window-height="480"
     id="namedview17"
     showgrid="false"
     inkscape:zoom="1.665138"
     inkscape:cx="-0.60055083"
     inkscape:cy="70.864998"
     inkscape:window-x="65"
     inkscape:window-y="80"
     inkscape:window-maximized="0"
     inkscape:current-layer="Calque_1" /><path
     fill="param(fill) #FFF"
     d="M71.269,139c0,0-23.696-48.46-29.618-60.432c-6.777-13.704-11.986-26.031-11.986-34.647  c0-22.978,18.627-41.605,41.604-41.605s41.605,18.627,41.605,41.605c-0.001,8.617-5.21,20.944-11.987,34.647  C94.966,90.54,71.269,139,71.269,139z"
     id="path3" /><circle
     fill="#FFFFFF"
     cx="71.258"
     cy="44.511"
     r="33.489"
     id="circle5" /><g
     id="g7"><path
       fill="param(fill) #FFF"
       d="M69.791,25.202c-1.981,0.358-3.756,1.669-4.678,3.452c-1.48,2.864-0.674,6.383,1.905,8.306   c2.47,1.843,5.958,1.705,8.264-0.328c1.449-1.277,2.229-3.008,2.229-4.947c0-3.236-2.273-5.932-5.475-6.49   C71.466,25.096,70.359,25.099,69.791,25.202L69.791,25.202z"
       id="path9" /><path
       fill="param(fill) #FFF"
       d="M47.04,34.53v0.315l0.525,0.038c0.288,0.021,0.842,0.086,1.234,0.145   c7.706,1.171,14.217,7.581,16.374,16.119c0.553,2.188,0.776,3.979,0.784,6.294l0.005,1.335l2.127-0.046   c2.633-0.057,3.117-0.057,5.751,0l2.109,0.045v-1.233c0-1.373,0.057-2.29,0.219-3.488c0.601-4.447,2.307-8.509,4.993-11.882   c0.712-0.894,2.357-2.545,3.213-3.227c2.425-1.93,5.019-3.172,7.838-3.754c0.686-0.142,1.824-0.301,2.445-0.342l0.217-0.015   l0.015-0.31l0.017-0.309h-0.474c-0.646,0-2.085,0.089-3.031,0.19c-8.075,0.853-15.202,4.579-19.824,10.362   c-0.296,0.371-0.558,0.695-0.585,0.724c-0.03,0.03-0.082,0.002-0.136-0.073c-0.698-0.996-2.935-3.346-4.113-4.323   c-4.958-4.11-11.009-6.417-17.911-6.826c-0.511-0.03-1.12-0.055-1.359-0.055H47.04V34.53L47.04,34.53z"
       id="path11" /><path
       fill="param(fill) #FFF"
       d="M90.379,48.283c1.717,0.983,2.809,1.999,3.368,3.134c0.337,0.682,0.419,1.055,0.386,1.749   c-0.039,0.878-0.34,1.575-1.053,2.445c-2.29,2.796-8.808,5.071-16.511,5.765c-1.816,0.164-2.455,0.195-4.657,0.225   c-3.812,0.054-7.002-0.173-10.358-0.737c-7.596-1.275-12.76-3.956-13.546-7.035c-0.403-1.578,0.399-3.229,2.24-4.604   c0.248-0.185,0.44-0.341,0.433-0.35c-0.032-0.032-1.159,0.605-1.752,0.991c-2.201,1.434-3.499,2.98-3.964,4.726   c-0.076,0.285-0.1,0.56-0.098,1.13c0.003,0.656,0.021,0.816,0.148,1.239c0.648,2.146,2.583,4.018,5.847,5.654   c4.155,2.083,9.749,3.394,16.474,3.86c1.341,0.093,6.541,0.092,7.806-0.002c6.779-0.502,12.121-1.743,16.243-3.773   c3.387-1.668,5.371-3.559,6.025-5.739c0.126-0.422,0.146-0.583,0.148-1.239c0.005-1.05-0.188-1.733-0.755-2.675   c-1.031-1.713-3.126-3.336-5.994-4.649c-0.42-0.191-0.775-0.347-0.798-0.347C89.991,48.052,90.157,48.157,90.379,48.283   L90.379,48.283z"
       id="path13" /><path
       fill="param(fill) #FFF"
       d="M50.754,48.833c0,0.016,0.011,0.026,0.028,0.026c0.015,0,0.026-0.01,0.026-0.026   c0-0.017-0.012-0.027-0.026-0.027C50.765,48.805,50.754,48.816,50.754,48.833L50.754,48.833z"
       id="path15" /></g></svg>
