<?xml version="1.0" encoding="UTF-8" standalone="no"?>
<!-- Generator: Adobe Illustrator 16.0.0, SVG Export Plug-In . SVG Version: 6.00 Build 0)  -->

<svg
   xmlns:dc="http://purl.org/dc/elements/1.1/"
   xmlns:cc="http://creativecommons.org/ns#"
   xmlns:rdf="http://www.w3.org/1999/02/22-rdf-syntax-ns#"
   xmlns:svg="http://www.w3.org/2000/svg"
   xmlns="http://www.w3.org/2000/svg"
   xmlns:sodipodi="http://sodipodi.sourceforge.net/DTD/sodipodi-0.dtd"
   xmlns:inkscape="http://www.inkscape.org/namespaces/inkscape"
   version="1.1"
   id="Calque_1"
   x="0px"
   y="0px"
   width="141.73px"
   height="141.73px"
   viewBox="0 0 141.73 141.73"
   enable-background="new 0 0 141.73 141.73"
   xml:space="preserve"
   inkscape:version="0.92.3 (2405546, 2018-03-11)"
   sodipodi:docname="P08_picto_renouvellement_des_quartiers.svg"><metadata
     id="metadata15"><rdf:RDF><cc:Work
         rdf:about=""><dc:format>image/svg+xml</dc:format><dc:type
           rdf:resource="http://purl.org/dc/dcmitype/StillImage" /><dc:title /></cc:Work></rdf:RDF></metadata><defs
     id="defs13" /><sodipodi:namedview
     pagecolor="#ffffff"
     bordercolor="#666666"
     borderopacity="1"
     objecttolerance="10"
     gridtolerance="10"
     guidetolerance="10"
     inkscape:pageopacity="0"
     inkscape:pageshadow="2"
     inkscape:window-width="1867"
     inkscape:window-height="1016"
     id="namedview11"
     showgrid="false"
     inkscape:zoom="4.7097214"
     inkscape:cx="98.653733"
     inkscape:cy="86.525163"
     inkscape:window-x="1333"
     inkscape:window-y="27"
     inkscape:window-maximized="1"
     inkscape:current-layer="Calque_1" /><path
     fill="param(fill) #FFF"
     d="M71.64,139c0,0-23.697-48.46-29.618-60.432c-6.778-13.703-11.987-26.031-11.987-34.647  c0-22.978,18.627-41.604,41.605-41.604s41.605,18.627,41.605,41.604c-0.001,8.616-5.21,20.944-11.987,34.647  C95.337,90.54,71.64,139,71.64,139z"
     id="path3" /><circle
     cx="71.64"
     cy="44.511"
     r="33.489"
     id="circle5"
     fill="#FFFFFF" /><g
     id="g7"
     transform="matrix(0.77394413,0,0,0.7251622,16.390912,12.296718)"><path
       fill="param(fill) #FFF"
       d="m 71.13,19.286 c -0.073,0.023 -0.221,0.086 -0.321,0.138 -0.106,0.052 -5.707,5.612 -12.736,12.644 -10.294,10.297 -12.57,12.6 -12.675,12.819 -0.158,0.333 -0.173,0.956 -0.03,1.278 0.233,0.526 0.835,0.95 1.351,0.95 0.602,0 0.514,0.08 4.625,-4.211 l 1.122,-1.171 0.027,10.01 0.026,10.01 0.159,0.296 c 0.218,0.401 0.694,0.863 1.104,1.066 l 0.338,0.168 h 17.542 c 17.179,0 17.547,-0.002 17.71,-0.102 0.235,-0.145 0.435,-0.419 0.575,-0.795 l 0.118,-0.312 0.026,-10.072 0.027,-10.07 2.513,2.42 c 2.783,2.679 2.823,2.71 3.497,2.751 1.149,0.07 1.986,-0.961 1.675,-2.062 L 97.713,44.725 85.105,32.116 C 75.729,22.737 72.437,19.475 72.257,19.387 72,19.26 71.383,19.204 71.13,19.286 Z m 14.164,17.839 1.681,1.691 V 49.492 60.168 H 83.057 79.139 L 79.12,54.461 c -0.019,-5.607 -0.021,-5.715 -0.135,-6.175 -0.488,-1.984 -1.813,-3.258 -3.854,-3.705 -0.246,-0.054 -1.074,-0.07 -3.492,-0.07 -2.862,0 -3.212,0.01 -3.626,0.097 -2.378,0.51 -4.103,2.086 -4.489,4.108 -0.063,0.327 -0.076,1.381 -0.076,5.925 v 5.527 h -3.92 -3.922 V 49.371 c 0,-10.474 0.004,-10.796 0.101,-10.796 0.06,0 3.102,-3.024 7.828,-7.783 l 7.729,-7.782 6.174,6.211 c 3.396,3.417 6.932,6.973 7.856,7.904 z m -10.86,10.528 c 0.752,0.106 1.227,0.479 1.424,1.117 0.104,0.333 0.107,0.516 0.107,5.87 v 5.527 h -4.7 -4.7 l 0.014,-5.492 0.014,-5.492 0.118,-0.258 c 0.299,-0.646 1.128,-1.142 2.132,-1.272 0.482,-0.063 5.148,-0.063 5.591,0 z"
       id="path9"
       inkscape:connector-curvature="0" /></g><path
     inkscape:connector-curvature="0"
     fill="param(fill) #FFF"
     d="m 69.431386,19.286 c -0.085,0.012 -0.442,0.046 -0.797,0.078 -2.56,0.223 -5.513,1.076001 -7.945,2.294001 -3.538,1.771 -6.605,4.489 -8.826,7.816999 -1.753,2.631 -2.97,5.694 -3.489,8.795 -0.142,0.844 -0.138,1.001 0.026,1.322 0.347,0.686 1.328,0.793 1.825,0.202 0.193,-0.229 0.22,-0.314 0.364,-1.149 1.492,-8.634 8.279,-15.410999 16.886,-16.860999 1.544,-0.261 3.71,-0.351 5.174,-0.214 5.866,0.543 11.055,3.383 14.62,7.998999 0.477,0.617 0.65,0.771 0.977,0.856 0.617,0.165 1.284,-0.271 1.367,-0.893 0.016,-0.116 0.1,-1.725999 0.186,-3.573999 0.109,-2.362 0.141,-3.417 0.105,-3.547 -0.085,-0.304 -0.304,-0.567 -0.588,-0.709 -0.442,-0.218 -0.879,-0.152 -1.252,0.191 -0.321,0.298 -0.361,0.487 -0.428,2.072 -0.031,0.737 -0.07,1.575 -0.09,1.864 l -0.032,0.525 -0.7,-0.662 c -1.822,-1.723 -3.496,-2.914 -5.566,-3.963 -2.461,-1.248 -4.973,-2.002001 -7.825,-2.351001 -0.655,-0.077 -3.583,-0.147 -3.992,-0.092 z"
     id="path9-5" /><path
     inkscape:connector-curvature="0"
     fill="param(fill) #FFF"
     d="m 50.320441,48.555799 c -0.269,0.087 -0.507,0.273 -0.642,0.499 -0.125,0.213 -0.176,0.516001 -0.617,3.667001 -0.265,1.889 -0.482,3.503 -0.482,3.588 0,0.231 0.224,0.666 0.418,0.81 0.488,0.364 1.112,0.315 1.519,-0.119 0.229,-0.243 0.259,-0.345 0.406,-1.37 0.072,-0.5 0.136,-0.914 0.145,-0.924 0.01,-0.01 0.191,0.332 0.406,0.765 3.171,6.354 9.12,10.854 16.143,12.211003 1.487,0.288 2.275,0.358 4.083,0.362 l 1.673,0.005 0.244,-0.145 c 0.135,-0.079 0.31,-0.24 0.387,-0.357 0.123,-0.186003 0.142,-0.266003 0.142,-0.611003 0,-0.359 -0.015,-0.416 -0.157,-0.619 -0.085,-0.12 -0.264,-0.283 -0.386,-0.354 -0.225,-0.125 -0.25,-0.128 -1.157,-0.111 -6.827,0.116 -13.021,-2.868 -17.016,-8.203 -1.686,-2.25 -2.826,-4.675 -3.524,-7.496 -0.238,-0.964001 -0.306,-1.140001 -0.501,-1.318001 -0.284,-0.255 -0.771,-0.38 -1.084,-0.28 z"
     id="path15" /></svg>