<?xml version="1.0" encoding="UTF-8" standalone="no"?>
<!-- Generator: Adobe Illustrator 16.0.0, SVG Export Plug-In . SVG Version: 6.00 Build 0)  -->

<svg
   xmlns:dc="http://purl.org/dc/elements/1.1/"
   xmlns:cc="http://creativecommons.org/ns#"
   xmlns:rdf="http://www.w3.org/1999/02/22-rdf-syntax-ns#"
   xmlns:svg="http://www.w3.org/2000/svg"
   xmlns="http://www.w3.org/2000/svg"
   xmlns:sodipodi="http://sodipodi.sourceforge.net/DTD/sodipodi-0.dtd"
   xmlns:inkscape="http://www.inkscape.org/namespaces/inkscape"
   version="1.1"
   id="Calque_1"
   x="0px"
   y="0px"
   width="141.73px"
   height="141.73px"
   viewBox="0 0 141.73 141.73"
   enable-background="new 0 0 141.73 141.73"
   xml:space="preserve"
   inkscape:version="0.91 r13725"
   sodipodi:docname="devdurable.svg"><metadata
     id="metadata21"><rdf:RDF><cc:Work
         rdf:about=""><dc:format>image/svg+xml</dc:format><dc:type
           rdf:resource="http://purl.org/dc/dcmitype/StillImage" /><dc:title></dc:title></cc:Work></rdf:RDF></metadata><defs
     id="defs19" /><sodipodi:namedview
     pagecolor="#ffffff"
     bordercolor="#666666"
     borderopacity="1"
     objecttolerance="10"
     gridtolerance="10"
     guidetolerance="10"
     inkscape:pageopacity="0"
     inkscape:pageshadow="2"
     inkscape:window-width="884"
     inkscape:window-height="480"
     id="namedview17"
     showgrid="false"
     inkscape:zoom="1.665138"
     inkscape:cx="-0.60055083"
     inkscape:cy="70.864998"
     inkscape:window-x="65"
     inkscape:window-y="80"
     inkscape:window-maximized="0"
     inkscape:current-layer="Calque_1" /><path
     fill="#52AE32"
     d="M71.011,139c0,0-23.697-48.46-29.618-60.432c-6.778-13.703-11.987-26.031-11.987-34.647  c0-22.978,18.627-41.604,41.605-41.604s41.605,18.627,41.605,41.604c-0.001,8.616-5.21,20.944-11.987,34.647  C94.708,90.54,71.011,139,71.011,139z"
     id="path3" /><circle
     fill="#FFFFFF"
     cx="71.011"
     cy="44.511"
     r="33.489"
     id="circle5" /><g
     id="g7"><path
       fill="#52AE32"
       d="M68.446,19.576c-0.085,0.012-0.442,0.046-0.797,0.078c-2.56,0.223-5.513,1.076-7.945,2.294   c-3.538,1.771-6.605,4.489-8.826,7.817c-1.753,2.631-2.97,5.694-3.489,8.795c-0.142,0.844-0.138,1.001,0.026,1.322   c0.347,0.686,1.328,0.793,1.825,0.202c0.193-0.229,0.22-0.314,0.364-1.149c1.492-8.634,8.279-15.411,16.886-16.861   c1.544-0.261,3.71-0.351,5.174-0.214c5.866,0.543,11.055,3.383,14.62,7.999c0.477,0.617,0.65,0.771,0.977,0.856   c0.617,0.165,1.284-0.271,1.367-0.893c0.016-0.116,0.1-1.726,0.186-3.574c0.109-2.362,0.141-3.417,0.105-3.547   c-0.085-0.304-0.304-0.567-0.588-0.709c-0.442-0.218-0.879-0.152-1.252,0.191c-0.321,0.298-0.361,0.487-0.428,2.072   c-0.031,0.737-0.07,1.575-0.09,1.864l-0.032,0.525l-0.7-0.662c-1.822-1.723-3.496-2.914-5.566-3.963   c-2.461-1.248-4.973-2.002-7.825-2.351C71.783,19.591,68.855,19.521,68.446,19.576L68.446,19.576z"
       id="path9" /><path
       fill="#52AE32"
       d="M68.91,25.32c-2.385,0.143-4.899,0.852-6.977,1.964c-3.667,1.963-6.477,5.098-7.998,8.918   c-1.873,4.711-1.561,10.101,0.843,14.519c2.426,4.461,6.567,7.594,11.495,8.699c0.803,0.182,1.959,0.343,2.533,0.354   c0.421,0.009,0.484-0.003,0.71-0.136c0.335-0.195,0.513-0.478,0.541-0.859c0.028-0.396-0.048-0.601-0.361-0.957   c-1.735-1.981-3.416-5.977-4.179-9.933c-0.36-1.863-0.496-3.382-0.494-5.534c0.001-1.425,0.061-2.961,0.116-3.017   c0.012-0.011,0.412,0.014,0.892,0.056c2.579,0.228,5.938,0.204,8.49-0.059l0.325-0.033l0.03,0.227   c0.018,0.125,0.051,0.61,0.074,1.084c0.041,0.798,0.055,0.873,0.184,1.095c0.395,0.674,1.387,0.737,1.836,0.117   c0.242-0.332,0.262-0.494,0.199-1.591c-0.268-4.773-1.267-8.941-2.783-11.631c-0.138-0.247-0.252-0.462-0.252-0.479   c0-0.077,1.617,0.538,2.344,0.889c1.373,0.668,2.507,1.425,3.552,2.375c0.536,0.487,0.776,0.618,1.132,0.618   c0.805,0,1.346-0.839,1.012-1.57c-0.102-0.226-0.701-0.815-1.376-1.351c-2.886-2.293-6.157-3.544-9.854-3.769   C70.014,25.259,69.893,25.259,68.91,25.32L68.91,25.32z M70.64,27.704c1.507,0.76,2.958,3.843,3.722,7.916   c0.097,0.521,0.191,1.06,0.209,1.205l0.033,0.263l-0.762,0.061c-2.672,0.213-5.28,0.214-7.754,0.003   c-0.831-0.07-0.765,0.05-0.574-1.063c0.376-2.202,1.011-4.302,1.75-5.797c0.904-1.822,1.919-2.813,2.814-2.746   C70.249,27.559,70.479,27.624,70.64,27.704L70.64,27.704z M65.432,28.933c-0.649,1.261-1.158,2.646-1.584,4.31   c-0.225,0.869-0.532,2.385-0.632,3.104c-0.035,0.253-0.087,0.448-0.119,0.448c-0.283,0-2.744-0.484-3.816-0.751   c-0.838-0.209-2.363-0.647-2.414-0.693c-0.094-0.086,0.865-1.537,1.611-2.438c1.429-1.723,3.552-3.304,5.617-4.18   c0.469-0.199,1.555-0.583,1.658-0.586C65.817,28.145,65.74,28.33,65.432,28.933L65.432,28.933z M56.728,37.674   c1.551,0.464,3.593,0.941,5.154,1.205c0.438,0.074,0.846,0.145,0.903,0.155c0.102,0.02,0.104,0.041,0.058,0.55   c-0.077,0.84-0.072,4.798,0.006,5.551c0.088,0.835,0.211,1.846,0.246,1.999c0.028,0.12,0.023,0.122-0.219,0.088   c-1.975-0.274-4.582-0.849-6.684-1.476c-0.725-0.217-0.918-0.293-0.952-0.377c-0.022-0.058-0.084-0.384-0.136-0.723   c-0.135-0.876-0.136-3.336-0.001-4.197c0.128-0.823,0.351-1.771,0.576-2.466c0.152-0.463,0.207-0.575,0.27-0.551   C55.991,37.45,56.341,37.558,56.728,37.674L56.728,37.674z M56.938,48.299c1.984,0.53,3.955,0.923,6.148,1.227   c0.417,0.059,0.46,0.075,0.497,0.192c0.021,0.07,0.135,0.489,0.251,0.927c0.594,2.213,1.511,4.528,2.447,6.174   c0.102,0.18,0.18,0.335,0.171,0.344c-0.026,0.025-1.22-0.336-1.725-0.522c-0.695-0.257-2.036-0.924-2.692-1.338   c-1.854-1.17-3.338-2.621-4.573-4.473c-0.567-0.85-1.544-2.759-1.41-2.759C56.07,48.07,56.471,48.173,56.938,48.299L56.938,48.299z   "
       id="path11" /><path
       fill="#52AE32"
       d="M84.253,32.965c-0.634,0.102-1.333,0.39-1.858,0.767c-1.186,0.846-1.781,1.817-2.104,3.438   c-0.163,0.818-0.218,1.361-0.309,3.05c-0.083,1.549-0.151,2.102-0.415,3.418c-0.332,1.647-1.079,4.409-1.354,4.999   c-0.184,0.397-0.657,0.876-0.865,0.876c-0.088,0-0.197-0.042-0.242-0.094c-0.154-0.168-0.486-0.952-0.676-1.59   c-0.332-1.117-0.622-1.77-1.175-2.646c-0.571-0.907-1.362-1.744-1.999-2.12c-0.637-0.374-1.551-0.587-2.313-0.537   c-1.591,0.102-2.689,1.411-2.877,3.43c-0.107,1.151,0.146,2.28,0.96,4.278c0.214,0.524,0.652,1.658,0.976,2.523   c0.802,2.142,1.036,2.714,1.535,3.748c0.746,1.545,1.532,2.789,2.349,3.717c1.169,1.33,1.468,1.982,1.591,3.476   c0.029,0.371,0.087,0.812,0.125,0.987c0.202,0.897,0.894,1.667,1.73,1.928c0.301,0.093,0.572,0.097,6.529,0.097   c6.849,0,6.431,0.02,7.074-0.32c0.354-0.188,0.809-0.657,0.999-1.033c0.27-0.535,2.751-7.657,3.663-10.515   c1.133-3.557,1.51-5.483,1.434-7.336c-0.071-1.706-0.366-2.807-1.24-4.612c-0.251-0.516-0.508-0.97-0.619-1.093   c-0.541-0.598-1.743-1.013-2.191-0.758c-0.072,0.041-0.143,0.074-0.158,0.075s-0.059-0.115-0.095-0.265   c-0.101-0.402-0.688-1.875-1.057-2.647c-0.413-0.864-0.769-1.392-1.26-1.872c-0.739-0.72-1.359-0.987-2.349-1.012l-0.618-0.015   l-0.056-0.633c-0.095-1.057-0.273-1.26-1.375-1.563C85.545,32.981,84.623,32.905,84.253,32.965L84.253,32.965z M85.185,35.219   c0.021,0.016,0.392,3.871,0.435,4.51c0.064,0.974,0.064,1.872-0.004,2.533c-0.061,0.582-0.79,3.856-1.294,5.809   c-0.499,1.93-0.474,1.803-0.409,2.038c0.168,0.618,0.736,0.978,1.334,0.845c0.422-0.094,0.73-0.417,0.883-0.926   c0.307-1.03,1.238-4.918,1.572-6.561c0.256-1.267,0.273-2.935,0.056-5.205c-0.036-0.371-0.06-0.676-0.054-0.686   c0.041-0.055,0.452-0.063,0.606-0.012c0.584,0.191,1.065,0.878,1.735,2.475c0.597,1.42,0.695,1.909,0.57,2.857   c-0.16,1.215-1.051,5.77-1.371,7.017c-0.262,1.019-0.279,1.241-0.112,1.555c0.428,0.808,1.579,0.808,1.981,0   c0.149-0.3,0.514-1.75,0.779-3.089c0.332-1.693,0.875-4.636,0.913-4.958c0.019-0.165,0.054-0.31,0.076-0.322   s0.173,0.025,0.332,0.085l0.292,0.108l0.326,0.681c0.377,0.782,0.689,1.656,0.827,2.321c0.147,0.701,0.135,2.481-0.022,3.397   c-0.244,1.438-0.685,2.991-1.732,6.128c-1.494,4.468-2.885,8.402-3.023,8.547c-0.097,0.101-0.174,0.103-5.961,0.115l-5.861,0.013   l-0.134-0.115c-0.124-0.107-0.138-0.167-0.188-0.786c-0.161-2.003-0.663-3.154-2.072-4.767c-0.74-0.847-1.313-1.731-1.965-3.033   c-0.445-0.889-0.797-1.735-1.529-3.682c-0.34-0.906-0.816-2.132-1.055-2.724c-0.584-1.441-0.798-2.207-0.807-2.889   c-0.011-0.757,0.203-1.453,0.506-1.652c0.191-0.125,0.855-0.077,1.189,0.085c0.506,0.246,1.287,1.197,1.772,2.16   c0.106,0.212,0.339,0.839,0.515,1.39c0.512,1.602,0.91,2.323,1.548,2.803c1.447,1.086,3.455,0.303,4.42-1.726   c0.345-0.727,1.144-3.609,1.519-5.474c0.307-1.531,0.367-2.064,0.494-4.356c0.131-2.321,0.379-3.215,1.08-3.879   c0.528-0.5,1.076-0.723,1.622-0.659C85.086,35.202,85.182,35.216,85.185,35.219L85.185,35.219z"
       id="path13" /><path
       fill="#52AE32"
       d="M48.331,45.696c-0.269,0.087-0.507,0.273-0.642,0.499c-0.125,0.213-0.176,0.516-0.617,3.667   c-0.265,1.889-0.482,3.503-0.482,3.588c0,0.231,0.224,0.666,0.418,0.81c0.488,0.364,1.112,0.315,1.519-0.119   c0.229-0.243,0.259-0.345,0.406-1.37c0.072-0.5,0.136-0.914,0.145-0.924c0.01-0.01,0.191,0.332,0.406,0.765   c3.171,6.354,9.12,10.854,16.143,12.211c1.487,0.288,2.275,0.358,4.083,0.362l1.673,0.005l0.244-0.145   c0.135-0.079,0.31-0.24,0.387-0.357c0.123-0.186,0.142-0.266,0.142-0.611c0-0.359-0.015-0.416-0.157-0.619   c-0.085-0.12-0.264-0.283-0.386-0.354c-0.225-0.125-0.25-0.128-1.157-0.111c-6.827,0.116-13.021-2.868-17.016-8.203   c-1.686-2.25-2.826-4.675-3.524-7.496c-0.238-0.964-0.306-1.14-0.501-1.318C49.131,45.721,48.644,45.596,48.331,45.696   L48.331,45.696z"
       id="path15" /></g></svg>