<?xml version='1.0' encoding='UTF-8' standalone='no'?>
<svg baseProfile="tiny" xmlns:xlink="http://www.w3.org/1999/xlink" height="250mm" version="1.2" xmlns="http://www.w3.org/2000/svg" viewBox="0 0 2500 2500" width="250mm">
 <title>Qt SVG Document</title>
 <desc>Generated with Qt</desc>
 <defs/>
 <g stroke="black" stroke-linejoin="bevel" fill="none" fill-rule="evenodd" stroke-linecap="square" stroke-width="1">
  <g font-style="normal" stroke-opacity="1" font-weight="400" stroke="#000000" transform="matrix(1,0,0,1,0,0)" stroke-linejoin="bevel" font-size="38.8056" fill="none" stroke-linecap="square" font-family="Ubuntu" stroke-width="1"/>
  <g font-style="normal" stroke-opacity="1" font-weight="400" stroke="#000000" transform="matrix(1,0,0,1,0,0)" stroke-linejoin="bevel" font-size="38.8056" fill="none" stroke-linecap="square" font-family="Ubuntu" stroke-width="1"/>
  <g font-style="normal" stroke-opacity="1" font-weight="400" stroke="#000000" transform="matrix(10,0,0,10,0,0)" stroke-linejoin="bevel" font-size="38.8056" fill="none" stroke-linecap="square" font-family="Ubuntu" stroke-width="1"/>
  <g font-style="normal" stroke-opacity="1" font-weight="400" stroke="#000000" transform="matrix(1,0,0,1,0,0)" stroke-linejoin="bevel" font-size="38.8056" fill="none" stroke-linecap="square" font-family="Ubuntu" stroke-width="1"/>
  <g font-style="normal" font-weight="400" stroke="none" transform="matrix(1,0,0,1,0,0)" font-size="38.8056" fill="#ffffff" font-family="Ubuntu" fill-opacity="1">
   <path fill-rule="evenodd" vector-effect="none" d="M-2,-2 L2502,-2 L2502,2502 L-2,2502 L-2,-2"/>
  </g>
  <g font-style="normal" stroke-opacity="1" font-weight="400" stroke="#000000" transform="matrix(1,0,0,1,0,0)" stroke-linejoin="bevel" font-size="38.8056" fill="none" stroke-linecap="square" font-family="Ubuntu" stroke-width="1"/>
  <g font-style="normal" stroke-opacity="1" font-weight="400" stroke="#000000" transform="matrix(10,0,0,10,0,0)" stroke-linejoin="bevel" font-size="38.8056" fill="none" stroke-linecap="square" font-family="Ubuntu" stroke-width="1"/>
  <g font-style="normal" stroke-opacity="1" font-weight="400" stroke="#000000" transform="matrix(10,0,0,10,0,0)" stroke-linejoin="bevel" font-size="38.8056" fill="none" stroke-linecap="square" font-family="Ubuntu" stroke-width="1"/>
  <g font-style="normal" stroke-opacity="1" font-weight="400" stroke="#000000" transform="matrix(10,0,0,10,0,0)" stroke-linejoin="bevel" font-size="38.8056" fill="none" stroke-linecap="square" font-family="Ubuntu" stroke-width="1"/>
  <g font-style="normal" stroke-opacity="1" font-weight="400" stroke="#000000" transform="matrix(10,0,0,10,0,0)" stroke-linejoin="bevel" font-size="38.8056" fill="none" stroke-linecap="square" font-family="Ubuntu" stroke-width="1"/>
  <g font-style="normal" stroke-opacity="1" font-weight="400" stroke="#000000" transform="matrix(10,0,0,10,0,0)" stroke-linejoin="bevel" font-size="38.8056" fill="none" stroke-linecap="square" font-family="Ubuntu" stroke-width="1"/>
  <g font-style="normal" font-weight="400" stroke="none" transform="matrix(10,0,0,10,0,0)" font-size="38.8056" fill="#ffffff" font-family="Ubuntu" fill-opacity="1">
   <rect x="0" height="250" y="0" width="250"/>
  </g>
  <g font-style="normal" stroke-opacity="1" font-weight="400" stroke="#000000" transform="matrix(10,0,0,10,0,0)" stroke-linejoin="bevel" font-size="38.8056" fill="none" stroke-linecap="square" font-family="Ubuntu" stroke-width="1"/>
  <g font-style="normal" stroke-opacity="1" font-weight="400" stroke="#000000" transform="matrix(10,0,0,10,0,0)" stroke-linejoin="bevel" font-size="38.8056" fill="none" stroke-linecap="square" font-family="Ubuntu" stroke-width="1"/>
  <g font-style="normal" font-weight="400" stroke="none" transform="matrix(1,0,0,1,0,0)" font-size="38.8056" fill="#000000" font-family="Ubuntu" fill-opacity="0">
   <rect x="0" height="2500" y="0" width="2500"/>
  </g>
  <g font-style="normal" stroke-opacity="1" font-weight="400" stroke="#becf50" transform="matrix(1,0,0,1,0,0)" stroke-linejoin="bevel" font-size="38.8056" fill="none" stroke-linecap="square" font-family="Ubuntu" stroke-width="20">
   <path fill-rule="evenodd" vector-effect="none" d="M1250,1250 L1250,1000"/>
  </g>
  <g font-style="normal" stroke-opacity="1" font-weight="400" stroke="#232323" transform="matrix(1,0,0,1,0,0)" stroke-linejoin="bevel" font-size="38.8056" fill="#e8718d" stroke-linecap="square" font-family="Ubuntu" stroke-width="20" fill-opacity="1">
   <path fill-rule="evenodd" vector-effect="none" d="M1250,937.508 L1251.08,937.517 L1252.17,937.546 L1253.25,937.593 L1254.33,937.658 L1255.42,937.743 L1256.5,937.847 L1257.57,937.969 L1258.65,938.109 L1259.72,938.269 L1260.79,938.447 L1261.86,938.644 L1262.92,938.859 L1263.98,939.092 L1265.04,939.344 L1266.09,939.614 L1267.13,939.903 L1268.17,940.209 L1269.21,940.533 L1270.24,940.876 L1271.26,941.236 L1272.28,941.614 L1273.29,942.009 L1274.29,942.422 L1275.29,942.853 L1276.28,943.3 L1277.26,943.765 L1278.23,944.246 L1279.19,944.745 L1280.15,945.26 L1281.09,945.791 L1282.03,946.339 L1282.96,946.903 L1283.87,947.483 L1284.78,948.079 L1285.67,948.69 L1286.56,949.317 L1287.43,949.959 L1288.3,950.617 L1289.15,951.289 L1289.99,951.976 L1290.82,952.677 L1291.63,953.392 L1292.43,954.122 L1293.22,954.865 L1294,955.622 L1294.76,956.393 L1295.51,957.176 L1296.25,957.973 L1296.97,958.782 L1297.68,959.603 L1298.38,960.437 L1299.06,961.283 L1299.72,962.14 L1300.37,963.009 L1301,963.888 L1301.62,964.779 L1302.23,965.68 L1302.82,966.592 L1303.39,967.514 L1303.94,968.445 L1304.48,969.386 L1305.01,970.337 L1305.51,971.296 L1306,972.264 L1306.48,973.24 L1306.93,974.224 L1307.37,975.216 L1307.79,976.216 L1308.2,977.222 L1308.58,978.236 L1308.95,979.256 L1309.3,980.282 L1309.64,981.314 L1309.95,982.352 L1310.25,983.396 L1310.53,984.444 L1310.79,985.497 L1311.03,986.554 L1311.26,987.615 L1311.46,988.68 L1311.65,989.749 L1311.82,990.821 L1311.97,991.895 L1312.1,992.972 L1312.21,994.051 L1312.31,995.131 L1312.38,996.213 L1312.44,997.297 L1312.48,998.381 L1312.5,999.466 L1312.5,1000.55 L1312.48,1001.63 L1312.44,1002.72 L1312.38,1003.8 L1312.31,1004.88 L1312.21,1005.97 L1312.1,1007.04 L1311.97,1008.12 L1311.82,1009.2 L1311.65,1010.27 L1311.46,1011.34 L1311.26,1012.4 L1311.03,1013.46 L1310.79,1014.52 L1310.53,1015.57 L1310.25,1016.62 L1309.95,1017.66 L1309.64,1018.7 L1309.3,1019.73 L1308.95,1020.76 L1308.58,1021.78 L1308.2,1022.79 L1307.79,1023.8 L1307.37,1024.8 L1306.93,1025.79 L1306.48,1026.78 L1306,1027.75 L1305.51,1028.72 L1305.01,1029.68 L1304.48,1030.63 L1303.94,1031.57 L1303.39,1032.5 L1302.82,1033.42 L1302.23,1034.34 L1301.62,1035.24 L1301,1036.13 L1300.37,1037.01 L1299.72,1037.88 L1299.06,1038.73 L1298.38,1039.58 L1297.68,1040.41 L1296.97,1041.23 L1296.25,1042.04 L1295.51,1042.84 L1294.76,1043.62 L1294,1044.39 L1293.22,1045.15 L1292.43,1045.89 L1291.63,1046.62 L1290.82,1047.34 L1289.99,1048.04 L1289.15,1048.73 L1288.3,1049.4 L1287.43,1050.06 L1286.56,1050.7 L1285.67,1051.33 L1284.78,1051.94 L1283.87,1052.53 L1282.96,1053.11 L1282.03,1053.68 L1281.09,1054.22 L1280.15,1054.76 L1279.19,1055.27 L1278.23,1055.77 L1277.26,1056.25 L1276.28,1056.72 L1275.29,1057.16 L1274.29,1057.59 L1273.29,1058.01 L1272.28,1058.4 L1271.26,1058.78 L1270.24,1059.14 L1269.21,1059.48 L1268.17,1059.81 L1267.13,1060.11 L1266.09,1060.4 L1265.04,1060.67 L1263.98,1060.92 L1262.92,1061.16 L1261.86,1061.37 L1260.79,1061.57 L1259.72,1061.75 L1258.65,1061.91 L1257.57,1062.05 L1256.5,1062.17 L1255.42,1062.27 L1254.33,1062.36 L1253.25,1062.42 L1252.17,1062.47 L1251.08,1062.5 L1250,1062.51 L1248.91,1062.5 L1247.83,1062.47 L1246.75,1062.42 L1245.66,1062.36 L1244.58,1062.27 L1243.5,1062.17 L1242.42,1062.05 L1241.35,1061.91 L1240.28,1061.75 L1239.21,1061.57 L1238.14,1061.37 L1237.08,1061.16 L1236.02,1060.92 L1234.96,1060.67 L1233.91,1060.4 L1232.86,1060.11 L1231.82,1059.81 L1230.79,1059.48 L1229.76,1059.14 L1228.74,1058.78 L1227.72,1058.4 L1226.71,1058.01 L1225.71,1057.59 L1224.71,1057.16 L1223.72,1056.72 L1222.74,1056.25 L1221.77,1055.77 L1220.81,1055.27 L1219.85,1054.76 L1218.91,1054.22 L1217.97,1053.68 L1217.04,1053.11 L1216.13,1052.53 L1215.22,1051.94 L1214.32,1051.33 L1213.44,1050.7 L1212.56,1050.06 L1211.7,1049.4 L1210.85,1048.73 L1210.01,1048.04 L1209.18,1047.34 L1208.37,1046.62 L1207.56,1045.89 L1206.77,1045.15 L1206,1044.39 L1205.23,1043.62 L1204.48,1042.84 L1203.75,1042.04 L1203.02,1041.23 L1202.32,1040.41 L1201.62,1039.58 L1200.94,1038.73 L1200.28,1037.88 L1199.63,1037.01 L1198.99,1036.13 L1198.37,1035.24 L1197.77,1034.34 L1197.18,1033.42 L1196.61,1032.5 L1196.05,1031.57 L1195.51,1030.63 L1194.99,1029.68 L1194.48,1028.72 L1193.99,1027.75 L1193.52,1026.78 L1193.07,1025.79 L1192.63,1024.8 L1192.2,1023.8 L1191.8,1022.79 L1191.41,1021.78 L1191.04,1020.76 L1190.69,1019.73 L1190.36,1018.7 L1190.04,1017.66 L1189.75,1016.62 L1189.47,1015.57 L1189.21,1014.52 L1188.96,1013.46 L1188.74,1012.4 L1188.53,1011.34 L1188.35,1010.27 L1188.18,1009.2 L1188.03,1008.12 L1187.9,1007.04 L1187.78,1005.97 L1187.69,1004.88 L1187.61,1003.8 L1187.56,1002.72 L1187.52,1001.63 L1187.5,1000.55 L1187.5,999.466 L1187.52,998.381 L1187.56,997.297 L1187.61,996.213 L1187.69,995.131 L1187.78,994.051 L1187.9,992.972 L1188.03,991.895 L1188.18,990.821 L1188.35,989.749 L1188.53,988.68 L1188.74,987.615 L1188.96,986.554 L1189.21,985.497 L1189.47,984.444 L1189.75,983.396 L1190.04,982.352 L1190.36,981.314 L1190.69,980.282 L1191.04,979.256 L1191.41,978.236 L1191.8,977.222 L1192.2,976.216 L1192.63,975.216 L1193.07,974.224 L1193.52,973.24 L1193.99,972.264 L1194.48,971.296 L1194.99,970.337 L1195.51,969.386 L1196.05,968.445 L1196.61,967.514 L1197.18,966.592 L1197.77,965.68 L1198.37,964.779 L1198.99,963.888 L1199.63,963.009 L1200.28,962.14 L1200.94,961.283 L1201.62,960.437 L1202.32,959.603 L1203.02,958.782 L1203.75,957.973 L1204.48,957.176 L1205.23,956.393 L1206,955.622 L1206.77,954.865 L1207.56,954.122 L1208.37,953.392 L1209.18,952.677 L1210.01,951.976 L1210.85,951.289 L1211.7,950.617 L1212.56,949.959 L1213.44,949.317 L1214.32,948.69 L1215.22,948.079 L1216.13,947.483 L1217.04,946.903 L1217.97,946.339 L1218.91,945.791 L1219.85,945.26 L1220.81,944.745 L1221.77,944.246 L1222.74,943.765 L1223.72,943.3 L1224.71,942.853 L1225.71,942.422 L1226.71,942.009 L1227.72,941.614 L1228.74,941.236 L1229.76,940.876 L1230.79,940.533 L1231.82,940.209 L1232.86,939.903 L1233.91,939.614 L1234.96,939.344 L1236.02,939.092 L1237.08,938.859 L1238.14,938.644 L1239.21,938.447 L1240.28,938.269 L1241.35,938.109 L1242.42,937.969 L1243.5,937.847 L1244.58,937.743 L1245.66,937.658 L1246.75,937.593 L1247.83,937.546 L1248.91,937.517 L1250,937.508"/>
   <path fill-rule="evenodd" vector-effect="none" d="M1250,687.508 L1251.08,687.517 L1252.17,687.546 L1253.25,687.593 L1254.33,687.658 L1255.42,687.743 L1256.5,687.847 L1257.57,687.969 L1258.65,688.109 L1259.72,688.269 L1260.79,688.447 L1261.86,688.644 L1262.92,688.859 L1263.98,689.092 L1265.04,689.344 L1266.09,689.614 L1267.13,689.903 L1268.17,690.209 L1269.21,690.533 L1270.24,690.876 L1271.26,691.236 L1272.28,691.614 L1273.29,692.009 L1274.29,692.422 L1275.29,692.853 L1276.28,693.3 L1277.26,693.765 L1278.23,694.246 L1279.19,694.745 L1280.15,695.26 L1281.09,695.791 L1282.03,696.339 L1282.96,696.903 L1283.87,697.483 L1284.78,698.079 L1285.67,698.69 L1286.56,699.317 L1287.43,699.959 L1288.3,700.617 L1289.15,701.289 L1289.99,701.976 L1290.82,702.677 L1291.63,703.392 L1292.43,704.122 L1293.22,704.865 L1294,705.622 L1294.76,706.393 L1295.51,707.176 L1296.25,707.973 L1296.97,708.782 L1297.68,709.603 L1298.38,710.437 L1299.06,711.283 L1299.72,712.14 L1300.37,713.009 L1301,713.888 L1301.62,714.779 L1302.23,715.68 L1302.82,716.592 L1303.39,717.514 L1303.94,718.445 L1304.48,719.386 L1305.01,720.337 L1305.51,721.296 L1306,722.264 L1306.48,723.24 L1306.93,724.224 L1307.37,725.216 L1307.79,726.216 L1308.2,727.222 L1308.58,728.236 L1308.95,729.256 L1309.3,730.282 L1309.64,731.314 L1309.95,732.352 L1310.25,733.396 L1310.53,734.444 L1310.79,735.497 L1311.03,736.554 L1311.26,737.615 L1311.46,738.68 L1311.65,739.749 L1311.82,740.821 L1311.97,741.895 L1312.1,742.972 L1312.21,744.051 L1312.31,745.131 L1312.38,746.213 L1312.44,747.297 L1312.48,748.381 L1312.5,749.466 L1312.5,750.55 L1312.48,751.635 L1312.44,752.719 L1312.38,753.802 L1312.31,754.885 L1312.21,755.965 L1312.1,757.044 L1311.97,758.121 L1311.82,759.195 L1311.65,760.267 L1311.46,761.335 L1311.26,762.401 L1311.03,763.462 L1310.79,764.519 L1310.53,765.572 L1310.25,766.62 L1309.95,767.664 L1309.64,768.701 L1309.3,769.734 L1308.95,770.76 L1308.58,771.78 L1308.2,772.794 L1307.79,773.8 L1307.37,774.8 L1306.93,775.792 L1306.48,776.776 L1306,777.752 L1305.51,778.72 L1305.01,779.679 L1304.48,780.63 L1303.94,781.571 L1303.39,782.502 L1302.82,783.424 L1302.23,784.335 L1301.62,785.237 L1301,786.127 L1300.37,787.007 L1299.72,787.876 L1299.06,788.733 L1298.38,789.579 L1297.68,790.413 L1296.97,791.234 L1296.25,792.043 L1295.51,792.84 L1294.76,793.623 L1294,794.393 L1293.22,795.15 L1292.43,795.894 L1291.63,796.623 L1290.82,797.339 L1289.99,798.04 L1289.15,798.727 L1288.3,799.399 L1287.43,800.057 L1286.56,800.699 L1285.67,801.326 L1284.78,801.937 L1283.87,802.533 L1282.96,803.113 L1282.03,803.677 L1281.09,804.225 L1280.15,804.756 L1279.19,805.271 L1278.23,805.77 L1277.26,806.251 L1276.28,806.716 L1275.29,807.163 L1274.29,807.594 L1273.29,808.006 L1272.28,808.402 L1271.26,808.78 L1270.24,809.14 L1269.21,809.482 L1268.17,809.807 L1267.13,810.113 L1266.09,810.402 L1265.04,810.672 L1263.98,810.924 L1262.92,811.157 L1261.86,811.372 L1260.79,811.569 L1259.72,811.747 L1258.65,811.906 L1257.57,812.047 L1256.5,812.169 L1255.42,812.273 L1254.33,812.357 L1253.25,812.423 L1252.17,812.47 L1251.08,812.499 L1250,812.508 L1248.91,812.499 L1247.83,812.47 L1246.75,812.423 L1245.66,812.357 L1244.58,812.273 L1243.5,812.169 L1242.42,812.047 L1241.35,811.906 L1240.28,811.747 L1239.21,811.569 L1238.14,811.372 L1237.08,811.157 L1236.02,810.924 L1234.96,810.672 L1233.91,810.402 L1232.86,810.113 L1231.82,809.807 L1230.79,809.482 L1229.76,809.14 L1228.74,808.78 L1227.72,808.402 L1226.71,808.006 L1225.71,807.594 L1224.71,807.163 L1223.72,806.716 L1222.74,806.251 L1221.77,805.77 L1220.81,805.271 L1219.85,804.756 L1218.91,804.225 L1217.97,803.677 L1217.04,803.113 L1216.13,802.533 L1215.22,801.937 L1214.32,801.326 L1213.44,800.699 L1212.56,800.057 L1211.7,799.399 L1210.85,798.727 L1210.01,798.04 L1209.18,797.339 L1208.37,796.623 L1207.56,795.894 L1206.77,795.15 L1206,794.393 L1205.23,793.623 L1204.48,792.84 L1203.75,792.043 L1203.02,791.234 L1202.32,790.413 L1201.62,789.579 L1200.94,788.733 L1200.28,787.876 L1199.63,787.007 L1198.99,786.127 L1198.37,785.237 L1197.77,784.335 L1197.18,783.424 L1196.61,782.502 L1196.05,781.571 L1195.51,780.63 L1194.99,779.679 L1194.48,778.72 L1193.99,777.752 L1193.52,776.776 L1193.07,775.792 L1192.63,774.8 L1192.2,773.8 L1191.8,772.794 L1191.41,771.78 L1191.04,770.76 L1190.69,769.734 L1190.36,768.701 L1190.04,767.664 L1189.75,766.62 L1189.47,765.572 L1189.21,764.519 L1188.96,763.462 L1188.74,762.4 L1188.53,761.335 L1188.35,760.267 L1188.18,759.195 L1188.03,758.121 L1187.9,757.044 L1187.78,755.965 L1187.69,754.885 L1187.61,753.802 L1187.56,752.719 L1187.52,751.635 L1187.5,750.55 L1187.5,749.466 L1187.52,748.381 L1187.56,747.297 L1187.61,746.213 L1187.69,745.131 L1187.78,744.051 L1187.9,742.972 L1188.03,741.895 L1188.18,740.821 L1188.35,739.749 L1188.53,738.68 L1188.74,737.615 L1188.96,736.554 L1189.21,735.497 L1189.47,734.444 L1189.75,733.396 L1190.04,732.352 L1190.36,731.314 L1190.69,730.282 L1191.04,729.256 L1191.41,728.236 L1191.8,727.222 L1192.2,726.216 L1192.63,725.216 L1193.07,724.224 L1193.52,723.24 L1193.99,722.264 L1194.48,721.296 L1194.99,720.337 L1195.51,719.386 L1196.05,718.445 L1196.61,717.514 L1197.18,716.592 L1197.77,715.68 L1198.37,714.779 L1198.99,713.888 L1199.63,713.009 L1200.28,712.14 L1200.94,711.283 L1201.62,710.437 L1202.32,709.603 L1203.02,708.782 L1203.75,707.973 L1204.48,707.176 L1205.23,706.393 L1206,705.622 L1206.77,704.865 L1207.56,704.122 L1208.37,703.392 L1209.18,702.677 L1210.01,701.976 L1210.85,701.289 L1211.7,700.617 L1212.56,699.959 L1213.44,699.317 L1214.32,698.69 L1215.22,698.079 L1216.13,697.483 L1217.04,696.903 L1217.97,696.339 L1218.91,695.791 L1219.85,695.26 L1220.81,694.745 L1221.77,694.246 L1222.74,693.765 L1223.72,693.3 L1224.71,692.853 L1225.71,692.422 L1226.71,692.009 L1227.72,691.614 L1228.74,691.236 L1229.76,690.876 L1230.79,690.533 L1231.82,690.209 L1232.86,689.903 L1233.91,689.614 L1234.96,689.344 L1236.02,689.092 L1237.08,688.859 L1238.14,688.644 L1239.21,688.447 L1240.28,688.269 L1241.35,688.109 L1242.42,687.969 L1243.5,687.847 L1244.58,687.743 L1245.66,687.658 L1246.75,687.593 L1247.83,687.546 L1248.91,687.517 L1250,687.508"/>
   <path fill-rule="evenodd" vector-effect="none" d="M1250,812.531 L1251.08,812.54 L1252.17,812.568 L1253.25,812.615 L1254.33,812.681 L1255.42,812.766 L1256.5,812.869 L1257.57,812.991 L1258.65,813.132 L1259.72,813.292 L1260.79,813.47 L1261.86,813.666 L1262.92,813.882 L1263.98,814.115 L1265.04,814.367 L1266.09,814.637 L1267.13,814.925 L1268.17,815.232 L1269.21,815.556 L1270.24,815.899 L1271.26,816.259 L1272.28,816.637 L1273.29,817.032 L1274.29,817.445 L1275.29,817.875 L1276.28,818.323 L1277.26,818.788 L1278.23,819.269 L1279.19,819.767 L1280.15,820.282 L1281.09,820.814 L1282.03,821.362 L1282.96,821.926 L1283.87,822.506 L1284.78,823.102 L1285.67,823.713 L1286.56,824.34 L1287.43,824.982 L1288.3,825.639 L1289.15,826.312 L1289.99,826.998 L1290.82,827.7 L1291.63,828.415 L1292.43,829.145 L1293.22,829.888 L1294,830.645 L1294.76,831.416 L1295.51,832.199 L1296.25,832.996 L1296.97,833.805 L1297.68,834.626 L1298.38,835.46 L1299.06,836.305 L1299.72,837.163 L1300.37,838.031 L1301,838.911 L1301.62,839.802 L1302.23,840.703 L1302.82,841.615 L1303.39,842.537 L1303.94,843.468 L1304.48,844.409 L1305.01,845.359 L1305.51,846.319 L1306,847.286 L1306.48,848.263 L1306.93,849.247 L1307.37,850.239 L1307.79,851.238 L1308.2,852.245 L1308.58,853.259 L1308.95,854.279 L1309.3,855.305 L1309.64,856.337 L1309.95,857.375 L1310.25,858.418 L1310.53,859.467 L1310.79,860.52 L1311.03,861.577 L1311.26,862.638 L1311.46,863.703 L1311.65,864.772 L1311.82,865.843 L1311.97,866.918 L1312.1,867.994 L1312.21,869.073 L1312.31,870.154 L1312.38,871.236 L1312.44,872.32 L1312.48,873.404 L1312.5,874.488 L1312.5,875.573 L1312.48,876.658 L1312.44,877.742 L1312.38,878.825 L1312.31,879.907 L1312.21,880.988 L1312.1,882.067 L1311.97,883.144 L1311.82,884.218 L1311.65,885.29 L1311.46,886.358 L1311.26,887.423 L1311.03,888.485 L1310.79,889.542 L1310.53,890.595 L1310.25,891.643 L1309.95,892.686 L1309.64,893.724 L1309.3,894.756 L1308.95,895.783 L1308.58,896.803 L1308.2,897.816 L1307.79,898.823 L1307.37,899.823 L1306.93,900.815 L1306.48,901.799 L1306,902.775 L1305.51,903.743 L1305.01,904.702 L1304.48,905.652 L1303.94,906.593 L1303.39,907.525 L1302.82,908.447 L1302.23,909.358 L1301.62,910.26 L1301,911.15 L1300.37,912.03 L1299.72,912.899 L1299.06,913.756 L1298.38,914.602 L1297.68,915.435 L1296.97,916.257 L1296.25,917.066 L1295.51,917.862 L1294.76,918.646 L1294,919.416 L1293.22,920.173 L1292.43,920.917 L1291.63,921.646 L1290.82,922.362 L1289.99,923.063 L1289.15,923.75 L1288.3,924.422 L1287.43,925.079 L1286.56,925.722 L1285.67,926.348 L1284.78,926.96 L1283.87,927.556 L1282.96,928.136 L1282.03,928.7 L1281.09,929.247 L1280.15,929.779 L1279.19,930.294 L1278.23,930.792 L1277.26,931.274 L1276.28,931.738 L1275.29,932.186 L1274.29,932.616 L1273.29,933.029 L1272.28,933.425 L1271.26,933.803 L1270.24,934.163 L1269.21,934.505 L1268.17,934.83 L1267.13,935.136 L1266.09,935.424 L1265.04,935.695 L1263.98,935.946 L1262.92,936.18 L1261.86,936.395 L1260.79,936.592 L1259.72,936.77 L1258.65,936.929 L1257.57,937.07 L1256.5,937.192 L1255.42,937.296 L1254.33,937.38 L1253.25,937.446 L1252.17,937.493 L1251.08,937.521 L1250,937.531 L1248.91,937.521 L1247.83,937.493 L1246.75,937.446 L1245.66,937.38 L1244.58,937.296 L1243.5,937.192 L1242.42,937.07 L1241.35,936.929 L1240.28,936.77 L1239.21,936.592 L1238.14,936.395 L1237.08,936.18 L1236.02,935.946 L1234.96,935.695 L1233.91,935.424 L1232.86,935.136 L1231.82,934.83 L1230.79,934.505 L1229.76,934.163 L1228.74,933.803 L1227.72,933.425 L1226.71,933.029 L1225.71,932.616 L1224.71,932.186 L1223.72,931.738 L1222.74,931.274 L1221.77,930.792 L1220.81,930.294 L1219.85,929.779 L1218.91,929.247 L1217.97,928.7 L1217.04,928.136 L1216.13,927.556 L1215.22,926.96 L1214.32,926.348 L1213.44,925.722 L1212.56,925.079 L1211.7,924.422 L1210.85,923.75 L1210.01,923.063 L1209.18,922.362 L1208.37,921.646 L1207.56,920.917 L1206.77,920.173 L1206,919.416 L1205.23,918.646 L1204.48,917.862 L1203.75,917.066 L1203.02,916.257 L1202.32,915.435 L1201.62,914.602 L1200.94,913.756 L1200.28,912.899 L1199.63,912.03 L1198.99,911.15 L1198.37,910.26 L1197.77,909.358 L1197.18,908.447 L1196.61,907.525 L1196.05,906.593 L1195.51,905.652 L1194.99,904.702 L1194.48,903.743 L1193.99,902.775 L1193.52,901.799 L1193.07,900.815 L1192.63,899.823 L1192.2,898.823 L1191.8,897.816 L1191.41,896.803 L1191.04,895.783 L1190.69,894.757 L1190.36,893.724 L1190.04,892.686 L1189.75,891.643 L1189.47,890.595 L1189.21,889.542 L1188.96,888.485 L1188.74,887.423 L1188.53,886.358 L1188.35,885.29 L1188.18,884.218 L1188.03,883.144 L1187.9,882.067 L1187.78,880.988 L1187.69,879.907 L1187.61,878.825 L1187.56,877.742 L1187.52,876.658 L1187.5,875.573 L1187.5,874.488 L1187.52,873.404 L1187.56,872.32 L1187.61,871.236 L1187.69,870.154 L1187.78,869.073 L1187.9,867.994 L1188.03,866.918 L1188.18,865.843 L1188.35,864.772 L1188.53,863.703 L1188.74,862.638 L1188.96,861.577 L1189.21,860.52 L1189.47,859.467 L1189.75,858.418 L1190.04,857.375 L1190.36,856.337 L1190.69,855.305 L1191.04,854.279 L1191.41,853.259 L1191.8,852.245 L1192.2,851.238 L1192.63,850.239 L1193.07,849.247 L1193.52,848.263 L1193.99,847.286 L1194.48,846.319 L1194.99,845.359 L1195.51,844.409 L1196.05,843.468 L1196.61,842.537 L1197.18,841.615 L1197.77,840.703 L1198.37,839.802 L1198.99,838.911 L1199.63,838.031 L1200.28,837.163 L1200.94,836.305 L1201.62,835.46 L1202.32,834.626 L1203.02,833.805 L1203.75,832.996 L1204.48,832.199 L1205.23,831.416 L1206,830.645 L1206.77,829.888 L1207.56,829.145 L1208.37,828.415 L1209.18,827.7 L1210.01,826.998 L1210.85,826.312 L1211.7,825.639 L1212.56,824.982 L1213.44,824.34 L1214.32,823.713 L1215.22,823.102 L1216.13,822.506 L1217.04,821.926 L1217.97,821.362 L1218.91,820.814 L1219.85,820.282 L1220.81,819.767 L1221.77,819.269 L1222.74,818.788 L1223.72,818.323 L1224.71,817.875 L1225.71,817.445 L1226.71,817.032 L1227.72,816.637 L1228.74,816.259 L1229.76,815.899 L1230.79,815.556 L1231.82,815.232 L1232.86,814.925 L1233.91,814.637 L1234.96,814.367 L1236.02,814.115 L1237.08,813.882 L1238.14,813.666 L1239.21,813.47 L1240.28,813.292 L1241.35,813.132 L1242.42,812.991 L1243.5,812.869 L1244.58,812.766 L1245.66,812.681 L1246.75,812.615 L1247.83,812.568 L1248.91,812.54 L1250,812.531"/>
   <path fill-rule="evenodd" vector-effect="none" d="M1250,828.16 L1250.81,828.167 L1251.63,828.188 L1252.44,828.223 L1253.25,828.273 L1254.06,828.336 L1254.87,828.414 L1255.68,828.505 L1256.49,828.611 L1257.29,828.73 L1258.09,828.864 L1258.89,829.011 L1259.69,829.173 L1260.49,829.348 L1261.28,829.537 L1262.06,829.739 L1262.85,829.956 L1263.63,830.185 L1264.41,830.429 L1265.18,830.686 L1265.95,830.956 L1266.71,831.239 L1267.47,831.536 L1268.22,831.846 L1268.96,832.168 L1269.71,832.504 L1270.44,832.852 L1271.17,833.213 L1271.89,833.587 L1272.61,833.973 L1273.32,834.372 L1274.02,834.783 L1274.72,835.206 L1275.4,835.641 L1276.08,836.088 L1276.75,836.546 L1277.42,837.017 L1278.07,837.498 L1278.72,837.991 L1279.36,838.495 L1279.99,839.01 L1280.61,839.536 L1281.22,840.073 L1281.82,840.62 L1282.42,841.178 L1283,841.746 L1283.57,842.323 L1284.14,842.911 L1284.69,843.508 L1285.23,844.115 L1285.76,844.731 L1286.28,845.356 L1286.79,845.991 L1287.29,846.634 L1287.78,847.285 L1288.25,847.945 L1288.72,848.613 L1289.17,849.289 L1289.61,849.973 L1290.04,850.664 L1290.46,851.363 L1290.86,852.068 L1291.25,852.781 L1291.63,853.501 L1292,854.226 L1292.36,854.959 L1292.7,855.697 L1293.03,856.441 L1293.34,857.19 L1293.65,857.945 L1293.94,858.706 L1294.21,859.471 L1294.48,860.24 L1294.73,861.015 L1294.96,861.793 L1295.19,862.575 L1295.4,863.362 L1295.59,864.151 L1295.77,864.944 L1295.94,865.74 L1296.1,866.539 L1296.24,867.34 L1296.36,868.144 L1296.48,868.95 L1296.58,869.757 L1296.66,870.567 L1296.73,871.377 L1296.79,872.189 L1296.83,873.001 L1296.86,873.814 L1296.87,874.628 L1296.87,875.441 L1296.86,876.255 L1296.83,877.068 L1296.79,877.881 L1296.73,878.692 L1296.66,879.503 L1296.58,880.312 L1296.48,881.119 L1296.36,881.925 L1296.24,882.729 L1296.1,883.53 L1295.94,884.329 L1295.77,885.125 L1295.59,885.918 L1295.4,886.708 L1295.19,887.494 L1294.96,888.276 L1294.73,889.055 L1294.48,889.829 L1294.21,890.599 L1293.94,891.364 L1293.65,892.124 L1293.34,892.879 L1293.03,893.629 L1292.7,894.373 L1292.36,895.111 L1292,895.843 L1291.63,896.569 L1291.25,897.288 L1290.86,898.001 L1290.46,898.707 L1290.04,899.405 L1289.61,900.097 L1289.17,900.78 L1288.72,901.456 L1288.25,902.124 L1287.78,902.784 L1287.29,903.436 L1286.79,904.079 L1286.28,904.713 L1285.76,905.338 L1285.23,905.954 L1284.69,906.561 L1284.14,907.158 L1283.57,907.746 L1283,908.324 L1282.42,908.892 L1281.82,909.449 L1281.22,909.996 L1280.61,910.533 L1279.99,911.059 L1279.36,911.574 L1278.72,912.078 L1278.07,912.571 L1277.42,913.053 L1276.75,913.523 L1276.08,913.982 L1275.4,914.428 L1274.72,914.863 L1274.02,915.286 L1273.32,915.697 L1272.61,916.096 L1271.89,916.482 L1271.17,916.856 L1270.44,917.217 L1269.71,917.565 L1268.96,917.901 L1268.22,918.224 L1267.47,918.534 L1266.71,918.83 L1265.95,919.114 L1265.18,919.384 L1264.41,919.641 L1263.63,919.884 L1262.85,920.114 L1262.06,920.33 L1261.28,920.533 L1260.49,920.721 L1259.69,920.897 L1258.89,921.058 L1258.09,921.205 L1257.29,921.339 L1256.49,921.459 L1255.68,921.564 L1254.87,921.656 L1254.06,921.733 L1253.25,921.797 L1252.44,921.846 L1251.63,921.881 L1250.81,921.903 L1250,921.91 L1249.18,921.903 L1248.37,921.881 L1247.56,921.846 L1246.75,921.797 L1245.94,921.733 L1245.13,921.656 L1244.32,921.564 L1243.51,921.459 L1242.71,921.339 L1241.9,921.205 L1241.1,921.058 L1240.31,920.897 L1239.51,920.721 L1238.72,920.533 L1237.93,920.33 L1237.15,920.114 L1236.37,919.884 L1235.59,919.641 L1234.82,919.384 L1234.05,919.114 L1233.29,918.83 L1232.53,918.534 L1231.78,918.224 L1231.03,917.901 L1230.29,917.565 L1229.56,917.217 L1228.83,916.856 L1228.1,916.482 L1227.39,916.096 L1226.68,915.697 L1225.98,915.286 L1225.28,914.863 L1224.59,914.428 L1223.91,913.982 L1223.24,913.523 L1222.58,913.053 L1221.92,912.571 L1221.27,912.078 L1220.64,911.574 L1220.01,911.059 L1219.39,910.533 L1218.77,909.996 L1218.17,909.449 L1217.58,908.892 L1217,908.324 L1216.42,907.746 L1215.86,907.158 L1215.31,906.561 L1214.77,905.954 L1214.24,905.338 L1213.72,904.713 L1213.21,904.079 L1212.71,903.436 L1212.22,902.784 L1211.74,902.124 L1211.28,901.456 L1210.83,900.78 L1210.39,900.097 L1209.96,899.405 L1209.54,898.707 L1209.13,898.001 L1208.74,897.288 L1208.36,896.569 L1207.99,895.843 L1207.64,895.111 L1207.3,894.373 L1206.97,893.629 L1206.65,892.879 L1206.35,892.124 L1206.06,891.364 L1205.78,890.599 L1205.52,889.829 L1205.27,889.055 L1205.03,888.276 L1204.81,887.494 L1204.6,886.708 L1204.4,885.918 L1204.22,885.125 L1204.05,884.329 L1203.9,883.53 L1203.76,882.729 L1203.63,881.925 L1203.52,881.119 L1203.42,880.312 L1203.34,879.503 L1203.27,878.692 L1203.21,877.881 L1203.17,877.068 L1203.14,876.255 L1203.12,875.441 L1203.12,874.628 L1203.14,873.814 L1203.17,873.001 L1203.21,872.189 L1203.27,871.377 L1203.34,870.567 L1203.42,869.757 L1203.52,868.95 L1203.63,868.144 L1203.76,867.34 L1203.9,866.539 L1204.05,865.74 L1204.22,864.944 L1204.4,864.151 L1204.6,863.362 L1204.81,862.575 L1205.03,861.793 L1205.27,861.015 L1205.52,860.24 L1205.78,859.471 L1206.06,858.706 L1206.35,857.945 L1206.65,857.19 L1206.97,856.441 L1207.3,855.697 L1207.64,854.959 L1207.99,854.226 L1208.36,853.501 L1208.74,852.781 L1209.13,852.068 L1209.54,851.363 L1209.96,850.664 L1210.39,849.973 L1210.83,849.289 L1211.28,848.613 L1211.74,847.945 L1212.22,847.285 L1212.71,846.634 L1213.21,845.991 L1213.72,845.357 L1214.24,844.731 L1214.77,844.115 L1215.31,843.508 L1215.86,842.911 L1216.42,842.323 L1217,841.746 L1217.58,841.178 L1218.17,840.62 L1218.77,840.073 L1219.39,839.536 L1220.01,839.01 L1220.64,838.495 L1221.27,837.991 L1221.92,837.498 L1222.58,837.017 L1223.24,836.546 L1223.91,836.088 L1224.59,835.641 L1225.28,835.206 L1225.98,834.783 L1226.68,834.372 L1227.39,833.973 L1228.1,833.587 L1228.83,833.213 L1229.56,832.852 L1230.29,832.504 L1231.03,832.168 L1231.78,831.846 L1232.53,831.536 L1233.29,831.239 L1234.05,830.956 L1234.82,830.686 L1235.59,830.429 L1236.37,830.185 L1237.15,829.956 L1237.93,829.739 L1238.72,829.537 L1239.51,829.348 L1240.31,829.173 L1241.1,829.011 L1241.9,828.864 L1242.71,828.73 L1243.51,828.611 L1244.32,828.505 L1245.13,828.414 L1245.94,828.336 L1246.75,828.273 L1247.56,828.223 L1248.37,828.188 L1249.18,828.167 L1250,828.16"/>
   <path fill-rule="evenodd" vector-effect="none" d="M1250,703.137 L1250.81,703.144 L1251.63,703.165 L1252.44,703.2 L1253.25,703.25 L1254.06,703.313 L1254.87,703.391 L1255.68,703.482 L1256.49,703.588 L1257.29,703.708 L1258.09,703.841 L1258.89,703.989 L1259.69,704.15 L1260.49,704.325 L1261.28,704.514 L1262.06,704.717 L1262.85,704.933 L1263.63,705.163 L1264.41,705.406 L1265.18,705.663 L1265.95,705.933 L1266.71,706.216 L1267.47,706.513 L1268.22,706.823 L1268.96,707.145 L1269.71,707.481 L1270.44,707.83 L1271.17,708.191 L1271.89,708.564 L1272.61,708.951 L1273.32,709.349 L1274.02,709.76 L1274.72,710.183 L1275.4,710.618 L1276.08,711.065 L1276.75,711.524 L1277.42,711.994 L1278.07,712.475 L1278.72,712.968 L1279.36,713.472 L1279.99,713.988 L1280.61,714.514 L1281.22,715.05 L1281.82,715.597 L1282.42,716.155 L1283,716.723 L1283.57,717.301 L1284.14,717.888 L1284.69,718.485 L1285.23,719.092 L1285.76,719.708 L1286.28,720.334 L1286.79,720.968 L1287.29,721.611 L1287.78,722.262 L1288.25,722.922 L1288.72,723.59 L1289.17,724.266 L1289.61,724.95 L1290.04,725.641 L1290.46,726.34 L1290.86,727.046 L1291.25,727.758 L1291.63,728.478 L1292,729.204 L1292.36,729.936 L1292.7,730.674 L1293.03,731.418 L1293.34,732.168 L1293.65,732.923 L1293.94,733.683 L1294.21,734.448 L1294.48,735.218 L1294.73,735.992 L1294.96,736.77 L1295.19,737.553 L1295.4,738.339 L1295.59,739.128 L1295.77,739.921 L1295.94,740.717 L1296.1,741.516 L1296.24,742.318 L1296.36,743.121 L1296.48,743.927 L1296.58,744.735 L1296.66,745.544 L1296.73,746.354 L1296.79,747.166 L1296.83,747.979 L1296.86,748.792 L1296.87,749.605 L1296.87,750.419 L1296.86,751.232 L1296.83,752.045 L1296.79,752.858 L1296.73,753.669 L1296.66,754.48 L1296.58,755.289 L1296.48,756.097 L1296.36,756.902 L1296.24,757.706 L1296.1,758.508 L1295.94,759.306 L1295.77,760.102 L1295.59,760.895 L1295.4,761.685 L1295.19,762.471 L1294.96,763.254 L1294.73,764.032 L1294.48,764.806 L1294.21,765.576 L1293.94,766.341 L1293.65,767.101 L1293.34,767.856 L1293.03,768.606 L1292.7,769.35 L1292.36,770.088 L1292,770.82 L1291.63,771.546 L1291.25,772.265 L1290.86,772.978 L1290.46,773.684 L1290.04,774.382 L1289.61,775.074 L1289.17,775.758 L1288.72,776.434 L1288.25,777.102 L1287.78,777.761 L1287.29,778.413 L1286.79,779.056 L1286.28,779.69 L1285.76,780.315 L1285.23,780.931 L1284.69,781.538 L1284.14,782.136 L1283.57,782.723 L1283,783.301 L1282.42,783.869 L1281.82,784.426 L1281.22,784.974 L1280.61,785.51 L1279.99,786.036 L1279.36,786.551 L1278.72,787.055 L1278.07,787.548 L1277.42,788.03 L1276.75,788.5 L1276.08,788.959 L1275.4,789.406 L1274.72,789.841 L1274.02,790.264 L1273.32,790.674 L1272.61,791.073 L1271.89,791.459 L1271.17,791.833 L1270.44,792.194 L1269.71,792.543 L1268.96,792.878 L1268.22,793.201 L1267.47,793.511 L1266.71,793.807 L1265.95,794.091 L1265.18,794.361 L1264.41,794.618 L1263.63,794.861 L1262.85,795.091 L1262.06,795.307 L1261.28,795.51 L1260.49,795.699 L1259.69,795.874 L1258.89,796.035 L1258.09,796.183 L1257.29,796.316 L1256.49,796.436 L1255.68,796.541 L1254.87,796.633 L1254.06,796.71 L1253.25,796.774 L1252.44,796.823 L1251.63,796.859 L1250.81,796.88 L1250,796.887 L1249.18,796.88 L1248.37,796.859 L1247.56,796.823 L1246.75,796.774 L1245.94,796.71 L1245.13,796.633 L1244.32,796.541 L1243.51,796.436 L1242.71,796.316 L1241.9,796.183 L1241.1,796.035 L1240.31,795.874 L1239.51,795.699 L1238.72,795.51 L1237.93,795.307 L1237.15,795.091 L1236.37,794.861 L1235.59,794.618 L1234.82,794.361 L1234.05,794.091 L1233.29,793.807 L1232.53,793.511 L1231.78,793.201 L1231.03,792.878 L1230.29,792.543 L1229.56,792.194 L1228.83,791.833 L1228.1,791.459 L1227.39,791.073 L1226.68,790.674 L1225.98,790.264 L1225.28,789.841 L1224.59,789.406 L1223.91,788.959 L1223.24,788.5 L1222.58,788.03 L1221.92,787.548 L1221.27,787.055 L1220.64,786.551 L1220.01,786.036 L1219.39,785.51 L1218.77,784.974 L1218.17,784.426 L1217.58,783.869 L1217,783.301 L1216.42,782.723 L1215.86,782.136 L1215.31,781.538 L1214.77,780.931 L1214.24,780.315 L1213.72,779.69 L1213.21,779.056 L1212.71,778.413 L1212.22,777.761 L1211.74,777.102 L1211.28,776.434 L1210.83,775.758 L1210.39,775.074 L1209.96,774.383 L1209.54,773.684 L1209.13,772.978 L1208.74,772.265 L1208.36,771.546 L1207.99,770.82 L1207.64,770.088 L1207.3,769.35 L1206.97,768.606 L1206.65,767.856 L1206.35,767.101 L1206.06,766.341 L1205.78,765.576 L1205.52,764.806 L1205.27,764.032 L1205.03,763.254 L1204.81,762.471 L1204.6,761.685 L1204.4,760.895 L1204.22,760.102 L1204.05,759.306 L1203.9,758.508 L1203.76,757.706 L1203.63,756.902 L1203.52,756.097 L1203.42,755.289 L1203.34,754.48 L1203.27,753.669 L1203.21,752.858 L1203.17,752.045 L1203.14,751.232 L1203.12,750.419 L1203.12,749.605 L1203.14,748.792 L1203.17,747.979 L1203.21,747.166 L1203.27,746.354 L1203.34,745.544 L1203.42,744.735 L1203.52,743.927 L1203.63,743.121 L1203.76,742.318 L1203.9,741.516 L1204.05,740.717 L1204.22,739.921 L1204.4,739.128 L1204.6,738.339 L1204.81,737.553 L1205.03,736.77 L1205.27,735.992 L1205.52,735.218 L1205.78,734.448 L1206.06,733.683 L1206.35,732.923 L1206.65,732.168 L1206.97,731.418 L1207.3,730.674 L1207.64,729.936 L1207.99,729.204 L1208.36,728.478 L1208.74,727.758 L1209.13,727.046 L1209.54,726.34 L1209.96,725.641 L1210.39,724.95 L1210.83,724.266 L1211.28,723.59 L1211.74,722.922 L1212.22,722.262 L1212.71,721.611 L1213.21,720.968 L1213.72,720.334 L1214.24,719.708 L1214.77,719.092 L1215.31,718.485 L1215.86,717.888 L1216.42,717.301 L1217,716.723 L1217.58,716.155 L1218.17,715.597 L1218.77,715.05 L1219.39,714.514 L1220.01,713.988 L1220.64,713.472 L1221.27,712.968 L1221.92,712.475 L1222.58,711.994 L1223.24,711.524 L1223.91,711.065 L1224.59,710.618 L1225.28,710.183 L1225.98,709.76 L1226.68,709.349 L1227.39,708.951 L1228.1,708.564 L1228.83,708.191 L1229.56,707.83 L1230.29,707.481 L1231.03,707.145 L1231.78,706.823 L1232.53,706.513 L1233.29,706.216 L1234.05,705.933 L1234.82,705.663 L1235.59,705.406 L1236.37,705.163 L1237.15,704.933 L1237.93,704.717 L1238.72,704.514 L1239.51,704.325 L1240.31,704.15 L1241.1,703.989 L1241.9,703.841 L1242.71,703.708 L1243.51,703.588 L1244.32,703.482 L1245.13,703.391 L1245.94,703.313 L1246.75,703.25 L1247.56,703.2 L1248.37,703.165 L1249.18,703.144 L1250,703.137"/>
   <path fill-rule="evenodd" vector-effect="none" d="M1250,953.137 L1250.81,953.144 L1251.63,953.165 L1252.44,953.2 L1253.25,953.25 L1254.06,953.313 L1254.87,953.391 L1255.68,953.482 L1256.49,953.588 L1257.29,953.708 L1258.09,953.841 L1258.89,953.989 L1259.69,954.15 L1260.49,954.325 L1261.28,954.514 L1262.06,954.717 L1262.85,954.933 L1263.63,955.163 L1264.41,955.406 L1265.18,955.663 L1265.95,955.933 L1266.71,956.216 L1267.47,956.513 L1268.22,956.823 L1268.96,957.145 L1269.71,957.481 L1270.44,957.83 L1271.17,958.191 L1271.89,958.564 L1272.61,958.951 L1273.32,959.349 L1274.02,959.76 L1274.72,960.183 L1275.4,960.618 L1276.08,961.065 L1276.75,961.524 L1277.42,961.994 L1278.07,962.475 L1278.72,962.968 L1279.36,963.472 L1279.99,963.988 L1280.61,964.514 L1281.22,965.05 L1281.82,965.597 L1282.42,966.155 L1283,966.723 L1283.57,967.301 L1284.14,967.888 L1284.69,968.485 L1285.23,969.092 L1285.76,969.708 L1286.28,970.334 L1286.79,970.968 L1287.29,971.611 L1287.78,972.262 L1288.25,972.922 L1288.72,973.59 L1289.17,974.266 L1289.61,974.95 L1290.04,975.641 L1290.46,976.34 L1290.86,977.046 L1291.25,977.758 L1291.63,978.478 L1292,979.204 L1292.36,979.936 L1292.7,980.674 L1293.03,981.418 L1293.34,982.168 L1293.65,982.923 L1293.94,983.683 L1294.21,984.448 L1294.48,985.218 L1294.73,985.992 L1294.96,986.77 L1295.19,987.553 L1295.4,988.339 L1295.59,989.128 L1295.77,989.921 L1295.94,990.717 L1296.1,991.516 L1296.24,992.318 L1296.36,993.121 L1296.48,993.927 L1296.58,994.735 L1296.66,995.544 L1296.73,996.354 L1296.79,997.166 L1296.83,997.979 L1296.86,998.792 L1296.87,999.605 L1296.87,1000.42 L1296.86,1001.23 L1296.83,1002.05 L1296.79,1002.86 L1296.73,1003.67 L1296.66,1004.48 L1296.58,1005.29 L1296.48,1006.1 L1296.36,1006.9 L1296.24,1007.71 L1296.1,1008.51 L1295.94,1009.31 L1295.77,1010.1 L1295.59,1010.9 L1295.4,1011.68 L1295.19,1012.47 L1294.96,1013.25 L1294.73,1014.03 L1294.48,1014.81 L1294.21,1015.58 L1293.94,1016.34 L1293.65,1017.1 L1293.34,1017.86 L1293.03,1018.61 L1292.7,1019.35 L1292.36,1020.09 L1292,1020.82 L1291.63,1021.55 L1291.25,1022.27 L1290.86,1022.98 L1290.46,1023.68 L1290.04,1024.38 L1289.61,1025.07 L1289.17,1025.76 L1288.72,1026.43 L1288.25,1027.1 L1287.78,1027.76 L1287.29,1028.41 L1286.79,1029.06 L1286.28,1029.69 L1285.76,1030.32 L1285.23,1030.93 L1284.69,1031.54 L1284.14,1032.14 L1283.57,1032.72 L1283,1033.3 L1282.42,1033.87 L1281.82,1034.43 L1281.22,1034.97 L1280.61,1035.51 L1279.99,1036.04 L1279.36,1036.55 L1278.72,1037.06 L1278.07,1037.55 L1277.42,1038.03 L1276.75,1038.5 L1276.08,1038.96 L1275.4,1039.41 L1274.72,1039.84 L1274.02,1040.26 L1273.32,1040.67 L1272.61,1041.07 L1271.89,1041.46 L1271.17,1041.83 L1270.44,1042.19 L1269.71,1042.54 L1268.96,1042.88 L1268.22,1043.2 L1267.47,1043.51 L1266.71,1043.81 L1265.95,1044.09 L1265.18,1044.36 L1264.41,1044.62 L1263.63,1044.86 L1262.85,1045.09 L1262.06,1045.31 L1261.28,1045.51 L1260.49,1045.7 L1259.69,1045.87 L1258.89,1046.04 L1258.09,1046.18 L1257.29,1046.32 L1256.49,1046.44 L1255.68,1046.54 L1254.87,1046.63 L1254.06,1046.71 L1253.25,1046.77 L1252.44,1046.82 L1251.63,1046.86 L1250.81,1046.88 L1250,1046.89 L1249.18,1046.88 L1248.37,1046.86 L1247.56,1046.82 L1246.75,1046.77 L1245.94,1046.71 L1245.13,1046.63 L1244.32,1046.54 L1243.51,1046.44 L1242.71,1046.32 L1241.9,1046.18 L1241.1,1046.04 L1240.31,1045.87 L1239.51,1045.7 L1238.72,1045.51 L1237.93,1045.31 L1237.15,1045.09 L1236.37,1044.86 L1235.59,1044.62 L1234.82,1044.36 L1234.05,1044.09 L1233.29,1043.81 L1232.53,1043.51 L1231.78,1043.2 L1231.03,1042.88 L1230.29,1042.54 L1229.56,1042.19 L1228.83,1041.83 L1228.1,1041.46 L1227.39,1041.07 L1226.68,1040.67 L1225.98,1040.26 L1225.28,1039.84 L1224.59,1039.41 L1223.91,1038.96 L1223.24,1038.5 L1222.58,1038.03 L1221.92,1037.55 L1221.27,1037.06 L1220.64,1036.55 L1220.01,1036.04 L1219.39,1035.51 L1218.77,1034.97 L1218.17,1034.43 L1217.58,1033.87 L1217,1033.3 L1216.42,1032.72 L1215.86,1032.14 L1215.31,1031.54 L1214.77,1030.93 L1214.24,1030.32 L1213.72,1029.69 L1213.21,1029.06 L1212.71,1028.41 L1212.22,1027.76 L1211.74,1027.1 L1211.28,1026.43 L1210.83,1025.76 L1210.39,1025.07 L1209.96,1024.38 L1209.54,1023.68 L1209.13,1022.98 L1208.74,1022.27 L1208.36,1021.55 L1207.99,1020.82 L1207.64,1020.09 L1207.3,1019.35 L1206.97,1018.61 L1206.65,1017.86 L1206.35,1017.1 L1206.06,1016.34 L1205.78,1015.58 L1205.52,1014.81 L1205.27,1014.03 L1205.03,1013.25 L1204.81,1012.47 L1204.6,1011.68 L1204.4,1010.9 L1204.22,1010.1 L1204.05,1009.31 L1203.9,1008.51 L1203.76,1007.71 L1203.63,1006.9 L1203.52,1006.1 L1203.42,1005.29 L1203.34,1004.48 L1203.27,1003.67 L1203.21,1002.86 L1203.17,1002.05 L1203.14,1001.23 L1203.12,1000.42 L1203.12,999.605 L1203.14,998.792 L1203.17,997.979 L1203.21,997.166 L1203.27,996.354 L1203.34,995.544 L1203.42,994.735 L1203.52,993.927 L1203.63,993.121 L1203.76,992.318 L1203.9,991.516 L1204.05,990.717 L1204.22,989.921 L1204.4,989.128 L1204.6,988.339 L1204.81,987.553 L1205.03,986.77 L1205.27,985.992 L1205.52,985.218 L1205.78,984.448 L1206.06,983.683 L1206.35,982.923 L1206.65,982.168 L1206.97,981.418 L1207.3,980.674 L1207.64,979.936 L1207.99,979.204 L1208.36,978.478 L1208.74,977.758 L1209.13,977.046 L1209.54,976.34 L1209.96,975.641 L1210.39,974.95 L1210.83,974.266 L1211.28,973.59 L1211.74,972.922 L1212.22,972.262 L1212.71,971.611 L1213.21,970.968 L1213.72,970.334 L1214.24,969.708 L1214.77,969.092 L1215.31,968.485 L1215.86,967.888 L1216.42,967.301 L1217,966.723 L1217.58,966.155 L1218.17,965.597 L1218.77,965.05 L1219.39,964.514 L1220.01,963.988 L1220.64,963.472 L1221.27,962.968 L1221.92,962.475 L1222.58,961.994 L1223.24,961.524 L1223.91,961.065 L1224.59,960.618 L1225.28,960.183 L1225.98,959.76 L1226.68,959.349 L1227.39,958.951 L1228.1,958.564 L1228.83,958.191 L1229.56,957.83 L1230.29,957.481 L1231.03,957.145 L1231.78,956.823 L1232.53,956.513 L1233.29,956.216 L1234.05,955.933 L1234.82,955.663 L1235.59,955.406 L1236.37,955.163 L1237.15,954.933 L1237.93,954.717 L1238.72,954.514 L1239.51,954.325 L1240.31,954.15 L1241.1,953.989 L1241.9,953.841 L1242.71,953.708 L1243.51,953.588 L1244.32,953.482 L1245.13,953.391 L1245.94,953.313 L1246.75,953.25 L1247.56,953.2 L1248.37,953.165 L1249.18,953.144 L1250,953.137"/>
  </g>
  <g font-style="normal" stroke-opacity="1" font-weight="400" stroke="#0c59cd" transform="matrix(1,0,0,1,0,0)" stroke-linejoin="bevel" font-size="38.8056" fill="#96d67c" stroke-linecap="square" font-family="Ubuntu" stroke-width="15" fill-opacity="1">
   <path fill-rule="evenodd" vector-effect="none" d="M1275,1250 C1275,1263.81 1263.81,1275 1250,1275 C1236.19,1275 1225,1263.81 1225,1250 C1225,1236.19 1236.19,1225 1250,1225 C1263.81,1225 1275,1236.19 1275,1250 "/>
  </g>
  <g font-style="normal" stroke-opacity="1" font-weight="400" stroke="#000000" transform="matrix(10,0,0,10,0,0)" stroke-linejoin="bevel" font-size="38.8056" fill="none" stroke-linecap="square" font-family="Ubuntu" stroke-width="1"/>
  <g font-style="normal" stroke-opacity="1" font-weight="400" stroke="#000000" transform="matrix(10,0,0,10,0,0)" stroke-linejoin="bevel" font-size="38.8056" fill="none" stroke-linecap="square" font-family="Ubuntu" stroke-width="1"/>
  <g font-style="normal" stroke-opacity="1" font-weight="400" stroke="#000000" transform="matrix(10,0,0,10,0,0)" stroke-linejoin="bevel" font-size="38.8056" fill="none" stroke-linecap="square" font-family="Ubuntu" stroke-width="1"/>
  <g font-style="normal" stroke-opacity="1" font-weight="400" stroke="#000000" transform="matrix(1,0,0,1,0,0)" stroke-linejoin="bevel" font-size="38.8056" fill="none" stroke-linecap="square" font-family="Ubuntu" stroke-width="1"/>
  <g font-style="normal" stroke-opacity="1" font-weight="400" stroke="#000000" transform="matrix(10,0,0,10,0,0)" stroke-linejoin="bevel" font-size="38.8056" fill="none" stroke-linecap="square" font-family="Ubuntu" stroke-width="1"/>
  <g font-style="normal" stroke-opacity="1" font-weight="400" stroke="#000000" transform="matrix(10,0,0,10,0,0)" stroke-linejoin="bevel" font-size="38.8056" fill="none" stroke-linecap="square" font-family="Ubuntu" stroke-width="1"/>
  <g font-style="normal" stroke-opacity="1" font-weight="400" stroke="#000000" transform="matrix(1,0,0,1,0,0)" stroke-linejoin="bevel" font-size="38.8056" fill="none" stroke-linecap="square" font-family="Ubuntu" stroke-width="1"/>
 </g>
</svg>
