<svg xmlns="http://www.w3.org/2000/svg" xmlns:xlink="http://www.w3.org/1999/xlink" width="2499.95mm" height="2499.95mm" viewBox="0 0 29527 29527" version="1.2" baseProfile="tiny">
<desc>Generated with Qt</desc>
<defs>
</defs>
<g fill="none" stroke="black" stroke-width="1" fill-rule="evenodd" stroke-linecap="square" stroke-linejoin="bevel">

<g fill="#000000" fill-opacity="0" stroke="none" transform="matrix(0.999981,0,0,0.999981,0,0)" font-family="Ubuntu" font-size="45.8333" font-weight="400" font-style="normal">
<path vector-effect="non-scaling-stroke" fill-rule="evenodd" d="M0,0 L29528,0 L29528,29528 L0,29528 L0,0"/>
</g>

<g fill="none" stroke="#ff0000" stroke-opacity="1" stroke-width="236.224" stroke-linecap="square" stroke-linejoin="bevel" transform="matrix(0.999981,0,0,0.999981,0,0)" font-family="Ubuntu" font-size="45.8333" font-weight="400" font-style="normal">
<path vector-effect="none" fill-rule="evenodd" d="M17716.8,2952.8 L17716.8,14764"/>
<path vector-effect="none" fill-rule="evenodd" d="M20669.6,2952.8 L20669.6,14771.7"/>
<path vector-effect="none" fill-rule="evenodd" d="M23622.4,2952.8 L23622.4,14764"/>
</g>

<g fill="#3acca5" fill-opacity="0" stroke="#000000" stroke-opacity="1" stroke-width="236.224" stroke-linecap="square" stroke-linejoin="bevel" transform="matrix(0.999981,0,0,0.999981,0,0)" font-family="Ubuntu" font-size="45.8333" font-weight="400" font-style="normal">
<path vector-effect="none" fill-rule="evenodd" d="M14764,14764 L14764,2952.8 L26575.2,2952.8 L26575.2,14764 L14764,14764"/>
</g>

<g fill="#8e0fc9" fill-opacity="0" stroke="#000000" stroke-opacity="0" stroke-width="1" stroke-linecap="square" stroke-linejoin="bevel" transform="matrix(0.999981,0,0,0.999981,0,0)" font-family="Ubuntu" font-size="45.8333" font-weight="400" font-style="normal">
<path vector-effect="non-scaling-stroke" fill-rule="evenodd" d="M20681.4,8858.4 C20681.4,8864.92 20676.1,8870.21 20669.6,8870.21 C20663.1,8870.21 20657.8,8864.92 20657.8,8858.4 C20657.8,8851.88 20663.1,8846.59 20669.6,8846.59 C20676.1,8846.59 20681.4,8851.88 20681.4,8858.4 "/>
</g>

<g fill="#55faad" fill-opacity="1" stroke="#000000" stroke-opacity="1" stroke-width="1" stroke-linecap="square" stroke-linejoin="bevel" transform="matrix(0.999981,0,0,0.999981,0,0)" font-family="Ubuntu" font-size="45.8333" font-weight="400" font-style="normal">
<path vector-effect="non-scaling-stroke" fill-rule="evenodd" d="M20681.4,8858.4 C20681.4,8864.92 20676.1,8870.21 20669.6,8870.21 C20663.1,8870.21 20657.8,8864.92 20657.8,8858.4 C20657.8,8851.88 20663.1,8846.59 20669.6,8846.59 C20676.1,8846.59 20681.4,8851.88 20681.4,8858.4 "/>
</g>

<g fill="#45d53a" fill-opacity="1" stroke="#0c59cd" stroke-opacity="1" stroke-width="177.168" stroke-linecap="square" stroke-linejoin="bevel" transform="matrix(0.999981,0,0,0.999981,0,0)" font-family="Ubuntu" font-size="45.8333" font-weight="400" font-style="normal">
<path vector-effect="none" fill-rule="evenodd" d="M15059.3,14764 C15059.3,14927.1 14927.1,15059.3 14764,15059.3 C14600.9,15059.3 14468.7,14927.1 14468.7,14764 C14468.7,14600.9 14600.9,14468.7 14764,14468.7 C14927.1,14468.7 15059.3,14600.9 15059.3,14764 "/>
</g>

<g fill="#58d9dd" fill-opacity="0" stroke="#58d9dd" stroke-opacity="0.500008" stroke-width="590.56" stroke-linecap="square" stroke-linejoin="round" transform="matrix(0.999981,0,0,0.999981,15362.8,11201.9)" font-family="Ubuntu" font-size="45.8333" font-weight="400" font-style="normal">
<path vector-effect="none" fill-rule="nonzero" d="M708.719,0 L3201.06,0 L3201.06,-578.781 L1387.91,-578.781 L1387.91,-3862.53 L708.719,-3862.53 L708.719,0 M4447.22,-1494.22 L5238.62,-2539.58 C5368.55,-2740.39 5510.3,-2941.19 5634.31,-3136.09 L5663.84,-3136.09 C5652.03,-2911.66 5634.31,-2616.36 5628.41,-2391.94 L5628.41,-1494.22 L4447.22,-1494.22 M6797.8,-1494.22 L6266.27,-1494.22 L6266.27,-3762.12 L5480.77,-3762.12 L3756.2,-1429.25 L3756.2,-968.578 L5628.41,-968.578 L5628.41,0 L6266.27,0 L6266.27,-968.578 L6797.8,-968.578 L6797.8,-1494.22 M8504.62,0 L9189.72,0 L9189.72,-3283.73 L10406.4,-3283.73 L10406.4,-3862.53 L7287.98,-3862.53 L7287.98,-3283.73 L8504.62,-3283.73 L8504.62,0"/>
</g>

<g fill="#33a02c" fill-opacity="1" stroke="none" transform="matrix(0.999981,0,0,0.999981,15362.8,11201.9)" font-family="Ubuntu" font-size="45.8333" font-weight="400" font-style="normal">
<path vector-effect="non-scaling-stroke" fill-rule="nonzero" d="M708.719,0 L3201.06,0 L3201.06,-578.781 L1387.91,-578.781 L1387.91,-3862.53 L708.719,-3862.53 L708.719,0 M4447.22,-1494.22 L5238.62,-2539.58 C5368.55,-2740.39 5510.3,-2941.19 5634.31,-3136.09 L5663.84,-3136.09 C5652.03,-2911.66 5634.31,-2616.36 5628.41,-2391.94 L5628.41,-1494.22 L4447.22,-1494.22 M6797.8,-1494.22 L6266.27,-1494.22 L6266.27,-3762.12 L5480.77,-3762.12 L3756.2,-1429.25 L3756.2,-968.578 L5628.41,-968.578 L5628.41,0 L6266.27,0 L6266.27,-968.578 L6797.8,-968.578 L6797.8,-1494.22 M8504.62,0 L9189.72,0 L9189.72,-3283.73 L10406.4,-3283.73 L10406.4,-3862.53 L7287.98,-3862.53 L7287.98,-3283.73 L8504.62,-3283.73 L8504.62,0"/>
</g>

</g>
</svg>