<?xml version="1.0" encoding="UTF-8" standalone="no"?>
<svg
   xmlns:dc="http://purl.org/dc/elements/1.1/"
   xmlns:cc="http://creativecommons.org/ns#"
   xmlns:rdf="http://www.w3.org/1999/02/22-rdf-syntax-ns#"
   xmlns:svg="http://www.w3.org/2000/svg"
   xmlns="http://www.w3.org/2000/svg"
   xmlns:sodipodi="http://sodipodi.sourceforge.net/DTD/sodipodi-0.dtd"
   xmlns:inkscape="http://www.inkscape.org/namespaces/inkscape"
   width="2499.95mm"
   height="2499.95mm"
   viewBox="0 0 29527 29527"
   version="1.2"
   id="svg4669"
   inkscape:version="0.91 r13725"
   sodipodi:docname="symbole_cc_v2.svg">
  <metadata
     id="metadata4741">
    <rdf:RDF>
      <cc:Work
         rdf:about="">
        <dc:format>image/svg+xml</dc:format>
        <dc:type
           rdf:resource="http://purl.org/dc/dcmitype/StillImage" />
        <dc:title></dc:title>
      </cc:Work>
    </rdf:RDF>
  </metadata>
  <sodipodi:namedview
     pagecolor="#ffffff"
     bordercolor="#666666"
     borderopacity="1"
     objecttolerance="10"
     gridtolerance="10"
     guidetolerance="10"
     inkscape:pageopacity="0"
     inkscape:pageshadow="2"
     inkscape:window-width="918"
     inkscape:window-height="480"
     id="namedview4739"
     showgrid="false"
     inkscape:zoom="0.026642311"
     inkscape:cx="-37.534281"
     inkscape:cy="4429.0452"
     inkscape:window-x="51"
     inkscape:window-y="80"
     inkscape:window-maximized="0"
     inkscape:current-layer="svg4669" />
  <desc
     id="desc4671">Generated with Qt</desc>
  <defs
     id="defs4673" />

<g fill="none"
   stroke="black"
   stroke-width="1"
   fill-rule="evenodd"
   stroke-linecap="square"
   stroke-linejoin="bevel" >

<g fill="none" stroke="#000000" stroke-opacity="1" stroke-width="1" stroke-linecap="square" stroke-linejoin="bevel" transform="matrix(1,0,0,1,0,0)"
font-family="Ubuntu" font-size="45.8333" font-weight="400" font-style="normal"
>
</g>

<g fill="none" stroke="#000000" stroke-opacity="1" stroke-width="1" stroke-linecap="square" stroke-linejoin="bevel" transform="matrix(11.8108,0,0,11.8108,0,0)"
font-family="Ubuntu" font-size="45.8333" font-weight="400" font-style="normal"
>
</g>

<g fill="#ffffff" fill-opacity="1" stroke="none" transform="matrix(0.999981,0,0,0.999981,0,0)"
font-family="Ubuntu" font-size="45.8333" font-weight="400" font-style="normal"
>
<path vector-effect="none" fill-rule="evenodd" d="M-1,-1 L29528.6,-1 L29528.6,29528.6 L-1,29528.6 L-1,-1"/>
</g>

<g fill="none" stroke="#000000" stroke-opacity="1" stroke-width="1" stroke-linecap="square" stroke-linejoin="bevel" transform="matrix(11.8108,0,0,11.8108,0,0)"
font-family="Ubuntu" font-size="45.8333" font-weight="400" font-style="normal"
>
</g>

<g fill="none" stroke="#000000" stroke-opacity="1" stroke-width="1" stroke-linecap="square" stroke-linejoin="bevel" transform="matrix(11.8108,0,0,11.8108,0,0)"
font-family="Ubuntu" font-size="45.8333" font-weight="400" font-style="normal"
>
</g>

<g fill="none" stroke="#000000" stroke-opacity="1" stroke-width="1" stroke-linecap="square" stroke-linejoin="bevel" transform="matrix(11.8108,0,0,11.8108,0,0)"
font-family="Ubuntu" font-size="45.8333" font-weight="400" font-style="normal"
>
</g>

<g fill="none" stroke="#000000" stroke-opacity="1" stroke-width="1" stroke-linecap="square" stroke-linejoin="bevel" transform="matrix(11.8108,0,0,11.8108,0,0)"
font-family="Ubuntu" font-size="45.8333" font-weight="400" font-style="normal"
>
</g>

<g fill="#ffffff" fill-opacity="1" stroke="none" transform="matrix(11.8108,0,0,11.8108,0,0)"
font-family="Ubuntu" font-size="45.8333" font-weight="400" font-style="normal"
>
<path vector-effect="non-scaling-stroke" fill-rule="evenodd" d="M0,0 L2500,0 L2500,2500 L0,2500 L0,0"/>
</g>

<g fill="none" stroke="#000000" stroke-opacity="1" stroke-width="1" stroke-linecap="square" stroke-linejoin="bevel" transform="matrix(11.8108,0,0,11.8108,0,0)"
font-family="Ubuntu" font-size="45.8333" font-weight="400" font-style="normal"
>
</g>

<g fill="#000000" fill-opacity="0" stroke="none" transform="matrix(0.999981,0,0,0.999981,0,0)"
font-family="Ubuntu" font-size="45.8333" font-weight="400" font-style="normal"
>
<path vector-effect="non-scaling-stroke" fill-rule="evenodd" d="M0,0 L29528,0 L29528,29528 L0,29528 L0,0"/>
</g>

<g fill="#686ab3" fill-opacity="0" stroke="#000000" stroke-opacity="1" stroke-width="236.224" stroke-linecap="square" stroke-linejoin="bevel" transform="matrix(0.999981,0,0,0.999981,0,0)"
font-family="Ubuntu" font-size="45.8333" font-weight="400" font-style="normal"
>
<path vector-effect="none" fill-rule="evenodd" d="M8858.4,20669.6 L8858.4,8858.4 L20669.6,8858.4 L20669.6,20669.6 L8858.4,20669.6"/>
</g>

<g fill="none" stroke="#e31a1c" stroke-opacity="1" stroke-width="236.224" stroke-linecap="butt" stroke-linejoin="bevel" transform="matrix(0.999981,0,0,0.999981,0,0)"
font-family="Ubuntu" font-size="45.8333" font-weight="400" font-style="normal"
>
<path vector-effect="none" fill-rule="evenodd" d="M8858.4,8873.77 L20669.6,20669.6"/>
<path vector-effect="none" fill-rule="evenodd" d="M8858.4,20669.6 L20669.6,8858.4"/>
</g>

<g fill="#daf671" fill-opacity="1" stroke="#0c59cd" stroke-opacity="1" stroke-width="118.112" stroke-linecap="square" stroke-linejoin="bevel" transform="matrix(0.999981,0,0,0.999981,0,0)"
font-family="Ubuntu" font-size="45.8333" font-weight="400" font-style="normal"
>
<path vector-effect="none" fill-rule="evenodd" d="M15000.2,14764 C15000.2,14894.5 14894.5,15000.2 14764,15000.2 C14633.5,15000.2 14527.8,14894.5 14527.8,14764 C14527.8,14633.5 14633.5,14527.8 14764,14527.8 C14894.5,14527.8 15000.2,14633.5 15000.2,14764 "/>
</g>

<g fill="none" stroke="#000000" stroke-opacity="1" stroke-width="1" stroke-linecap="square" stroke-linejoin="bevel" transform="matrix(11.8108,0,0,11.8108,0,0)"
font-family="Ubuntu" font-size="45.8333" font-weight="400" font-style="normal"
>
</g>

<g fill="none" stroke="#000000" stroke-opacity="1" stroke-width="1" stroke-linecap="square" stroke-linejoin="bevel" transform="matrix(11.8108,0,0,11.8108,0,0)"
font-family="Ubuntu" font-size="45.8333" font-weight="400" font-style="normal"
>
</g>

<g fill="none" stroke="#000000" stroke-opacity="1" stroke-width="1" stroke-linecap="square" stroke-linejoin="bevel" transform="matrix(11.8108,0,0,11.8108,0,0)"
font-family="Ubuntu" font-size="45.8333" font-weight="400" font-style="normal"
>
</g>

<g fill="none" stroke="#000000" stroke-opacity="1" stroke-width="1" stroke-linecap="square" stroke-linejoin="bevel" transform="matrix(1,0,0,1,0,0)"
font-family="Ubuntu" font-size="45.8333" font-weight="400" font-style="normal"
>
</g>

<g fill="none" stroke="#000000" stroke-opacity="1" stroke-width="1" stroke-linecap="square" stroke-linejoin="bevel" transform="matrix(11.8108,0,0,11.8108,0,0)"
font-family="Ubuntu" font-size="45.8333" font-weight="400" font-style="normal"
>
</g>

<g fill="none" stroke="#000000" stroke-opacity="1" stroke-width="1" stroke-linecap="square" stroke-linejoin="bevel" transform="matrix(11.8108,0,0,11.8108,0,0)"
font-family="Ubuntu" font-size="45.8333" font-weight="400" font-style="normal"
>
</g>

<g fill="none" stroke="#000000" stroke-opacity="1" stroke-width="1" stroke-linecap="square" stroke-linejoin="bevel" transform="matrix(11.8108,0,0,11.8108,0,0)"
font-family="Ubuntu" font-size="45.8333" font-weight="400" font-style="normal"
>
</g>

<g fill="none" stroke="#000000" stroke-opacity="1" stroke-width="1" stroke-linecap="square" stroke-linejoin="bevel" transform="matrix(11.8108,0,0,11.8108,0,0)"
font-family="Ubuntu" font-size="45.8333" font-weight="400" font-style="normal"
>
</g>

<g fill="none" stroke="#000000" stroke-opacity="1" stroke-width="1" stroke-linecap="square" stroke-linejoin="bevel" transform="matrix(11.8108,0,0,11.8108,0,0)"
font-family="Ubuntu" font-size="45.8333" font-weight="400" font-style="normal"
>
</g>

<g fill="none" stroke="#000000" stroke-opacity="1" stroke-width="1" stroke-linecap="square" stroke-linejoin="bevel" transform="matrix(11.8108,0,0,11.8108,0,0)"
font-family="Ubuntu" font-size="45.8333" font-weight="400" font-style="normal"
>
</g>

<g fill="none" stroke="#000000" stroke-opacity="1" stroke-width="1" stroke-linecap="square" stroke-linejoin="bevel" transform="matrix(1,0,0,1,0,0)"
font-family="Ubuntu" font-size="45.8333" font-weight="400" font-style="normal"
>
</g>
</g>
</svg>
