<?xml version="1.0" encoding="UTF-8" standalone="no"?>
<!-- Generator: Adobe Illustrator 16.0.0, SVG Export Plug-In . SVG Version: 6.00 Build 0)  -->

<svg
   xmlns:dc="http://purl.org/dc/elements/1.1/"
   xmlns:cc="http://creativecommons.org/ns#"
   xmlns:rdf="http://www.w3.org/1999/02/22-rdf-syntax-ns#"
   xmlns:svg="http://www.w3.org/2000/svg"
   xmlns="http://www.w3.org/2000/svg"
   xmlns:sodipodi="http://sodipodi.sourceforge.net/DTD/sodipodi-0.dtd"
   xmlns:inkscape="http://www.inkscape.org/namespaces/inkscape"
   version="1.1"
   id="Calque_1"
   x="0px"
   y="0px"
   width="141.73px"
   height="141.73px"
   viewBox="0 0 141.73 141.73"
   enable-background="new 0 0 141.73 141.73"
   xml:space="preserve"
   inkscape:version="0.91 r13725"
   sodipodi:docname="tourisme.svg"><metadata
     id="metadata15"><rdf:RDF><cc:Work
         rdf:about=""><dc:format>image/svg+xml</dc:format><dc:type
           rdf:resource="http://purl.org/dc/dcmitype/StillImage" /><dc:title></dc:title></cc:Work></rdf:RDF></metadata><defs
     id="defs13" /><sodipodi:namedview
     pagecolor="#ffffff"
     bordercolor="#666666"
     borderopacity="1"
     objecttolerance="10"
     gridtolerance="10"
     guidetolerance="10"
     inkscape:pageopacity="0"
     inkscape:pageshadow="2"
     inkscape:window-width="884"
     inkscape:window-height="480"
     id="namedview11"
     showgrid="false"
     inkscape:zoom="1.665138"
     inkscape:cx="-0.60055083"
     inkscape:cy="70.864998"
     inkscape:window-x="65"
     inkscape:window-y="80"
     inkscape:window-maximized="0"
     inkscape:current-layer="Calque_1" /><path
     fill="param(fill) #FFF"
     d="M71.64,139c0,0-23.697-48.46-29.618-60.432c-6.778-13.704-11.987-26.031-11.987-34.647  c0-22.978,18.627-41.605,41.605-41.605s41.605,18.627,41.605,41.605c-0.001,8.617-5.21,20.944-11.987,34.647  C95.337,90.54,71.64,139,71.64,139z"
     id="path3" /><circle
     fill="#FFFFFF"
     cx="71.64"
     cy="44.511"
     r="33.489"
     id="circle5" /><g
     id="g7"><path
       fill="param(fill) #FFF"
       d="M48.674,24.758c-0.604,0.121-1.268,0.669-1.496,1.233l-0.127,0.315v16.94v16.94l0.125,0.314   c0.09,0.223,0.22,0.409,0.447,0.632c0.353,0.348,0.677,0.527,1.108,0.608c0.17,0.033,1.972,0.047,4.656,0.037l4.377-0.016   l0.305-0.124c0.632-0.255,1.202-0.979,1.281-1.626l0.032-0.273h14.402H88.19l0.031,0.231c0.065,0.468,0.246,0.829,0.583,1.163   c0.347,0.345,0.673,0.526,1.093,0.605c0.356,0.067,6.566,0.064,6.923-0.004c0.762-0.145,1.378-0.713,1.599-1.475   c0.074-0.262,0.081-1.373,0.069-11.973l-0.013-11.685l-0.124-0.305c-0.245-0.607-0.879-1.123-1.536-1.247   c-0.158-0.03-1.586-0.051-3.409-0.051h-3.136l-0.032-0.542c-0.107-1.759-0.88-2.917-2.264-3.386l-0.425-0.143l-14.087-0.014   l-14.088-0.013l-0.016-2.324l-0.017-2.324l-0.172-0.353c-0.218-0.441-0.676-0.877-1.099-1.047l-0.305-0.124l-4.438-0.008   C50.887,24.718,48.793,24.733,48.674,24.758L48.674,24.758z M55.271,40.173v11.319h17.491h17.492V45.32v-6.171h2.074h2.075v9.244   v9.245h-3.099h-3.1v-1.024v-1.024H71.74H55.271v1.024v1.024h-2.074h-2.075V43.246V28.853h2.075h2.074V40.173L55.271,40.173z    M63.506,41.184l0.013,6.158h-2.075h-2.075V41.17v-6.171l2.062,0.012l2.062,0.013L63.506,41.184L63.506,41.184z M86.158,41.17   v6.171h-9.271h-9.272V41.17v-6.171h9.272h9.271V41.17L86.158,41.17z"
       id="path9" /></g></svg>
