<?xml version="1.0" encoding="UTF-8" standalone="no"?>
<!-- Generator: Adobe Illustrator 16.0.0, SVG Export Plug-In . SVG Version: 6.00 Build 0)  -->

<svg
   xmlns:dc="http://purl.org/dc/elements/1.1/"
   xmlns:cc="http://creativecommons.org/ns#"
   xmlns:rdf="http://www.w3.org/1999/02/22-rdf-syntax-ns#"
   xmlns:svg="http://www.w3.org/2000/svg"
   xmlns="http://www.w3.org/2000/svg"
   xmlns:sodipodi="http://sodipodi.sourceforge.net/DTD/sodipodi-0.dtd"
   xmlns:inkscape="http://www.inkscape.org/namespaces/inkscape"
   version="1.1"
   id="Calque_1"
   x="0px"
   y="0px"
   width="141.73px"
   height="141.73px"
   viewBox="0 0 141.73 141.73"
   enable-background="new 0 0 141.73 141.73"
   xml:space="preserve"
   inkscape:version="0.91 r13725"
   sodipodi:docname="jeunesse.svg"><metadata
     id="metadata15"><rdf:RDF><cc:Work
         rdf:about=""><dc:format>image/svg+xml</dc:format><dc:type
           rdf:resource="http://purl.org/dc/dcmitype/StillImage" /><dc:title></dc:title></cc:Work></rdf:RDF></metadata><defs
     id="defs13" /><sodipodi:namedview
     pagecolor="#ffffff"
     bordercolor="#666666"
     borderopacity="1"
     objecttolerance="10"
     gridtolerance="10"
     guidetolerance="10"
     inkscape:pageopacity="0"
     inkscape:pageshadow="2"
     inkscape:window-width="884"
     inkscape:window-height="480"
     id="namedview11"
     showgrid="false"
     inkscape:zoom="1.665138"
     inkscape:cx="-0.60055083"
     inkscape:cy="70.864998"
     inkscape:window-x="65"
     inkscape:window-y="80"
     inkscape:window-maximized="0"
     inkscape:current-layer="Calque_1" /><path
     fill="param(fill) #FFF"
     d="M71.64,139c0,0-23.697-48.46-29.618-60.432c-6.778-13.704-11.987-26.031-11.987-34.647  c0-22.978,18.627-41.605,41.605-41.605s41.605,18.627,41.605,41.605c-0.001,8.617-5.21,20.944-11.987,34.647  C95.337,90.54,71.64,139,71.64,139z"
     id="path3" /><circle
     fill="#FFFFFF"
     cx="71.64"
     cy="44.511"
     r="33.489"
     id="circle5" /><g
     id="g7"><path
       fill="param(fill) #FFF"
       d="M65.804,18.737c-0.014,0.039-0.39,1.191-0.837,2.565c-0.448,1.374-0.858,2.546-0.914,2.609   c-0.1,0.113-0.123,0.113-2.091,0.079c-1.096-0.02-2.571-0.052-3.282-0.071l-1.292-0.035l0.222,0.84   c0.884,3.348,1.646,6.926,1.543,7.246c-0.061,0.188-1.433,1.294-4.055,3.271l-1.325,0.999l0.646,0.659   c0.355,0.362,1.755,1.777,3.108,3.141c2.337,2.355,2.466,2.496,2.556,2.781c0.436,1.39,1.396,3.201,2.311,4.362   c0.322,0.408,0.373,0.504,0.428,0.812c0.045,0.251,0.106,0.396,0.218,0.519c1.015,1.106,1.588,1.717,2.283,2.432l0.828,0.851   l0.14,0.899c0.248,1.593,0.315,2.288,0.345,3.556c0.031,1.309-0.009,1.767-0.211,2.421c-0.058,0.185-0.127,0.353-0.154,0.37   c-0.027,0.019-0.497,0.131-1.047,0.251c-10.005,2.188-16.564,5.928-18.878,10.764c-0.248,0.518-0.598,1.494-0.66,1.843   l-0.036,0.203l26.123,14.564c19.46,0,26.123-14.58,26.123-14.625c0-0.157-0.748-1.565-1.185-2.231   c-2.688-4.095-7.964-7.396-15.336-9.595c-0.583-0.175-1.429-0.41-1.873-0.522c-0.796-0.2-0.812-0.207-0.94-0.411   c-0.621-0.982-0.675-2.89-0.18-6.319l0.168-1.173l0.908-0.927c0.869-0.889,1.855-1.943,2.232-2.388   c0.097-0.115,0.176-0.26,0.176-0.325c0-0.063,0.186-0.51,0.412-0.983c0.635-1.337,1.002-2.241,1.801-4.434   c0.076-0.209,0.186-0.292,1.713-1.309c0.894-0.595,1.631-1.104,1.633-1.126c0.001-0.022-0.434-0.621-0.969-1.336   c-0.535-0.714-0.984-1.319-1.003-1.349c-0.019-0.031-0.01-0.175,0.019-0.327c0.086-0.453,0.266-2.104,0.266-2.443v-0.316   l1.499-1.946c0.823-1.068,1.491-1.971,1.481-2.001c-0.014-0.045-4.022-2.924-4.279-3.074c-0.057-0.033,0.293-0.598,1.399-2.256   l1.475-2.211l-1.21-0.032c-0.667-0.019-2.52-0.057-4.123-0.085c-1.603-0.028-2.928-0.071-2.949-0.096   c-0.021-0.023-0.413-0.956-0.873-2.074c-0.459-1.118-0.854-2.031-0.88-2.031s-0.796,0.669-1.712,1.486   c-0.916,0.816-1.684,1.481-1.704,1.478c-0.021-0.005-0.515-0.038-1.093-0.074l-1.056-0.065l-1.565-0.766   C66.052,18.775,65.828,18.669,65.804,18.737L65.804,18.737z M75.186,31.464c0.959,0.218,1.72,0.534,2.453,1.022   c2.229,1.483,3.74,4.538,4.195,8.479c0.173,1.493,0.152,1.745-0.361,4.504l-0.459,2.465l-0.355,0.398   c-2.016,2.252-5.038,5.117-6.559,6.219c-1.231,0.894-1.726,1.018-2.486,0.628c-0.664-0.341-1.543-1.001-2.819-2.118   c-0.759-0.665-3.56-3.442-4.504-4.467l-0.583-0.633l-0.333-1.794l-0.333-1.794l0.028-1.745c0.055-3.386,0.44-5.824,1.217-7.715   c0.934-2.271,2.599-3.216,6.235-3.542c0.284-0.025,1.341-0.04,2.345-0.032C74.471,31.352,74.754,31.368,75.186,31.464   L75.186,31.464z M68.915,54.32c1.559,1.3,2.724,1.965,3.446,1.968c0.867,0.004,2.514-1.062,4.558-2.951   c0.294-0.272,0.546-0.484,0.56-0.473c0.014,0.013-0.023,0.388-0.08,0.835c-0.291,2.252-0.299,3.872-0.027,4.983   c0.186,0.758,0.715,1.603,1.25,1.997c1.504,1.108,1.983,2.559,1.295,3.919c-0.787,1.557-3.014,2.736-5.87,3.109   c-0.843,0.11-2.552,0.11-3.397,0.001c-1.642-0.213-3.194-0.74-4.27-1.45c-0.463-0.306-1.147-0.962-1.401-1.344   c-0.914-1.376-0.529-2.962,1.009-4.155c0.841-0.653,1.302-1.511,1.481-2.754c0.141-0.98,0.028-3.26-0.248-5.011l-0.033-0.212   l0.619,0.563C68.144,53.655,68.647,54.096,68.915,54.32L68.915,54.32z"
       id="path9" /></g></svg>
