<?xml version="1.0" encoding="UTF-8" standalone="yes"?><svg xmlns="http://www.w3.org/2000/svg" xmlns:xlink="http://www.w3.org/1999/xlink" height="568px" style="width:357px;height:568px;" version="1.1" viewBox="0 0 357 568" width="357px"><defs><filter height="300%" id="f1" width="300%" x="-1" y="-1"><feGaussianBlur result="blurOut" stdDeviation="2.0"/><feColorMatrix in="blurOut" result="blurOut2" type="matrix" values="0 0 0 0 0 0 0 0 0 0 0 0 0 0 0 0 0 0 .4 0"/><feOffset dx="4.0" dy="4.0" in="blurOut2" result="blurOut3"/><feBlend in="SourceGraphic" in2="blurOut3" mode="normal"/></filter></defs><g><text fill="#000000" font-family="sans-serif" font-size="18" lengthAdjust="spacingAndGlyphs" textLength="116" x="123.5" y="16.708">Utilisation de</text><text fill="#000000" font-family="sans-serif" font-size="18" font-weight="bold" lengthAdjust="spacingAndGlyphs" textLength="67" x="151" y="37.6611">Geogit</text><ellipse cx="83.5" cy="59.9063" fill="#FEFECE" filter="url(#f1)" rx="8" ry="8" style="stroke: #A80036; stroke-width: 2.0;"/><path d="M83.5,67.9063 L83.5,94.9063 M70.5,75.9063 L96.5,75.9063 M83.5,94.9063 L70.5,109.9063 M83.5,94.9063 L96.5,109.9063 " fill="#FEFECE" filter="url(#f1)" style="stroke: #A80036; stroke-width: 2.0;"/><text fill="#000000" font-family="sans-serif" font-size="14" lengthAdjust="spacingAndGlyphs" textLength="63" x="52" y="129.9014">Agent du</text><text fill="#000000" font-family="sans-serif" font-size="14" lengthAdjust="spacingAndGlyphs" textLength="63" x="52" y="146.1982">Service X</text><ellipse cx="83.5" cy="194.9063" fill="#FEFECE" filter="url(#f1)" rx="8" ry="8" style="stroke: #A80036; stroke-width: 2.0;"/><path d="M83.5,202.9063 L83.5,229.9063 M70.5,210.9063 L96.5,210.9063 M83.5,229.9063 L70.5,244.9063 M83.5,229.9063 L96.5,244.9063 " fill="#FEFECE" filter="url(#f1)" style="stroke: #A80036; stroke-width: 2.0;"/><text fill="#000000" font-family="sans-serif" font-size="14" lengthAdjust="spacingAndGlyphs" textLength="63" x="52" y="264.9014">Agent du</text><text fill="#000000" font-family="sans-serif" font-size="14" lengthAdjust="spacingAndGlyphs" textLength="155" x="6" y="281.1982">Service Gestionnaire Y</text><ellipse cx="83.5" cy="329.9063" fill="#FF0000" filter="url(#f1)" rx="8" ry="8" style="stroke: #A80036; stroke-width: 2.0;"/><path d="M83.5,337.9063 L83.5,364.9063 M70.5,345.9063 L96.5,345.9063 M83.5,364.9063 L70.5,379.9063 M83.5,364.9063 L96.5,379.9063 " fill="#FF0000" filter="url(#f1)" style="stroke: #A80036; stroke-width: 2.0;"/><text fill="#000000" font-family="sans-serif" font-size="14" lengthAdjust="spacingAndGlyphs" textLength="63" x="52" y="399.9014">Agent du</text><text fill="#000000" font-family="sans-serif" font-size="14" lengthAdjust="spacingAndGlyphs" textLength="50" x="58.5" y="416.1982">Service</text><text fill="#000000" font-family="sans-serif" font-size="14" lengthAdjust="spacingAndGlyphs" textLength="89" x="39" y="432.4951">Cartographie</text><ellipse cx="83.5" cy="480.9063" fill="#FEFECE" filter="url(#f1)" rx="8" ry="8" style="stroke: #A80036; stroke-width: 2.0;"/><path d="M83.5,488.9063 L83.5,515.9063 M70.5,496.9063 L96.5,496.9063 M83.5,515.9063 L70.5,530.9063 M83.5,515.9063 L96.5,530.9063 " fill="#FEFECE" filter="url(#f1)" style="stroke: #A80036; stroke-width: 2.0;"/><text fill="#000000" font-family="sans-serif" font-size="14" lengthAdjust="spacingAndGlyphs" textLength="74" x="46.5" y="550.9014">Prestataire</text><text fill="#000000" font-family="sans-serif" font-size="14" lengthAdjust="spacingAndGlyphs" textLength="70" x="48.5" y="567.1982">Géomètre</text><ellipse cx="285.8159" cy="492.146" fill="#FEFECE" filter="url(#f1)" rx="60.3159" ry="25.2398" style="stroke: #A80036; stroke-width: 1.5;"/><text fill="#000000" font-family="sans-serif" font-size="14" lengthAdjust="spacingAndGlyphs" textLength="84" x="243.8159" y="489.8095">Constitution</text><text fill="#000000" font-family="sans-serif" font-size="14" lengthAdjust="spacingAndGlyphs" textLength="71" x="250.3159" y="506.1064">de la base</text><ellipse cx="285.8089" cy="377.7258" fill="#FEFECE" filter="url(#f1)" rx="54.8089" ry="25.8196" style="stroke: #A80036; stroke-width: 1.5;"/><text fill="#000000" font-family="sans-serif" font-size="14" lengthAdjust="spacingAndGlyphs" textLength="74" x="248.8089" y="374.5495">Mise à Jour</text><text fill="#000000" font-family="sans-serif" font-size="14" lengthAdjust="spacingAndGlyphs" textLength="71" x="250.3089" y="390.8463">de la base</text><ellipse cx="285.8527" cy="257.776" fill="#FEFECE" filter="url(#f1)" rx="64.8527" ry="35.8697" style="stroke: #A80036; stroke-width: 1.5;"/><text fill="#000000" font-family="sans-serif" font-size="14" lengthAdjust="spacingAndGlyphs" textLength="92" x="239.8527" y="248.5991">Interrogation,</text><text fill="#000000" font-family="sans-serif" font-size="14" lengthAdjust="spacingAndGlyphs" textLength="52" x="259.8527" y="264.896">Lecture</text><text fill="#000000" font-family="sans-serif" font-size="14" lengthAdjust="spacingAndGlyphs" textLength="71" x="250.3527" y="281.1928">de la base</text><path d="M128.006,402.6423 C162.836,422.4462 211.294,449.9983 245.128,469.2363 " fill="none" style="stroke: #A80036; stroke-width: 1.0;"/><polygon fill="#A80036" points="249.595,471.7755,243.7491,463.8492,245.2487,469.3037,239.7942,470.8033,249.595,471.7755" style="stroke: #A80036; stroke-width: 1.0;"/><path d="M120.809,515.6546 C149.302,511.5334 189.623,505.7014 223.177,500.8483 " fill="none" style="stroke: #A80036; stroke-width: 1.0;"/><polygon fill="#A80036" points="228.501,500.0782,219.0211,497.4076,223.5525,500.7939,220.1662,505.3252,228.501,500.0782" style="stroke: #A80036; stroke-width: 1.0;"/><path d="M154.625,284.9203 C187.104,308.0853 224.234,334.5673 250.541,353.3293 " fill="none" style="stroke: #A80036; stroke-width: 1.0;"/><polygon fill="#A80036" points="254.667,356.2723,249.661,347.7905,250.5958,353.3696,245.0167,354.3044,254.667,356.2723" style="stroke: #A80036; stroke-width: 1.0;"/><path d="M128.006,377.9063 C156.531,377.9063 194.195,377.9063 225.482,377.9063 " fill="none" style="stroke: #A80036; stroke-width: 1.0;"/><polygon fill="#A80036" points="230.845,377.9063,221.845,373.9063,225.845,377.9063,221.845,381.9063,230.845,377.9063" style="stroke: #A80036; stroke-width: 1.0;"/><path d="M120.809,495.0101 C157.679,468.7143 214.352,428.2933 250.542,402.4823 " fill="none" style="stroke: #A80036; stroke-width: 1.0;"/><polygon fill="#A80036" points="254.851,399.4093,245.2007,401.3771,250.7798,402.3119,249.845,407.891,254.851,399.4093" style="stroke: #A80036; stroke-width: 1.0;"/><path d="M115.389,124.2473 C149.834,151.3913 205.708,195.4213 243.842,225.4722 " fill="none" style="stroke: #A80036; stroke-width: 1.0;"/><polygon fill="#A80036" points="247.938,228.7002,243.3463,219.9873,244.0113,225.6049,238.3937,226.27,247.938,228.7002" style="stroke: #A80036; stroke-width: 1.0;"/><path d="M161.159,243.7002 C179.55,245.8093 199.064,248.0483 217.03,250.1092 " fill="none" style="stroke: #A80036; stroke-width: 1.0;"/><polygon fill="#A80036" points="222.054,250.6853,213.5687,245.6853,217.0866,250.1152,212.6567,253.6331,222.054,250.6853" style="stroke: #A80036; stroke-width: 1.0;"/><path d="M128.006,351.8683 C160.081,332.6713 203.712,306.5573 236.837,286.7323 " fill="none" style="stroke: #A80036; stroke-width: 1.0;"/><polygon fill="#A80036" points="241.234,284.1003,231.4572,285.2892,236.9435,286.6677,235.5651,292.154,241.234,284.1003" style="stroke: #A80036; stroke-width: 1.0;"/><path d="M120.687,493.6056 C134.428,482.0622 149.517,467.8373 161,452.9063 C197.108,405.9543 188.369,383.3393 221,333.9063 C230.05,320.1962 241.224,306.1693 251.689,293.9583 " fill="none" style="stroke: #A80036; stroke-width: 1.0;"/><polygon fill="#A80036" points="255.206,289.8893,246.2942,294.0821,251.9362,293.6719,252.3465,299.3138,255.206,289.8893" style="stroke: #A80036; stroke-width: 1.0;"/></g></svg>