<?xml version="1.0" encoding="UTF-8" standalone="yes"?><svg xmlns="http://www.w3.org/2000/svg" xmlns:xlink="http://www.w3.org/1999/xlink" height="637px" style="width:589px;height:637px;" version="1.1" viewBox="0 0 589 637" width="589px"><defs><filter height="300%" id="f1" width="300%" x="-1" y="-1"><feGaussianBlur result="blurOut" stdDeviation="2.0"/><feColorMatrix in="blurOut" result="blurOut2" type="matrix" values="0 0 0 0 0 0 0 0 0 0 0 0 0 0 0 0 0 0 .4 0"/><feOffset dx="4.0" dy="4.0" in="blurOut2" result="blurOut3"/><feBlend in="SourceGraphic" in2="blurOut3" mode="normal"/></filter></defs><g><line style="stroke: #A80036; stroke-width: 1.0; stroke-dasharray: 5.0,5.0;" x1="42" x2="42" y1="86.2969" y2="553.2891"/><line style="stroke: #A80036; stroke-width: 1.0; stroke-dasharray: 5.0,5.0;" x1="217" x2="217" y1="86.2969" y2="553.2891"/><line style="stroke: #A80036; stroke-width: 1.0; stroke-dasharray: 5.0,5.0;" x1="400" x2="400" y1="86.2969" y2="553.2891"/><text fill="#000000" font-family="sans-serif" font-size="14" lengthAdjust="spacingAndGlyphs" textLength="63" x="8" y="82.9951">Service X</text><ellipse cx="42.5" cy="13" fill="#008000" filter="url(#f1)" rx="8" ry="8" style="stroke: #A80036; stroke-width: 2.0;"/><path d="M42.5,21 L42.5,48 M29.5,29 L55.5,29 M42.5,48 L29.5,63 M42.5,48 L55.5,63 " fill="#008000" filter="url(#f1)" style="stroke: #A80036; stroke-width: 2.0;"/><text fill="#000000" font-family="sans-serif" font-size="14" lengthAdjust="spacingAndGlyphs" textLength="63" x="8" y="565.2842">Service X</text><ellipse cx="42.5" cy="578.5859" fill="#008000" filter="url(#f1)" rx="8" ry="8" style="stroke: #A80036; stroke-width: 2.0;"/><path d="M42.5,586.5859 L42.5,613.5859 M29.5,594.5859 L55.5,594.5859 M42.5,613.5859 L29.5,628.5859 M42.5,613.5859 L55.5,628.5859 " fill="#008000" filter="url(#f1)" style="stroke: #A80036; stroke-width: 2.0;"/><text fill="#000000" font-family="sans-serif" font-size="14" lengthAdjust="spacingAndGlyphs" textLength="143" x="143" y="82.9951">Service Cartographie</text><ellipse cx="217.5" cy="13" fill="#FF0000" filter="url(#f1)" rx="8" ry="8" style="stroke: #A80036; stroke-width: 2.0;"/><path d="M217.5,21 L217.5,48 M204.5,29 L230.5,29 M217.5,48 L204.5,63 M217.5,48 L230.5,63 " fill="#FF0000" filter="url(#f1)" style="stroke: #A80036; stroke-width: 2.0;"/><text fill="#000000" font-family="sans-serif" font-size="14" lengthAdjust="spacingAndGlyphs" textLength="143" x="143" y="565.2842">Service Cartographie</text><ellipse cx="217.5" cy="578.5859" fill="#FF0000" filter="url(#f1)" rx="8" ry="8" style="stroke: #A80036; stroke-width: 2.0;"/><path d="M217.5,586.5859 L217.5,613.5859 M204.5,594.5859 L230.5,594.5859 M217.5,613.5859 L204.5,628.5859 M217.5,613.5859 L230.5,628.5859 " fill="#FF0000" filter="url(#f1)" style="stroke: #A80036; stroke-width: 2.0;"/><text fill="#000000" font-family="sans-serif" font-size="14" lengthAdjust="spacingAndGlyphs" textLength="117" x="339" y="82.9951">Titulaire Marchés</text><ellipse cx="400.5" cy="13" fill="#FEFECE" filter="url(#f1)" rx="8" ry="8" style="stroke: #A80036; stroke-width: 2.0;"/><path d="M400.5,21 L400.5,48 M387.5,29 L413.5,29 M400.5,48 L387.5,63 M400.5,48 L413.5,63 " fill="#FEFECE" filter="url(#f1)" style="stroke: #A80036; stroke-width: 2.0;"/><text fill="#000000" font-family="sans-serif" font-size="14" lengthAdjust="spacingAndGlyphs" textLength="117" x="339" y="565.2842">Titulaire Marchés</text><ellipse cx="400.5" cy="578.5859" fill="#FEFECE" filter="url(#f1)" rx="8" ry="8" style="stroke: #A80036; stroke-width: 2.0;"/><path d="M400.5,586.5859 L400.5,613.5859 M387.5,594.5859 L413.5,594.5859 M400.5,613.5859 L387.5,628.5859 M400.5,613.5859 L413.5,628.5859 " fill="#FEFECE" filter="url(#f1)" style="stroke: #A80036; stroke-width: 2.0;"/><polygon fill="#A80036" points="205.5,113.2969,215.5,117.2969,205.5,121.2969,209.5,117.2969" style="stroke: #A80036; stroke-width: 1.0;"/><line style="stroke: #A80036; stroke-width: 1.0;" x1="42.5" x2="211.5" y1="117.2969" y2="117.2969"/><text fill="#000000" font-family="sans-serif" font-size="13" lengthAdjust="spacingAndGlyphs" textLength="151" x="49.5" y="112.3638">Besoin d'une prestation</text><line style="stroke: #A80036; stroke-width: 1.0; stroke-dasharray: 2.0,2.0;" x1="217.5" x2="259.5" y1="161.6953" y2="161.6953"/><line style="stroke: #A80036; stroke-width: 1.0; stroke-dasharray: 2.0,2.0;" x1="259.5" x2="259.5" y1="161.6953" y2="174.6953"/><line style="stroke: #A80036; stroke-width: 1.0; stroke-dasharray: 2.0,2.0;" x1="218.5" x2="259.5" y1="174.6953" y2="174.6953"/><polygon fill="#A80036" points="228.5,170.6953,218.5,174.6953,228.5,178.6953,224.5,174.6953" style="stroke: #A80036; stroke-width: 1.0;"/><text fill="#000000" font-family="sans-serif" font-size="13" lengthAdjust="spacingAndGlyphs" textLength="162" x="224.5" y="141.4966">Vérification de l'existence</text><text fill="#000000" font-family="sans-serif" font-size="13" lengthAdjust="spacingAndGlyphs" textLength="87" x="224.5" y="156.6294">de la réponse</text><polygon fill="#A80036" points="53.5,199.6953,43.5,203.6953,53.5,207.6953,49.5,203.6953" style="stroke: #A80036; stroke-width: 1.0;"/><polygon fill="#A80036" points="388.5,199.6953,398.5,203.6953,388.5,207.6953,392.5,203.6953" style="stroke: #A80036; stroke-width: 1.0;"/><line style="stroke: #A80036; stroke-width: 1.0;" x1="47.5" x2="394.5" y1="203.6953" y2="203.6953"/><text fill="#000000" font-family="sans-serif" font-size="13" lengthAdjust="spacingAndGlyphs" textLength="299" x="59.5" y="198.7622">En commun : Définition précise de la demande</text><polygon fill="#A80036" points="388.5,228.8281,398.5,232.8281,388.5,236.8281,392.5,232.8281" style="stroke: #A80036; stroke-width: 1.0;"/><line style="stroke: #A80036; stroke-width: 1.0; stroke-dasharray: 2.0,2.0;" x1="217.5" x2="394.5" y1="232.8281" y2="232.8281"/><text fill="#000000" font-family="sans-serif" font-size="13" lengthAdjust="spacingAndGlyphs" textLength="120" x="224.5" y="227.895">Demande de devis</text><polygon fill="#A80036" points="228.5,257.9609,218.5,261.9609,228.5,265.9609,224.5,261.9609" style="stroke: #A80036; stroke-width: 1.0;"/><line style="stroke: #A80036; stroke-width: 1.0; stroke-dasharray: 2.0,2.0;" x1="222.5" x2="399.5" y1="261.9609" y2="261.9609"/><text fill="#000000" font-family="sans-serif" font-size="13" lengthAdjust="spacingAndGlyphs" textLength="35" x="234.5" y="257.0278">Devis</text><polygon fill="#A80036" points="388.5,287.0938,398.5,291.0938,388.5,295.0938,392.5,291.0938" style="stroke: #A80036; stroke-width: 1.0;"/><line style="stroke: #A80036; stroke-width: 1.0;" x1="217.5" x2="394.5" y1="291.0938" y2="291.0938"/><text fill="#000000" font-family="sans-serif" font-size="13" lengthAdjust="spacingAndGlyphs" textLength="122" x="224.5" y="286.1606">Bon de commande</text><line style="stroke: #A80036; stroke-width: 1.0; stroke-dasharray: 2.0,2.0;" x1="400.5" x2="442.5" y1="335.4922" y2="335.4922"/><line style="stroke: #A80036; stroke-width: 1.0; stroke-dasharray: 2.0,2.0;" x1="442.5" x2="442.5" y1="335.4922" y2="348.4922"/><line style="stroke: #A80036; stroke-width: 1.0; stroke-dasharray: 2.0,2.0;" x1="401.5" x2="442.5" y1="348.4922" y2="348.4922"/><polygon fill="#A80036" points="411.5,344.4922,401.5,348.4922,411.5,352.4922,407.5,348.4922" style="stroke: #A80036; stroke-width: 1.0;"/><text fill="#000000" font-family="sans-serif" font-size="13" lengthAdjust="spacingAndGlyphs" textLength="181" x="407.5" y="315.2935">Réalisation de la prestation :</text><text fill="#000000" font-family="sans-serif" font-size="13" lengthAdjust="spacingAndGlyphs" textLength="130" x="407.5" y="330.4263">Observations terrain</text><line style="stroke: #FFFFFF; stroke-width: 1.0; stroke-dasharray: 2.0,2.0;" x1="217.5" x2="259.5" y1="392.7578" y2="392.7578"/><line style="stroke: #FFFFFF; stroke-width: 1.0; stroke-dasharray: 2.0,2.0;" x1="259.5" x2="259.5" y1="392.7578" y2="405.7578"/><line style="stroke: #FFFFFF; stroke-width: 1.0; stroke-dasharray: 2.0,2.0;" x1="218.5" x2="259.5" y1="405.7578" y2="405.7578"/><polygon fill="#FFFFFF" points="228.5,401.7578,218.5,405.7578,228.5,409.7578,224.5,405.7578" style="stroke: #FFFFFF; stroke-width: 1.0;"/><text fill="#000000" font-family="sans-serif" font-size="13" lengthAdjust="spacingAndGlyphs" textLength="141" x="224.5" y="372.5591">Contrôle géométrie et</text><text fill="#000000" font-family="sans-serif" font-size="13" lengthAdjust="spacingAndGlyphs" textLength="169" x="224.5" y="387.6919">Structuration informatique</text><line style="stroke: #A80036; stroke-width: 1.0; stroke-dasharray: 2.0,2.0;" x1="400.5" x2="442.5" y1="434.8906" y2="434.8906"/><line style="stroke: #A80036; stroke-width: 1.0; stroke-dasharray: 2.0,2.0;" x1="442.5" x2="442.5" y1="434.8906" y2="447.8906"/><line style="stroke: #A80036; stroke-width: 1.0; stroke-dasharray: 2.0,2.0;" x1="401.5" x2="442.5" y1="447.8906" y2="447.8906"/><polygon fill="#A80036" points="411.5,443.8906,401.5,447.8906,411.5,451.8906,407.5,447.8906" style="stroke: #A80036; stroke-width: 1.0;"/><text fill="#000000" font-family="sans-serif" font-size="13" lengthAdjust="spacingAndGlyphs" textLength="150" x="407.5" y="429.8247">Corrections éventuelles</text><polygon fill="#A80036" points="228.5,472.8906,218.5,476.8906,228.5,480.8906,224.5,476.8906" style="stroke: #A80036; stroke-width: 1.0;"/><line style="stroke: #A80036; stroke-width: 1.0;" x1="222.5" x2="399.5" y1="476.8906" y2="476.8906"/><text fill="#000000" font-family="sans-serif" font-size="13" lengthAdjust="spacingAndGlyphs" textLength="63" x="234.5" y="471.9575">Validation</text><polygon fill="#A80036" points="53.5,502.0234,43.5,506.0234,53.5,510.0234,49.5,506.0234" style="stroke: #A80036; stroke-width: 1.0;"/><line style="stroke: #A80036; stroke-width: 1.0;" x1="47.5" x2="216.5" y1="506.0234" y2="506.0234"/><text fill="#000000" font-family="sans-serif" font-size="13" lengthAdjust="spacingAndGlyphs" textLength="113" x="59.5" y="501.0903">Mise à disposition</text><polygon fill="#A80036" points="388.5,531.1563,398.5,535.1563,388.5,539.1563,392.5,535.1563" style="stroke: #A80036; stroke-width: 1.0;"/><line style="stroke: #A80036; stroke-width: 1.0;" x1="217.5" x2="394.5" y1="535.1563" y2="535.1563"/><text fill="#000000" font-family="sans-serif" font-size="13" lengthAdjust="spacingAndGlyphs" textLength="156" x="224.5" y="530.2231">Liquidation de la Facture</text></g></svg>