<?xml version="1.0" encoding="UTF-8" standalone="no"?>
<!DOCTYPE svg PUBLIC "-//W3C//DTD SVG 1.1//EN"
 "http://www.w3.org/Graphics/SVG/1.1/DTD/svg11.dtd">
<!-- Generated by graphviz version 2.38.0 (20140413.2041)
 -->
<!-- Title: G1 Pages: 1 -->
<svg width="1560pt" height="251pt"
 viewBox="0.00 0.00 1560.00 251.00" xmlns="http://www.w3.org/2000/svg" xmlns:xlink="http://www.w3.org/1999/xlink">
<g id="graph0" class="graph" transform="scale(1 1) rotate(0) translate(4 247)">
<title>G1</title>
<polygon fill="snow" stroke="none" points="-4,4 -4,-247 1556,-247 1556,4 -4,4"/>
<!-- P101 -->
<g id="node1" class="node"><title>P101</title>
<polygon fill="#7fc97f" stroke="#7fc97f" points="808.5,-196.5 808.5,-242.5 974.5,-242.5 974.5,-196.5 808.5,-196.5"/>
<text text-anchor="middle" x="891.5" y="-227.3" font-family="verdana" font-size="14.00">Direction de la Voirie</text>
<polyline fill="none" stroke="#7fc97f" points="808.5,-219.5 974.5,-219.5 "/>
<text text-anchor="middle" x="891.5" y="-204.3" font-family="verdana" font-size="14.00">Sébastien Codet</text>
</g>
<!-- P202 -->
<g id="node2" class="node"><title>P202</title>
<polygon fill="#beaed4" stroke="#beaed4" points="0,-106 0,-152 323,-152 323,-106 0,-106"/>
<text text-anchor="middle" x="161.5" y="-136.8" font-family="verdana" font-size="14.00">Mission Mode doux de déplacement Urbain</text>
<polyline fill="none" stroke="#beaed4" points="0,-129 323,-129 "/>
<text text-anchor="middle" x="161.5" y="-113.8" font-family="verdana" font-size="14.00">Birgitta Morin</text>
</g>
<!-- P101&#45;&gt;P202 -->
<g id="edge1" class="edge"><title>P101&#45;&gt;P202</title>
<path fill="none" stroke="black" d="M808.47,-227C617.138,-227 161.5,-227 161.5,-227 161.5,-227 161.5,-162.225 161.5,-162.225"/>
<polygon fill="black" stroke="black" points="165,-162.225 161.5,-152.225 158,-162.225 165,-162.225"/>
</g>
<!-- P203 -->
<g id="node3" class="node"><title>P203</title>
<polygon fill="#beaed4" stroke="#beaed4" points="395,-98.5 395,-159.5 580,-159.5 580,-98.5 395,-98.5"/>
<text text-anchor="middle" x="487.5" y="-144.3" font-family="verdana" font-size="14.00">Service Éclairage public</text>
<text text-anchor="middle" x="487.5" y="-129.3" font-family="verdana" font-size="14.00">Signalisation Tricolore</text>
<polyline fill="none" stroke="#beaed4" points="395,-121.5 580,-121.5 "/>
<text text-anchor="middle" x="487.5" y="-106.3" font-family="verdana" font-size="14.00">Olivier Golinvaux</text>
</g>
<!-- P101&#45;&gt;P203 -->
<g id="edge2" class="edge"><title>P101&#45;&gt;P203</title>
<path fill="none" stroke="black" d="M808.281,-211C690.015,-211 487.5,-211 487.5,-211 487.5,-211 487.5,-169.534 487.5,-169.534"/>
<polygon fill="black" stroke="black" points="491,-169.534 487.5,-159.534 484,-169.534 491,-169.534"/>
</g>
<!-- P204 -->
<g id="node4" class="node"><title>P204</title>
<polygon fill="#beaed4" stroke="#beaed4" points="652.5,-98.5 652.5,-159.5 870.5,-159.5 870.5,-98.5 652.5,-98.5"/>
<text text-anchor="middle" x="761.5" y="-144.3" font-family="verdana" font-size="14.00">Unité Assainissement pluvial</text>
<text text-anchor="middle" x="761.5" y="-129.3" font-family="verdana" font-size="14.00">et Protection du littoral</text>
<polyline fill="none" stroke="#beaed4" points="652.5,-121.5 870.5,-121.5 "/>
<text text-anchor="middle" x="761.5" y="-106.3" font-family="verdana" font-size="14.00">Séverine Teyssot</text>
</g>
<!-- P101&#45;&gt;P204 -->
<g id="edge3" class="edge"><title>P101&#45;&gt;P204</title>
<path fill="none" stroke="black" d="M839.5,-196.194C839.5,-196.194 839.5,-169.738 839.5,-169.738"/>
<polygon fill="black" stroke="black" points="843,-169.738 839.5,-159.738 836,-169.738 843,-169.738"/>
</g>
<!-- P205 -->
<g id="node5" class="node"><title>P205</title>
<polygon fill="#beaed4" stroke="#beaed4" points="942.5,-106 942.5,-152 1100.5,-152 1100.5,-106 942.5,-106"/>
<text text-anchor="middle" x="1021.5" y="-136.8" font-family="verdana" font-size="14.00">Unité Déplacements</text>
<polyline fill="none" stroke="#beaed4" points="942.5,-129 1100.5,-129 "/>
<text text-anchor="middle" x="1021.5" y="-113.8" font-family="verdana" font-size="14.00">Pascal Laffargue</text>
</g>
<!-- P101&#45;&gt;P205 -->
<g id="edge4" class="edge"><title>P101&#45;&gt;P205</title>
<path fill="none" stroke="black" d="M958.5,-196.194C958.5,-196.194 958.5,-162.227 958.5,-162.227"/>
<polygon fill="black" stroke="black" points="962,-162.227 958.5,-152.227 955,-162.227 962,-162.227"/>
</g>
<!-- P206 -->
<g id="node6" class="node"><title>P206</title>
<polygon fill="#beaed4" stroke="#beaed4" points="1172.5,-106 1172.5,-152 1318.5,-152 1318.5,-106 1172.5,-106"/>
<text text-anchor="middle" x="1245.5" y="-136.8" font-family="verdana" font-size="14.00">Unité Topographie</text>
<polyline fill="none" stroke="#beaed4" points="1172.5,-129 1318.5,-129 "/>
<text text-anchor="middle" x="1245.5" y="-113.8" font-family="verdana" font-size="14.00">Frédéric Garel</text>
</g>
<!-- P101&#45;&gt;P206 -->
<g id="edge5" class="edge"><title>P101&#45;&gt;P206</title>
<path fill="none" stroke="black" d="M974.945,-211C1079.6,-211 1245.5,-211 1245.5,-211 1245.5,-211 1245.5,-162.279 1245.5,-162.279"/>
<polygon fill="black" stroke="black" points="1249,-162.279 1245.5,-152.279 1242,-162.279 1249,-162.279"/>
</g>
<!-- P207 -->
<g id="node7" class="node"><title>P207</title>
<polygon fill="#beaed4" stroke="#beaed4" points="1391,-106 1391,-152 1552,-152 1552,-106 1391,-106"/>
<text text-anchor="middle" x="1471.5" y="-136.8" font-family="verdana" font-size="14.00">Unité Voirie Travaux</text>
<polyline fill="none" stroke="#beaed4" points="1391,-129 1552,-129 "/>
<text text-anchor="middle" x="1471.5" y="-113.8" font-family="verdana" font-size="14.00">David Germaneau</text>
</g>
<!-- P101&#45;&gt;P207 -->
<g id="edge6" class="edge"><title>P101&#45;&gt;P207</title>
<path fill="none" stroke="black" d="M974.6,-227C1134.98,-227 1471.5,-227 1471.5,-227 1471.5,-227 1471.5,-162.225 1471.5,-162.225"/>
<polygon fill="black" stroke="black" points="1475,-162.225 1471.5,-152.225 1468,-162.225 1475,-162.225"/>
</g>
<!-- P308 -->
<g id="node8" class="node"><title>P308</title>
<polygon fill="#fdc086" stroke="#fdc086" points="243.5,-0.5 243.5,-61.5 583.5,-61.5 583.5,-0.5 243.5,-0.5"/>
<text text-anchor="middle" x="413.5" y="-46.3" font-family="verdana" font-size="14.00">Organisation technique</text>
<text text-anchor="middle" x="413.5" y="-31.3" font-family="verdana" font-size="14.00">Programmation Etudes Commandes DT/DICT</text>
<polyline fill="none" stroke="#fdc086" points="243.5,-23.5 583.5,-23.5 "/>
<text text-anchor="middle" x="413.5" y="-8.3" font-family="verdana" font-size="14.00">Sébastien Paillé</text>
</g>
<!-- P203&#45;&gt;P308 -->
<g id="edge7" class="edge"><title>P203&#45;&gt;P308</title>
<path fill="none" stroke="black" d="M487.5,-98.2611C487.5,-98.2611 487.5,-71.6299 487.5,-71.6299"/>
<polygon fill="black" stroke="black" points="491,-71.6298 487.5,-61.6299 484,-71.6299 491,-71.6298"/>
</g>
<!-- P309 -->
<g id="node9" class="node"><title>P309</title>
<polygon fill="#fdc086" stroke="#fdc086" points="656,-8 656,-54 1015,-54 1015,-8 656,-8"/>
<text text-anchor="middle" x="835.5" y="-38.8" font-family="verdana" font-size="14.00">Réseau pluvial &#45; Protection Littorale Exploitation</text>
<polyline fill="none" stroke="#fdc086" points="656,-31 1015,-31 "/>
<text text-anchor="middle" x="835.5" y="-15.8" font-family="verdana" font-size="14.00">Jean&#45;Yves Oberlin</text>
</g>
<!-- P204&#45;&gt;P309 -->
<g id="edge8" class="edge"><title>P204&#45;&gt;P309</title>
<path fill="none" stroke="black" d="M763.25,-98.2611C763.25,-98.2611 763.25,-64.1635 763.25,-64.1635"/>
<polygon fill="black" stroke="black" points="766.75,-64.1635 763.25,-54.1635 759.75,-64.1636 766.75,-64.1635"/>
</g>
</g>
</svg>
