<?xml version="1.0"?>
<!DOCTYPE svg PUBLIC "-//W3C//DTD SVG 1.0//EN" "http://www.w3.org/TR/2001/REC-SVG-20010904/DTD/svg10.dtd">
<!-- Generated by graphviz version 2.38.0 (20140413.2041)
 -->
<!-- Title: G1 Pages: 1 -->
<svg xmlns="http://www.w3.org/2000/svg" xmlns:svg="http://www.w3.org/2000/svg" width="1560pt" height="251pt" viewBox="0.00 0.00 1560.00 251.00"><defs><linearGradient id="white" x1="0%" y1="0%" x2="0%" y2="0%"><stop offset="0%" style="stop-color:rgb(255,255,255);stop-opacity:1"/></linearGradient><linearGradient id="black" x1="0%" y1="0%" x2="0%" y2="0%"><stop offset="0%" style="stop-color:rgb(0,0,0);stop-opacity:1"/></linearGradient><linearGradient id="aquamarine" x1="0%" y1="0%" x2="100%" y2="100%"><stop offset="0%" style="stop-color:rgb(255,255,255);stop-opacity:1"/><stop offset="100%" style="stop-color:rgb(127,255,212);stop-opacity:1"/></linearGradient><linearGradient id="azure" x1="0%" y1="0%" x2="100%" y2="100%"><stop offset="0%" style="stop-color:rgb(255,255,255);stop-opacity:1"/><stop offset="100%" style="stop-color:rgb(240,255,255);stop-opacity:1"/></linearGradient><linearGradient id="blue" x1="0%" y1="0%" x2="100%" y2="100%"><stop offset="0%" style="stop-color:rgb(255,255,255);stop-opacity:1"/><stop offset="100%" style="stop-color:rgb(0,0,255);stop-opacity:1"/></linearGradient><linearGradient id="blueviolet" x1="0%" y1="0%" x2="100%" y2="100%"><stop offset="0%" style="stop-color:rgb(255,255,255);stop-opacity:1"/><stop offset="100%" style="stop-color:rgb(138,43,226);stop-opacity:1"/></linearGradient><linearGradient id="brown" x1="0%" y1="0%" x2="100%" y2="100%"><stop offset="0%" style="stop-color:rgb(255,255,255);stop-opacity:1"/><stop offset="100%" style="stop-color:rgb(165,42,42);stop-opacity:1"/></linearGradient><linearGradient id="cadetblue" x1="0%" y1="0%" x2="100%" y2="100%"><stop offset="0%" style="stop-color:rgb(255,255,255);stop-opacity:1"/><stop offset="100%" style="stop-color:rgb(95,158,160);stop-opacity:1"/></linearGradient><linearGradient id="chocolate" x1="0%" y1="0%" x2="100%" y2="100%"><stop offset="0%" style="stop-color:rgb(255,255,255);stop-opacity:1"/><stop offset="100%" style="stop-color:rgb(210,105,30);stop-opacity:1"/></linearGradient><linearGradient id="cornflowerblue" x1="0%" y1="0%" x2="100%" y2="100%"><stop offset="0%" style="stop-color:rgb(255,255,255);stop-opacity:1"/><stop offset="100%" style="stop-color:rgb(100,149,237);stop-opacity:1"/></linearGradient><linearGradient id="crimson" x1="0%" y1="0%" x2="100%" y2="100%"><stop offset="0%" style="stop-color:rgb(255,255,255);stop-opacity:1"/><stop offset="100%" style="stop-color:rgb(220,20,60);stop-opacity:1"/></linearGradient><linearGradient id="cyan" x1="0%" y1="0%" x2="100%" y2="100%"><stop offset="0%" style="stop-color:rgb(255,255,255);stop-opacity:1"/><stop offset="100%" style="stop-color:rgb(0,255,255);stop-opacity:1"/></linearGradient><linearGradient id="darkgreen" x1="0%" y1="0%" x2="100%" y2="100%"><stop offset="0%" style="stop-color:rgb(255,255,255);stop-opacity:1"/><stop offset="100%" style="stop-color:rgb(0,100,0);stop-opacity:1"/></linearGradient><linearGradient id="darkorange" x1="0%" y1="0%" x2="100%" y2="100%"><stop offset="0%" style="stop-color:rgb(255,255,255);stop-opacity:1"/><stop offset="100%" style="stop-color:rgb(255,140,0);stop-opacity:1"/></linearGradient><linearGradient id="gold" x1="0%" y1="0%" x2="100%" y2="100%"><stop offset="0%" style="stop-color:rgb(255,255,255);stop-opacity:1"/><stop offset="100%" style="stop-color:rgb(255,215,0);stop-opacity:1"/></linearGradient><linearGradient id="gray" x1="0%" y1="0%" x2="100%" y2="100%"><stop offset="0%" style="stop-color:rgb(255,255,255);stop-opacity:1"/><stop offset="100%" style="stop-color:rgb(192,192,192);stop-opacity:1"/></linearGradient><linearGradient id="greenyellow" x1="0%" y1="0%" x2="100%" y2="100%"><stop offset="0%" style="stop-color:rgb(255,255,255);stop-opacity:1"/><stop offset="100%" style="stop-color:rgb(173,255,47);stop-opacity:1"/></linearGradient><linearGradient id="green" x1="0%" y1="0%" x2="100%" y2="100%"><stop offset="0%" style="stop-color:rgb(255,255,255);stop-opacity:1"/><stop offset="100%" style="stop-color:rgb(0,255,0);stop-opacity:1"/></linearGradient><linearGradient id="grey" x1="0%" y1="0%" x2="100%" y2="100%"><stop offset="0%" style="stop-color:rgb(255,255,255);stop-opacity:1"/><stop offset="100%" style="stop-color:rgb(192,192,192);stop-opacity:1"/></linearGradient><linearGradient id="hotpink" x1="0%" y1="0%" x2="100%" y2="100%"><stop offset="0%" style="stop-color:rgb(255,255,255);stop-opacity:1"/><stop offset="100%" style="stop-color:rgb(255,105,180);stop-opacity:1"/></linearGradient><linearGradient id="indianred" x1="0%" y1="0%" x2="100%" y2="100%"><stop offset="0%" style="stop-color:rgb(255,255,255);stop-opacity:1"/><stop offset="100%" style="stop-color:rgb(205,92,92);stop-opacity:1"/></linearGradient><linearGradient id="indigo" x1="0%" y1="0%" x2="100%" y2="100%"><stop offset="0%" style="stop-color:rgb(255,255,255);stop-opacity:1"/><stop offset="100%" style="stop-color:rgb(75,0,130);stop-opacity:1"/></linearGradient><linearGradient id="lavender" x1="0%" y1="0%" x2="100%" y2="100%"><stop offset="0%" style="stop-color:rgb(255,255,255);stop-opacity:1"/><stop offset="100%" style="stop-color:rgb(230,230,250);stop-opacity:1"/></linearGradient><linearGradient id="lightblue" x1="0%" y1="0%" x2="100%" y2="100%"><stop offset="0%" style="stop-color:rgb(255,255,255);stop-opacity:1"/><stop offset="100%" style="stop-color:rgb(173,216,230);stop-opacity:1"/></linearGradient><linearGradient id="lightgray" x1="0%" y1="0%" x2="100%" y2="100%"><stop offset="0%" style="stop-color:rgb(255,255,255);stop-opacity:1"/><stop offset="100%" style="stop-color:rgb(211,211,211);stop-opacity:1"/></linearGradient><linearGradient id="lightgrey" x1="0%" y1="0%" x2="100%" y2="100%"><stop offset="0%" style="stop-color:rgb(255,255,255);stop-opacity:1"/><stop offset="100%" style="stop-color:rgb(211,211,211);stop-opacity:1"/></linearGradient><linearGradient id="magenta" x1="0%" y1="0%" x2="100%" y2="100%"><stop offset="0%" style="stop-color:rgb(255,255,255);stop-opacity:1"/><stop offset="100%" style="stop-color:rgb(255,0,255);stop-opacity:1"/></linearGradient><linearGradient id="maroon" x1="0%" y1="0%" x2="100%" y2="100%"><stop offset="0%" style="stop-color:rgb(255,255,255);stop-opacity:1"/><stop offset="100%" style="stop-color:rgb(176,48,96);stop-opacity:1"/></linearGradient><linearGradient id="mediumblue" x1="0%" y1="0%" x2="100%" y2="100%"><stop offset="0%" style="stop-color:rgb(255,255,255);stop-opacity:1"/><stop offset="100%" style="stop-color:rgb(0,0,205);stop-opacity:1"/></linearGradient><linearGradient id="mediumpurple" x1="0%" y1="0%" x2="100%" y2="100%"><stop offset="0%" style="stop-color:rgb(255,255,255);stop-opacity:1"/><stop offset="100%" style="stop-color:rgb(147,112,219);stop-opacity:1"/></linearGradient><linearGradient id="orange" x1="0%" y1="0%" x2="100%" y2="100%"><stop offset="0%" style="stop-color:rgb(255,255,255);stop-opacity:1"/><stop offset="100%" style="stop-color:rgb(255,165,0);stop-opacity:1"/></linearGradient><linearGradient id="pink" x1="0%" y1="0%" x2="100%" y2="100%"><stop offset="0%" style="stop-color:rgb(255,255,255);stop-opacity:1"/><stop offset="100%" style="stop-color:rgb(255,192,203);stop-opacity:1"/></linearGradient><linearGradient id="purple" x1="0%" y1="0%" x2="100%" y2="100%"><stop offset="0%" style="stop-color:rgb(255,255,255);stop-opacity:1"/><stop offset="100%" style="stop-color:rgb(160,32,240);stop-opacity:1"/></linearGradient><linearGradient id="red" x1="0%" y1="0%" x2="100%" y2="100%"><stop offset="0%" style="stop-color:rgb(255,255,255);stop-opacity:1"/><stop offset="100%" style="stop-color:rgb(255,0,0);stop-opacity:1"/></linearGradient><linearGradient id="steelblue" x1="0%" y1="0%" x2="100%" y2="100%"><stop offset="0%" style="stop-color:rgb(255,255,255);stop-opacity:1"/><stop offset="100%" style="stop-color:rgb(70,130,180);stop-opacity:1"/></linearGradient><linearGradient id="violet" x1="0%" y1="0%" x2="100%" y2="100%"><stop offset="0%" style="stop-color:rgb(255,255,255);stop-opacity:1"/><stop offset="100%" style="stop-color:rgb(238,130,238);stop-opacity:1"/></linearGradient><linearGradient id="yellow" x1="0%" y1="0%" x2="100%" y2="100%"><stop offset="0%" style="stop-color:rgb(255,255,255);stop-opacity:1"/><stop offset="100%" style="stop-color:rgb(255,255,0);stop-opacity:1"/></linearGradient><linearGradient id="none" x1="0%" y1="0%" x2="100%" y2="100%"><stop offset="0%" style="stop-color:rgb(255,255,255);stop-opacity:1"/><stop offset="100%" style="stop-color:rgb(255,255,255);stop-opacity:1"/></linearGradient><linearGradient x1="0%" y1="0%" x2="100%" y2="100%" id="fill-7fc97f"><stop offset="0%" style="stop-color:rgb(255,255,255);stop-opacity:1"/><stop offset="100%" style="stop-color:#7fc97f;stop-opacity:1"/></linearGradient><linearGradient x1="0%" y1="0%" x2="100%" y2="100%" id="fill-beaed4"><stop offset="0%" style="stop-color:rgb(255,255,255);stop-opacity:1"/><stop offset="100%" style="stop-color:#beaed4;stop-opacity:1"/></linearGradient><linearGradient x1="0%" y1="0%" x2="100%" y2="100%" id="fill-fdc086"><stop offset="0%" style="stop-color:rgb(255,255,255);stop-opacity:1"/><stop offset="100%" style="stop-color:#fdc086;stop-opacity:1"/></linearGradient></defs>
<g id="graph0" class="graph" transform="scale(1 1) rotate(0) translate(4 247)"><polygon fill="snow" stroke="none" points="-4,4 -4,-247 1556,-247 1556,4 -4,4"/><title>G1</title><g id="node1" class="node"><polygon fill="#7fc97f" stroke="#7fc97f" points="808.5,-196.5 808.5,-242.5 974.5,-242.5 974.5,-196.5 808.5,-196.5" style="fill: black; stroke: none; fill-opacity:0.3" transform="translate(3,3)"/><path style="fill: black; stroke: none; fill-opacity:0.15" transform="translate(3,3)" d=" M808.5,-219.5 L974.5,-219.5 "/><polygon fill="#7fc97f" stroke="#7fc97f" points="808.5,-196.5 808.5,-242.5 974.5,-242.5 974.5,-196.5 808.5,-196.5" style="fill: url(#fill-7fc97f);stroke: #7fc97f;"/><path d=" M808.5,-219.5 L974.5,-219.5 " style="fill: none;stroke: black;"/><text text-anchor="middle" x="891.5" y="-227.3" font-family="verdana" font-size="14.00">Direction de la Voirie</text><text text-anchor="middle" x="891.5" y="-204.3" font-family="verdana" font-size="14.00">Sébastien Codet</text></g><g id="node2" class="node"><polygon fill="#beaed4" stroke="#beaed4" points="0,-106 0,-152 323,-152 323,-106 0,-106" style="fill: black; stroke: none; fill-opacity:0.3" transform="translate(3,3)"/><path style="fill: black; stroke: none; fill-opacity:0.15" transform="translate(3,3)" d=" M0,-129 L323,-129 "/><polygon fill="#beaed4" stroke="#beaed4" points="0,-106 0,-152 323,-152 323,-106 0,-106" style="fill: url(#fill-beaed4);stroke: #beaed4;"/><path d=" M0,-129 L323,-129 " style="fill: none;stroke: black;"/><text text-anchor="middle" x="161.5" y="-136.8" font-family="verdana" font-size="14.00">Mission Mode doux de déplacement Urbain</text><text text-anchor="middle" x="161.5" y="-113.8" font-family="verdana" font-size="14.00">Birgitta Morin</text></g><g id="edge1" class="edge"><polygon fill="black" stroke="black" points="165,-162.225 161.5,-152.225 158,-162.225 165,-162.225" style="fill: black; stroke: none; fill-opacity:0.3" transform="translate(3,3)"/><path fill="none" stroke="black" d="M808.47,-227C617.138,-227 161.5,-227 161.5,-227 161.5,-227 161.5,-162.225 161.5,-162.225" style="fill: none; stroke: black; stroke-opacity:0.3" transform="translate(3,3)"/><polygon fill="black" stroke="black" points="165,-162.225 161.5,-152.225 158,-162.225 165,-162.225" style="fill: url(#black);stroke: black;"/><path fill="none" stroke="black" d="M808.47,-227C617.138,-227 161.5,-227 161.5,-227 161.5,-227 161.5,-162.225 161.5,-162.225"/></g><g id="node3" class="node"><polygon fill="#beaed4" stroke="#beaed4" points="395,-98.5 395,-159.5 580,-159.5 580,-98.5 395,-98.5" style="fill: black; stroke: none; fill-opacity:0.3" transform="translate(3,3)"/><path style="fill: black; stroke: none; fill-opacity:0.15" transform="translate(3,3)" d=" M395,-121.5 L580,-121.5 "/><polygon fill="#beaed4" stroke="#beaed4" points="395,-98.5 395,-159.5 580,-159.5 580,-98.5 395,-98.5" style="fill: url(#fill-beaed4);stroke: #beaed4;"/><path d=" M395,-121.5 L580,-121.5 " style="fill: none;stroke: black;"/><text text-anchor="middle" x="487.5" y="-144.3" font-family="verdana" font-size="14.00">Service Éclairage public</text><text text-anchor="middle" x="487.5" y="-129.3" font-family="verdana" font-size="14.00">Signalisation Tricolore</text><text text-anchor="middle" x="487.5" y="-106.3" font-family="verdana" font-size="14.00">Olivier Golinvaux</text></g><g id="edge2" class="edge"><polygon fill="black" stroke="black" points="491,-169.534 487.5,-159.534 484,-169.534 491,-169.534" style="fill: black; stroke: none; fill-opacity:0.3" transform="translate(3,3)"/><path fill="none" stroke="black" d="M808.281,-211C690.015,-211 487.5,-211 487.5,-211 487.5,-211 487.5,-169.534 487.5,-169.534" style="fill: none; stroke: black; stroke-opacity:0.3" transform="translate(3,3)"/><polygon fill="black" stroke="black" points="491,-169.534 487.5,-159.534 484,-169.534 491,-169.534" style="fill: url(#black);stroke: black;"/><path fill="none" stroke="black" d="M808.281,-211C690.015,-211 487.5,-211 487.5,-211 487.5,-211 487.5,-169.534 487.5,-169.534"/></g><g id="node4" class="node"><polygon fill="#beaed4" stroke="#beaed4" points="652.5,-98.5 652.5,-159.5 870.5,-159.5 870.5,-98.5 652.5,-98.5" style="fill: black; stroke: none; fill-opacity:0.3" transform="translate(3,3)"/><path style="fill: black; stroke: none; fill-opacity:0.15" transform="translate(3,3)" d=" M652.5,-121.5 L870.5,-121.5 "/><polygon fill="#beaed4" stroke="#beaed4" points="652.5,-98.5 652.5,-159.5 870.5,-159.5 870.5,-98.5 652.5,-98.5" style="fill: url(#fill-beaed4);stroke: #beaed4;"/><path d=" M652.5,-121.5 L870.5,-121.5 " style="fill: none;stroke: black;"/><text text-anchor="middle" x="761.5" y="-144.3" font-family="verdana" font-size="14.00">Unité Assainissement pluvial</text><text text-anchor="middle" x="761.5" y="-129.3" font-family="verdana" font-size="14.00">et Protection du littoral</text><text text-anchor="middle" x="761.5" y="-106.3" font-family="verdana" font-size="14.00">Séverine Teyssot</text></g><g id="edge3" class="edge"><polygon fill="black" stroke="black" points="843,-169.738 839.5,-159.738 836,-169.738 843,-169.738" style="fill: black; stroke: none; fill-opacity:0.3" transform="translate(3,3)"/><path fill="none" stroke="black" d="M839.5,-196.194C839.5,-196.194 839.5,-169.738 839.5,-169.738" style="fill: none; stroke: black; stroke-opacity:0.3" transform="translate(3,3)"/><polygon fill="black" stroke="black" points="843,-169.738 839.5,-159.738 836,-169.738 843,-169.738" style="fill: url(#black);stroke: black;"/><path fill="none" stroke="black" d="M839.5,-196.194C839.5,-196.194 839.5,-169.738 839.5,-169.738"/></g><g id="node5" class="node"><polygon fill="#beaed4" stroke="#beaed4" points="942.5,-106 942.5,-152 1100.5,-152 1100.5,-106 942.5,-106" style="fill: black; stroke: none; fill-opacity:0.3" transform="translate(3,3)"/><path style="fill: black; stroke: none; fill-opacity:0.15" transform="translate(3,3)" d=" M942.5,-129 L1100.5,-129 "/><polygon fill="#beaed4" stroke="#beaed4" points="942.5,-106 942.5,-152 1100.5,-152 1100.5,-106 942.5,-106" style="fill: url(#fill-beaed4);stroke: #beaed4;"/><path d=" M942.5,-129 L1100.5,-129 " style="fill: none;stroke: black;"/><text text-anchor="middle" x="1021.5" y="-136.8" font-family="verdana" font-size="14.00">Unité Déplacements</text><text text-anchor="middle" x="1021.5" y="-113.8" font-family="verdana" font-size="14.00">Pascal Laffargue</text></g><g id="edge4" class="edge"><polygon fill="black" stroke="black" points="962,-162.227 958.5,-152.227 955,-162.227 962,-162.227" style="fill: black; stroke: none; fill-opacity:0.3" transform="translate(3,3)"/><path fill="none" stroke="black" d="M958.5,-196.194C958.5,-196.194 958.5,-162.227 958.5,-162.227" style="fill: none; stroke: black; stroke-opacity:0.3" transform="translate(3,3)"/><polygon fill="black" stroke="black" points="962,-162.227 958.5,-152.227 955,-162.227 962,-162.227" style="fill: url(#black);stroke: black;"/><path fill="none" stroke="black" d="M958.5,-196.194C958.5,-196.194 958.5,-162.227 958.5,-162.227"/></g><g id="node6" class="node"><polygon fill="#beaed4" stroke="#beaed4" points="1172.5,-106 1172.5,-152 1318.5,-152 1318.5,-106 1172.5,-106" style="fill: black; stroke: none; fill-opacity:0.3" transform="translate(3,3)"/><path style="fill: black; stroke: none; fill-opacity:0.15" transform="translate(3,3)" d=" M1172.5,-129 L1318.5,-129 "/><polygon fill="#beaed4" stroke="#beaed4" points="1172.5,-106 1172.5,-152 1318.5,-152 1318.5,-106 1172.5,-106" style="fill: url(#fill-beaed4);stroke: #beaed4;"/><path d=" M1172.5,-129 L1318.5,-129 " style="fill: none;stroke: black;"/><text text-anchor="middle" x="1245.5" y="-136.8" font-family="verdana" font-size="14.00">Unité Topographie</text><text text-anchor="middle" x="1245.5" y="-113.8" font-family="verdana" font-size="14.00">Frédéric Garel</text></g><g id="edge5" class="edge"><polygon fill="black" stroke="black" points="1249,-162.279 1245.5,-152.279 1242,-162.279 1249,-162.279" style="fill: black; stroke: none; fill-opacity:0.3" transform="translate(3,3)"/><path fill="none" stroke="black" d="M974.945,-211C1079.6,-211 1245.5,-211 1245.5,-211 1245.5,-211 1245.5,-162.279 1245.5,-162.279" style="fill: none; stroke: black; stroke-opacity:0.3" transform="translate(3,3)"/><polygon fill="black" stroke="black" points="1249,-162.279 1245.5,-152.279 1242,-162.279 1249,-162.279" style="fill: url(#black);stroke: black;"/><path fill="none" stroke="black" d="M974.945,-211C1079.6,-211 1245.5,-211 1245.5,-211 1245.5,-211 1245.5,-162.279 1245.5,-162.279"/></g><g id="node7" class="node"><polygon fill="#beaed4" stroke="#beaed4" points="1391,-106 1391,-152 1552,-152 1552,-106 1391,-106" style="fill: black; stroke: none; fill-opacity:0.3" transform="translate(3,3)"/><path style="fill: black; stroke: none; fill-opacity:0.15" transform="translate(3,3)" d=" M1391,-129 L1552,-129 "/><polygon fill="#beaed4" stroke="#beaed4" points="1391,-106 1391,-152 1552,-152 1552,-106 1391,-106" style="fill: url(#fill-beaed4);stroke: #beaed4;"/><path d=" M1391,-129 L1552,-129 " style="fill: none;stroke: black;"/><text text-anchor="middle" x="1471.5" y="-136.8" font-family="verdana" font-size="14.00">Unité Voirie Travaux</text><text text-anchor="middle" x="1471.5" y="-113.8" font-family="verdana" font-size="14.00">David Germaneau</text></g><g id="edge6" class="edge"><polygon fill="black" stroke="black" points="1475,-162.225 1471.5,-152.225 1468,-162.225 1475,-162.225" style="fill: black; stroke: none; fill-opacity:0.3" transform="translate(3,3)"/><path fill="none" stroke="black" d="M974.6,-227C1134.98,-227 1471.5,-227 1471.5,-227 1471.5,-227 1471.5,-162.225 1471.5,-162.225" style="fill: none; stroke: black; stroke-opacity:0.3" transform="translate(3,3)"/><polygon fill="black" stroke="black" points="1475,-162.225 1471.5,-152.225 1468,-162.225 1475,-162.225" style="fill: url(#black);stroke: black;"/><path fill="none" stroke="black" d="M974.6,-227C1134.98,-227 1471.5,-227 1471.5,-227 1471.5,-227 1471.5,-162.225 1471.5,-162.225"/></g><g id="node8" class="node"><polygon fill="#fdc086" stroke="#fdc086" points="243.5,-0.5 243.5,-61.5 583.5,-61.5 583.5,-0.5 243.5,-0.5" style="fill: black; stroke: none; fill-opacity:0.3" transform="translate(3,3)"/><path style="fill: black; stroke: none; fill-opacity:0.15" transform="translate(3,3)" d=" M243.5,-23.5 L583.5,-23.5 "/><polygon fill="#fdc086" stroke="#fdc086" points="243.5,-0.5 243.5,-61.5 583.5,-61.5 583.5,-0.5 243.5,-0.5" style="fill: url(#fill-fdc086);stroke: #fdc086;"/><path d=" M243.5,-23.5 L583.5,-23.5 " style="fill: none;stroke: black;"/><text text-anchor="middle" x="413.5" y="-46.3" font-family="verdana" font-size="14.00">Organisation technique</text><text text-anchor="middle" x="413.5" y="-31.3" font-family="verdana" font-size="14.00">Programmation Etudes Commandes DT/DICT</text><text text-anchor="middle" x="413.5" y="-8.3" font-family="verdana" font-size="14.00">Sébastien Paillé</text></g><g id="edge7" class="edge"><polygon fill="black" stroke="black" points="491,-71.6298 487.5,-61.6299 484,-71.6299 491,-71.6298" style="fill: black; stroke: none; fill-opacity:0.3" transform="translate(3,3)"/><path fill="none" stroke="black" d="M487.5,-98.2611C487.5,-98.2611 487.5,-71.6299 487.5,-71.6299" style="fill: none; stroke: black; stroke-opacity:0.3" transform="translate(3,3)"/><polygon fill="black" stroke="black" points="491,-71.6298 487.5,-61.6299 484,-71.6299 491,-71.6298" style="fill: url(#black);stroke: black;"/><path fill="none" stroke="black" d="M487.5,-98.2611C487.5,-98.2611 487.5,-71.6299 487.5,-71.6299"/></g><g id="node9" class="node"><polygon fill="#fdc086" stroke="#fdc086" points="656,-8 656,-54 1015,-54 1015,-8 656,-8" style="fill: black; stroke: none; fill-opacity:0.3" transform="translate(3,3)"/><path style="fill: black; stroke: none; fill-opacity:0.15" transform="translate(3,3)" d=" M656,-31 L1015,-31 "/><polygon fill="#fdc086" stroke="#fdc086" points="656,-8 656,-54 1015,-54 1015,-8 656,-8" style="fill: url(#fill-fdc086);stroke: #fdc086;"/><path d=" M656,-31 L1015,-31 " style="fill: none;stroke: black;"/><text text-anchor="middle" x="835.5" y="-38.8" font-family="verdana" font-size="14.00">Réseau pluvial - Protection Littorale Exploitation</text><text text-anchor="middle" x="835.5" y="-15.8" font-family="verdana" font-size="14.00">Jean-Yves Oberlin</text></g><g id="edge8" class="edge"><polygon fill="black" stroke="black" points="766.75,-64.1635 763.25,-54.1635 759.75,-64.1636 766.75,-64.1635" style="fill: black; stroke: none; fill-opacity:0.3" transform="translate(3,3)"/><path fill="none" stroke="black" d="M763.25,-98.2611C763.25,-98.2611 763.25,-64.1635 763.25,-64.1635" style="fill: none; stroke: black; stroke-opacity:0.3" transform="translate(3,3)"/><polygon fill="black" stroke="black" points="766.75,-64.1635 763.25,-54.1635 759.75,-64.1636 766.75,-64.1635" style="fill: url(#black);stroke: black;"/><path fill="none" stroke="black" d="M763.25,-98.2611C763.25,-98.2611 763.25,-64.1635 763.25,-64.1635"/></g></g>
</svg>
