<!-- Created with Inkscape (http://www.inkscape.org/) --><svg xmlns:dc="http://purl.org/dc/elements/1.1/" xmlns:cc="http://creativecommons.org/ns#" xmlns:rdf="http://www.w3.org/1999/02/22-rdf-syntax-ns#" xmlns:svg="http://www.w3.org/2000/svg" xmlns="http://www.w3.org/2000/svg" xmlns:sodipodi="http://sodipodi.sourceforge.net/DTD/sodipodi-0.dtd" xmlns:inkscape="http://www.inkscape.org/namespaces/inkscape" width="1000 px" height="2000 px" viewBox="0 0 1000 2000" version="1.1" id="svg4527" inkscape:version="0.92.1 r15371" sodipodi:docname="07_AVerifier_original.svg">
  <defs id="defs4521"/>
  <sodipodi:namedview id="base" pagecolor="#ffffff" bordercolor="#666666" borderopacity="1.0" inkscape:pageopacity="0.0" inkscape:pageshadow="2" inkscape:zoom="0.50000002" inkscape:cx="603.88951" inkscape:cy="1302.2508" inkscape:document-units="px" inkscape:current-layer="layer1" showgrid="false" units="px" inkscape:window-width="1869" inkscape:window-height="1056" inkscape:window-x="1331" inkscape:window-y="24" inkscape:window-maximized="1"/>
  <metadata id="metadata4524">
    <rdf:RDF>
      <cc:Work rdf:about="">
        <dc:format>image/svg+xml</dc:format>
        <dc:type rdf:resource="http://purl.org/dc/dcmitype/StillImage"/>
        <dc:title/>
      </cc:Work>
    </rdf:RDF>
  </metadata>
  <g inkscape:label="Calque 1" inkscape:groupmode="layer" id="layer1">
    <path inkscape:connector-curvature="0" stroke-miterlimit="4" d="M 0,900 H 1000" id="path10-7" style="" fill="#7d4900" fill-opacity="0.2" stroke="#7d4900" stroke-width="7" transform="matrix(-1.0, 0, 0, -1.0, 1000.0 ,2000.0)"/>
    <path inkscape:connector-curvature="0" stroke-miterlimit="4" d="m 0,1000 c 35,-95 965,-95 1000,0" id="path10-7-0" style="" fill="#7d4900" fill-opacity="0.2" stroke="#7d4900" stroke-width="7" transform="matrix(-1.0, 0, 0, -1.0, 1000.0 ,2000.0)"/>
    <rect stroke-miterlimit="4" id="rect4482" width="1000" height="630" x="0" y="370" style="" fill="#7d4900" fill-opacity="0.2" stroke="#7d4900" stroke-width="7" transform="matrix(-1.0, 0, 0, -1.0, 1000.0 ,2000.0)"/>
    <path style="" d="m 500,1000 v 300" id="path4491" inkscape:connector-curvature="0" fill="#7d4900" fill-opacity="0.2" stroke="#7d4900" stroke-width="7" transform="matrix(-1.0, 0, 0, -1.0, 1000.0 ,2000.0)"/>
    <path style="" d="m 312.5,1000 v 300" id="path4491-3" inkscape:connector-curvature="0" fill="#7d4900" fill-opacity="0.2" stroke="#7d4900" stroke-width="7" transform="matrix(-1.0, 0, 0, -1.0, 1000.0 ,2000.0)"/>
    <path style="" d="m 687.5,1000 v 300" id="path4491-6" inkscape:connector-curvature="0" fill="#7d4900" fill-opacity="0.2" stroke="#7d4900" stroke-width="7" transform="matrix(-1.0, 0, 0, -1.0, 1000.0 ,2000.0)"/>
    <path style="" d="m 218.75,1000 v 300" id="path4491-7" inkscape:connector-curvature="0" fill="#7d4900" fill-opacity="0.2" stroke="#7d4900" stroke-width="7" transform="matrix(-1.0, 0, 0, -1.0, 1000.0 ,2000.0)"/>
    <path style="" d="m 406.25,1000 v 300" id="path4491-5" inkscape:connector-curvature="0" fill="#7d4900" fill-opacity="0.2" stroke="#7d4900" stroke-width="7" transform="matrix(-1.0, 0, 0, -1.0, 1000.0 ,2000.0)"/>
    <path style="" d="m 593.75,1000 v 300" id="path4491-35" inkscape:connector-curvature="0" fill="#7d4900" fill-opacity="0.2" stroke="#7d4900" stroke-width="7" transform="matrix(-1.0, 0, 0, -1.0, 1000.0 ,2000.0)"/>
    <path style="" d="m 781.25,1000 v 300" id="path4491-62" inkscape:connector-curvature="0" fill="#7d4900" fill-opacity="0.2" stroke="#7d4900" stroke-width="7" transform="matrix(-1.0, 0, 0, -1.0, 1000.0 ,2000.0)"/>
    <circle stroke-miterlimit="4" id="path4521" cx="500" cy="1000" r="20" style="" fill="#7d4900" fill-opacity="0.2" stroke="#7d4900" stroke-width="7" transform="matrix(-1.0, 0, 0, -1.0, 1000.0 ,2000.0)"/>
    <circle stroke-miterlimit="4" id="path4521-3" cx="500" cy="635" r="230" style="" fill="#7d4900" fill-opacity="0.2" stroke="#7d4900" stroke-width="7" transform="matrix(-1.0, 0, 0, -1.0, 1000.0 ,2000.0)"/>
    <path style="" d="m 875,1000 v 300" id="path4491-62-3" inkscape:connector-curvature="0" fill="#7d4900" fill-opacity="0.2" stroke="#7d4900" stroke-width="7" transform="matrix(-1.0, 0, 0, -1.0, 1000.0 ,2000.0)"/>
    <path style="" d="m 125,1000 v 300" id="path4491-62-6" inkscape:connector-curvature="0" fill="#7d4900" fill-opacity="0.2" stroke="#7d4900" stroke-width="7" transform="matrix(-1.0, 0, 0, -1.0, 1000.0 ,2000.0)"/>
    <path style="" d="m 31.25,1000 v 300" id="path4491-62-6-5" inkscape:connector-curvature="0" fill="#7d4900" fill-opacity="0.2" stroke="#7d4900" stroke-width="7" transform="matrix(-1.0, 0, 0, -1.0, 1000.0 ,2000.0)"/>
    <path style="" d="m 968.75,1000 v 300" id="path4491-62-3-3" inkscape:connector-curvature="0" fill="#7d4900" fill-opacity="0.2" stroke="#7d4900" stroke-width="7" transform="matrix(-1.0, 0, 0, -1.0, 1000.0 ,2000.0)"/>
    <rect style="" id="rect4489" width="1000" height="300" x="0" y="1000" fill="#7d4900" fill-opacity="0.2" stroke="#7d4900" stroke-width="7" transform="matrix(-1.0, 0, 0, -1.0, 1000.0 ,2000.0)"/>
    <path d="m 462.64648,767.98828 h 49.56055 V 830 h -49.56055 z m 48.09571,-35.88867 h -46.63086 v -37.59766 q 0,-24.6582 6.83594,-40.52734 6.83593,-15.86914 28.80859,-36.86524 l 21.97266,-21.72851 q 13.91601,-12.93945 20.01953,-24.41406 6.34765,-11.47461 6.34765,-23.4375 0,-21.72852 -16.11328,-35.15625 -15.86914,-13.42774 -42.23633,-13.42774 -19.28711,0 -41.25976,8.54492 -21.72852,8.54493 -45.41016,24.90235 v -45.89844 q 22.94922,-13.91602 46.38672,-20.75195 23.68164,-6.83594 48.82813,-6.83594 44.92187,0 72.02148,23.68164 27.34375,23.68164 27.34375,62.5 0,18.55469 -8.78906,35.40039 -8.78907,16.60156 -30.76172,37.59766 l -21.48438,20.99609 q -11.47461,11.47461 -16.35742,18.06641 -4.63867,6.34765 -6.5918,12.45117 -1.46484,5.12695 -2.19726,12.45117 -0.73242,7.32422 -0.73242,20.01953 z" style="" id="path4501" fill="#7d4900" fill-opacity="0.2" stroke="#7d4900" stroke-width="7" transform="matrix(-1.0, 0, 0, -1.0, 1000.0 ,2000.0)"/>
  </g>
</svg>