<?xml version="1.0" encoding="UTF-8" standalone="no"?>
<!-- Generator: Adobe Illustrator 16.0.0, SVG Export Plug-In . SVG Version: 6.00 Build 0)  -->

<svg
   xmlns:dc="http://purl.org/dc/elements/1.1/"
   xmlns:cc="http://creativecommons.org/ns#"
   xmlns:rdf="http://www.w3.org/1999/02/22-rdf-syntax-ns#"
   xmlns:svg="http://www.w3.org/2000/svg"
   xmlns="http://www.w3.org/2000/svg"
   xmlns:sodipodi="http://sodipodi.sourceforge.net/DTD/sodipodi-0.dtd"
   xmlns:inkscape="http://www.inkscape.org/namespaces/inkscape"
   version="1.1"
   id="Calque_1"
   x="0px"
   y="0px"
   width="141.73px"
   height="141.73px"
   viewBox="0 0 141.73 141.73"
   enable-background="new 0 0 141.73 141.73"
   xml:space="preserve"
   inkscape:version="0.91 r13725"
   sodipodi:docname="cultureetmonuments.svg"><metadata
     id="metadata21"><rdf:RDF><cc:Work
         rdf:about=""><dc:format>image/svg+xml</dc:format><dc:type
           rdf:resource="http://purl.org/dc/dcmitype/StillImage" /><dc:title></dc:title></cc:Work></rdf:RDF></metadata><defs
     id="defs19" /><sodipodi:namedview
     pagecolor="#ffffff"
     bordercolor="#666666"
     borderopacity="1"
     objecttolerance="10"
     gridtolerance="10"
     guidetolerance="10"
     inkscape:pageopacity="0"
     inkscape:pageshadow="2"
     inkscape:window-width="884"
     inkscape:window-height="480"
     id="namedview17"
     showgrid="false"
     inkscape:zoom="1.665138"
     inkscape:cx="-0.60055083"
     inkscape:cy="70.864998"
     inkscape:window-x="65"
     inkscape:window-y="80"
     inkscape:window-maximized="0"
     inkscape:current-layer="Calque_1" /><path
     fill="param(fill) #FFF"
     d="M71.269,139c0,0-23.696-48.46-29.618-60.432c-6.777-13.704-11.986-26.031-11.986-34.647  c0-22.978,18.627-41.605,41.604-41.605s41.605,18.627,41.605,41.605c-0.001,8.617-5.21,20.944-11.987,34.647  C94.966,90.54,71.269,139,71.269,139z"
     id="path3" /><circle
     fill="#FFFFFF"
     cx="71.258"
     cy="44.511"
     r="33.489"
     id="circle5" /><g
     id="g7"><path
       fill="param(fill) #FFF"
       d="M90.997,21.309c0,0.011,0.085,0.247,0.188,0.52c0.102,0.273,0.211,0.616,0.24,0.754   c0.131,0.611,0.018,1.686-0.246,2.327c-0.15,0.371-0.61,1.106-1.175,1.882c-1.749,2.403-2.268,3.566-2.264,5.08   c0.001,0.531,0.057,0.799,0.307,1.46c0.219,0.58,0.216,0.623-0.102,1.393c-0.271,0.651-0.689,1.88-0.775,2.274   c-0.105,0.477-0.345,1.159-0.732,2.083c-0.21,0.5-0.575,1.374-0.81,1.939c-0.545,1.307-1.241,3.17-1.619,4.333   c-1.349,4.151-5.4,19.771-5.692,21.944c-0.109,0.81,0.244,0.202,1.261-2.169c1.297-3.024,3.719-9.169,5.889-14.939   c1.654-4.4,2.089-5.721,2.944-8.954c0.663-2.499,0.855-3.136,1.149-3.802c0.251-0.569,0.833-2.311,0.931-2.781   c0.077-0.373,0.235-0.714,0.681-1.446c1.037-1.709,2.146-4.301,2.464-5.76c0.125-0.574,0.168-1.48,0.095-1.992   c-0.12-0.824-0.456-1.622-1.015-2.413C92.282,22.43,90.997,21.133,90.997,21.309L90.997,21.309z"
       id="path9" /><path
       fill="param(fill) #FFF"
       d="M70.456,22.703c-0.144,0.031-0.317,0.087-0.383,0.123c-0.521,0.284-15.36,10.328-20.11,13.613   c-1.316,0.911-1.368,0.953-1.628,1.342c-0.374,0.56-0.518,1.422-0.363,2.188c0.112,0.556,0.278,0.882,0.622,1.226   c0.685,0.684,1.647,0.929,3.648,0.929h1.03l-0.016,4.369c-0.01,3.419-0.028,4.402-0.076,4.518c-0.052,0.125-0.125,0.174-0.45,0.301   c-0.492,0.195-0.829,0.42-1.16,0.777c-0.244,0.264-0.42,0.575-0.748,1.327c-0.136,0.312-0.228,0.371-0.744,0.491   c-0.613,0.143-0.99,0.34-1.364,0.713c-0.348,0.345-0.619,0.821-0.737,1.285c-0.218,0.853-0.218,5.871-0.003,6.723   c0.121,0.469,0.392,0.941,0.74,1.283c0.365,0.36,0.718,0.549,1.153,0.621c0.661,0.109,4.171,0.142,15.355,0.144l11.598,0.002   l0.048-0.178c0.065-0.231,2.362-9.332,2.502-9.911c0.06-0.244,0.093-0.455,0.074-0.474c-0.067-0.066-0.47-0.111-1.03-0.112   l-0.584-0.002v-7.302v-7.301h2.195h2.195l0.03,1.4c0.018,0.771,0.034,1.723,0.037,2.119c0.002,0.397,0.019,0.781,0.035,0.859   c0.027,0.118,0.163-0.189,0.833-1.87c0.9-2.26,1.229-3.107,1.743-4.515c0.492-1.341,1.214-3.473,1.214-3.581   c0-0.048-0.101-0.516-0.225-1.037l-0.226-0.95l-0.575-0.417c-2.283-1.655-11.916-8.194-12.529-8.505   C72.091,22.661,71.074,22.566,70.456,22.703L70.456,22.703z M64.71,46.696v7.302h-2.201h-2.203v-7.302v-7.301h2.203h2.201V46.696   L64.71,46.696z M73.569,46.696v7.302h-2.3h-2.298v-7.302v-7.301h2.298h2.3V46.696L73.569,46.696z"
       id="path11" /><path
       fill="param(fill) #FFF"
       d="M92.094,36.382c-0.35,0.687-1.48,4.123-1.692,5.143c-0.044,0.21-0.09,0.433-0.104,0.494l-0.024,0.113   l0.924-0.021c0.733-0.017,1.003-0.042,1.298-0.123c1.012-0.273,1.768-0.965,2.024-1.852c0.103-0.35,0.112-1.178,0.021-1.557   c-0.108-0.445-0.219-0.644-0.56-1.005c-0.541-0.574-1.566-1.386-1.754-1.388C92.209,36.187,92.15,36.272,92.094,36.382   L92.094,36.382z"
       id="path13" /><path
       fill="param(fill) #FFF"
       d="M87.971,49.052c-1.796,4.803-3.105,8.211-5.063,13.182c-0.501,1.273-0.9,2.331-0.884,2.346   c0.048,0.047,8.332,0.087,9.476,0.046c1.14-0.042,1.32-0.069,1.725-0.271c0.847-0.425,1.215-1.029,1.388-2.269   c0.104-0.751,0.15-3.606,0.077-4.783c-0.095-1.523-0.303-2.179-0.854-2.682c-0.454-0.416-1.205-0.766-1.642-0.766   c-0.255,0-0.397-0.135-0.524-0.489c-0.222-0.618-0.483-1.051-0.864-1.432c-0.382-0.382-0.671-0.551-1.168-0.683   c-0.153-0.04-0.284-0.08-0.295-0.09c-0.01-0.009-0.052-1.178-0.094-2.599c-0.041-1.422-0.081-2.602-0.088-2.624   C89.153,45.915,88.618,47.318,87.971,49.052L87.971,49.052z"
       id="path15" /></g></svg>
