<?xml version="1.0" encoding="UTF-8" standalone="no"?>
<!-- Generator: Adobe Illustrator 16.0.0, SVG Export Plug-In . SVG Version: 6.00 Build 0)  -->

<svg
   xmlns:dc="http://purl.org/dc/elements/1.1/"
   xmlns:cc="http://creativecommons.org/ns#"
   xmlns:rdf="http://www.w3.org/1999/02/22-rdf-syntax-ns#"
   xmlns:svg="http://www.w3.org/2000/svg"
   xmlns="http://www.w3.org/2000/svg"
   xmlns:sodipodi="http://sodipodi.sourceforge.net/DTD/sodipodi-0.dtd"
   xmlns:inkscape="http://www.inkscape.org/namespaces/inkscape"
   version="1.1"
   id="Calque_1"
   x="0px"
   y="0px"
   width="141.73px"
   height="141.73px"
   viewBox="0 0 141.73 141.73"
   enable-background="new 0 0 141.73 141.73"
   xml:space="preserve"
   inkscape:version="0.91 r13725"
   sodipodi:docname="solidarité.svg"><metadata
     id="metadata15"><rdf:RDF><cc:Work
         rdf:about=""><dc:format>image/svg+xml</dc:format><dc:type
           rdf:resource="http://purl.org/dc/dcmitype/StillImage" /><dc:title></dc:title></cc:Work></rdf:RDF></metadata><defs
     id="defs13" /><sodipodi:namedview
     pagecolor="#ffffff"
     bordercolor="#666666"
     borderopacity="1"
     objecttolerance="10"
     gridtolerance="10"
     guidetolerance="10"
     inkscape:pageopacity="0"
     inkscape:pageshadow="2"
     inkscape:window-width="884"
     inkscape:window-height="480"
     id="namedview11"
     showgrid="false"
     inkscape:zoom="1.665138"
     inkscape:cx="-0.60055083"
     inkscape:cy="70.864998"
     inkscape:window-x="65"
     inkscape:window-y="80"
     inkscape:window-maximized="0"
     inkscape:current-layer="Calque_1" /><path
     fill="param(fill) #FFF"
     d="M71.011,139c0,0-23.697-48.46-29.618-60.432c-6.778-13.703-11.987-26.031-11.987-34.647  c0-22.978,18.627-41.604,41.605-41.604s41.605,18.627,41.605,41.604c-0.001,8.616-5.21,20.944-11.987,34.647  C94.708,90.54,71.011,139,71.011,139z"
     id="path3" /><circle
     fill="#FFFFFF"
     cx="71.011"
     cy="44.511"
     r="33.489"
     id="circle5" /><g
     id="g7"><path
       fill="param(fill) #FFF"
       d="M81.366,19.337c-2.296,0.232-4.665,1.05-6.387,2.203c-0.833,0.558-2.521,1.999-3.755,3.204l-0.452,0.441   l-0.468-0.442c-1.338-1.269-3.104-2.482-4.795-3.298c-1.384-0.667-2.621-1.073-4.047-1.326c-0.7-0.124-0.958-0.144-2.092-0.147   c-1.002-0.005-1.437,0.018-1.927,0.095c-2.687,0.423-5.147,1.502-7.301,3.203c-0.742,0.585-2.147,2.011-2.744,2.78   c-0.559,0.722-1.141,1.592-1.599,2.39c-0.656,1.143-1.27,3.402-1.527,5.621c-0.105,0.908-0.089,3.252,0.029,4.102   c0.596,4.284,2.514,7.693,5.929,10.538c0.286,0.239,0.53,0.454,0.54,0.477c0.009,0.023-0.319,0.358-0.732,0.75   c-0.804,0.76-1.153,1.179-1.413,1.692c-0.527,1.041-0.516,2.57,0.028,3.794c0.652,1.466,2.046,2.674,3.533,3.063   c0.236,0.062,0.489,0.113,0.554,0.113c0.102,0,0.123,0.037,0.156,0.28c0.097,0.722,0.548,1.763,1.042,2.406   c0.283,0.369,0.911,0.973,1.255,1.207c0.542,0.37,1.294,0.687,1.916,0.807l0.352,0.068l0.097,0.467   c0.203,0.985,0.589,1.749,1.296,2.561c0.697,0.799,1.938,1.513,2.869,1.648c0.325,0.047,0.402,0.104,0.402,0.301   c0,0.249,0.263,1.079,0.476,1.503c0.683,1.358,1.765,2.316,3.163,2.8c0.498,0.172,0.55,0.179,1.371,0.182   c0.793,0.002,0.882-0.008,1.256-0.146c0.528-0.193,0.932-0.439,1.349-0.822l0.335-0.308l0.435,0.323   c0.562,0.417,1.062,0.714,1.563,0.926c1.327,0.563,2.889,0.562,4.141-0.002c1.52-0.687,2.48-2.298,2.708-4.539   c0.034-0.336,0.068-0.631,0.077-0.663c0.01-0.032,0.199-0.091,0.42-0.131c0.429-0.078,1.195-0.33,1.563-0.515   c0.672-0.336,1.462-1.025,1.885-1.643c0.396-0.576,0.787-1.564,0.876-2.213c0.021-0.144,0.069-0.298,0.108-0.336   c0.039-0.04,0.23-0.088,0.43-0.109c0.781-0.081,1.729-0.45,2.428-0.945c0.73-0.518,1.448-1.462,1.797-2.365   c0.18-0.462,0.433-1.488,0.433-1.75c0-0.121,0.023-0.148,0.127-0.148c0.215,0,0.936-0.203,1.376-0.385   c1.244-0.518,2.533-1.746,3.178-3.029c0.388-0.774,0.551-1.454,0.551-2.313c0-1.162-0.415-2.244-1.175-3.066l-0.214-0.231   l0.477-0.54c1.777-2.01,3.159-4.35,3.947-6.679c0.365-1.077,0.627-2.213,0.802-3.468c0.132-0.955,0.132-3.314-0.001-4.322   c-0.261-1.972-0.809-3.91-1.425-5.038c-0.394-0.721-1.065-1.77-1.569-2.45c-2.746-3.705-6.155-5.863-10.258-6.494   C84.063,19.313,82.076,19.265,81.366,19.337L81.366,19.337z M84.092,22.307c3.656,0.453,6.779,2.563,9.172,6.193   c1.075,1.632,1.498,2.715,1.85,4.74c0.168,0.969,0.183,3.451,0.025,4.399c-0.299,1.806-0.863,3.46-1.693,4.962   c-0.621,1.122-1.578,2.461-2.437,3.407l-0.249,0.274l-0.983-0.99c-0.541-0.546-3.157-3.202-5.817-5.905   c-2.659-2.704-4.854-4.914-4.877-4.914c-0.025,0-0.23,0.204-0.456,0.452c-0.566,0.621-3.019,3.047-3.757,3.716   c-1.844,1.671-2.882,2.417-3.843,2.758c-2.747,0.977-5.232,0.762-7.329-0.632c-0.539-0.359-1.494-1.242-1.821-1.686l-0.155-0.209   l0.136-0.148c7.069-7.78,12.729-13.426,14.83-14.796c1.27-0.827,3.116-1.457,4.817-1.642C81.939,22.241,83.66,22.253,84.092,22.307   L84.092,22.307z M60.262,22.941c2.483,0.192,5.744,1.799,8.066,3.973l0.341,0.319l-1.5,1.548c-1.729,1.783-3.609,3.769-5.208,5.5   c-1.369,1.48-4.078,4.468-4.17,4.597c-0.058,0.082,0.019,0.174,0.597,0.714c0.397,0.37,0.833,0.846,1.084,1.181   c0.795,1.062,1.936,2.084,3.097,2.778c2.711,1.621,6.034,1.841,9.437,0.624c0.711-0.254,1.047-0.419,1.646-0.805   c1.158-0.748,2.473-1.861,4.741-4.017l0.749-0.712l2.461,2.5c3.197,3.249,7.102,7.237,8.367,8.551   c1.168,1.211,1.306,1.427,1.306,2.043c0,0.6-0.28,1.201-0.835,1.795c-0.516,0.55-1.458,1.032-1.885,0.964   c-0.182-0.028-0.391-0.171-0.391-0.266c0-0.056-7.594-7.808-7.648-7.808c-0.018,0-0.489,0.458-1.051,1.02l-1.019,1.018l1.076,1.089   c0.592,0.597,2.325,2.358,3.849,3.911l2.772,2.824l-0.039,0.529c-0.122,1.657-0.718,2.54-1.927,2.851   c-0.369,0.095-0.882,0.116-0.831,0.033c0.03-0.047-7.983-8.264-8.062-8.264c-0.018,0-0.489,0.458-1.051,1.019l-1.019,1.019   l1.104,1.115c0.605,0.613,2.352,2.387,3.875,3.939l2.772,2.824l-0.032,0.645c-0.034,0.688-0.113,1.012-0.352,1.448   c-0.436,0.8-1.4,1.205-2.865,1.205h-0.633l0.094-0.127c0.175-0.24,0.523-1.007,0.617-1.359c0.128-0.479,0.129-1.536,0.002-2.048   c-0.477-1.928-1.941-3.472-3.74-3.947c-0.221-0.058-0.496-0.122-0.609-0.142c-0.182-0.031-0.205-0.053-0.205-0.185   c0-0.292-0.226-1.079-0.439-1.535c-0.705-1.504-2.034-2.596-3.586-2.944l-0.545-0.122l-0.033-0.199   c-0.192-1.161-0.68-2.142-1.478-2.967c-0.484-0.502-0.934-0.826-1.528-1.105c-0.446-0.208-1.212-0.442-1.448-0.442   c-0.107,0-0.129-0.044-0.183-0.368c-0.349-2.115-2.038-3.889-4.106-4.316c-1.112-0.23-2.231-0.049-3.033,0.489   c-0.167,0.112-1.118,1.002-2.12,1.985l-1.816,1.78l-0.207-0.15c-0.114-0.084-0.482-0.383-0.818-0.663   c-2.742-2.298-4.441-5.402-4.811-8.788c-0.074-0.677-0.074-2.449,0-3.1c0.188-1.663,0.686-3.55,1.161-4.41   c1.104-1.993,2.694-3.769,4.453-4.973c1.759-1.204,3.815-1.939,5.864-2.096C59.102,22.872,59.426,22.877,60.262,22.941   L60.262,22.941z M59.784,45.868c0.854,0.42,1.495,1.458,1.378,2.232c-0.033,0.219-0.15,0.345-2.111,2.261   c-1.14,1.113-2.816,2.756-3.719,3.642c-0.925,0.907-1.704,1.629-1.781,1.647c-0.363,0.09-1.008-0.112-1.493-0.469   c-0.336-0.248-0.708-0.782-0.837-1.201c-0.146-0.473-0.142-0.77,0.012-1.046c0.145-0.259,7.129-7.107,7.355-7.212   C58.854,45.599,59.365,45.661,59.784,45.868L59.784,45.868z M64.354,50.578c0.418,0.198,1.003,0.774,1.202,1.184   c0.192,0.396,0.272,0.824,0.207,1.113c-0.059,0.26,0.259-0.066-4.217,4.313c-1.635,1.601-3.042,2.982-3.125,3.071   c-0.147,0.159-0.163,0.162-0.581,0.138c-0.353-0.02-0.491-0.057-0.771-0.206c-0.429-0.23-0.934-0.76-1.139-1.194   c-0.153-0.325-0.237-0.878-0.172-1.134c0.033-0.13,7.329-7.351,7.517-7.437C63.454,50.342,64.023,50.422,64.354,50.578   L64.354,50.578z M69,55.344c0.437,0.203,0.962,0.725,1.179,1.17c0.15,0.309,0.278,0.849,0.235,0.99   c-0.011,0.037-0.034,0.13-0.05,0.207c-0.02,0.092-1.303,1.387-3.725,3.763c-2.89,2.835-3.736,3.635-3.887,3.677   c-0.251,0.069-0.727-0.026-1.09-0.22c-0.675-0.357-1.246-1.182-1.289-1.859c-0.011-0.193-0.007-0.403,0.01-0.475   c0.037-0.146,7.335-7.335,7.533-7.42C68.121,55.091,68.62,55.167,69,55.344L69,55.344z M73.614,60.104   c0.474,0.236,0.978,0.748,1.204,1.222c0.194,0.407,0.25,1.01,0.117,1.267c-0.084,0.161-7.031,7.02-7.312,7.219   c-0.092,0.064-0.242,0.093-0.491,0.093c-1.128-0.002-2.34-1.393-2.144-2.46c0.034-0.188,0.121-0.305,0.529-0.705   c0.268-0.264,1.874-1.839,3.57-3.499c1.696-1.662,3.148-3.089,3.229-3.175c0.132-0.14,0.182-0.154,0.528-0.154   C73.174,59.91,73.283,59.939,73.614,60.104L73.614,60.104z M76.02,66.121c0.088,0.887,0.093,1.079,0.038,1.663   c-0.033,0.347-0.099,0.782-0.145,0.963c-0.123,0.479-0.39,0.991-0.614,1.177c-0.383,0.316-1.184,0.429-1.784,0.249   c-0.353-0.105-0.886-0.37-1.146-0.566l-0.187-0.143l1.866-1.828c1.024-1.003,1.883-1.83,1.902-1.831   C75.971,65.803,76.002,65.945,76.02,66.121L76.02,66.121z"
       id="path9" /></g></svg>
