<?xml version="1.0" encoding="UTF-8" standalone="no"?>
<!-- Generator: Adobe Illustrator 16.0.0, SVG Export Plug-In . SVG Version: 6.00 Build 0)  -->

<svg
   xmlns:dc="http://purl.org/dc/elements/1.1/"
   xmlns:cc="http://creativecommons.org/ns#"
   xmlns:rdf="http://www.w3.org/1999/02/22-rdf-syntax-ns#"
   xmlns:svg="http://www.w3.org/2000/svg"
   xmlns="http://www.w3.org/2000/svg"
   xmlns:sodipodi="http://sodipodi.sourceforge.net/DTD/sodipodi-0.dtd"
   xmlns:inkscape="http://www.inkscape.org/namespaces/inkscape"
   version="1.1"
   id="Calque_1"
   x="0px"
   y="0px"
   width="141.73px"
   height="141.73px"
   viewBox="0 0 141.73 141.73"
   enable-background="new 0 0 141.73 141.73"
   xml:space="preserve"
   inkscape:version="0.91 r13725"
   sodipodi:docname="cadrevie.svg"><metadata
     id="metadata15"><rdf:RDF><cc:Work
         rdf:about=""><dc:format>image/svg+xml</dc:format><dc:type
           rdf:resource="http://purl.org/dc/dcmitype/StillImage" /><dc:title></dc:title></cc:Work></rdf:RDF></metadata><defs
     id="defs13" /><sodipodi:namedview
     pagecolor="#ffffff"
     bordercolor="#666666"
     borderopacity="1"
     objecttolerance="10"
     gridtolerance="10"
     guidetolerance="10"
     inkscape:pageopacity="0"
     inkscape:pageshadow="2"
     inkscape:window-width="1169"
     inkscape:window-height="802"
     id="namedview11"
     showgrid="false"
     inkscape:zoom="2.3548607"
     inkscape:cx="76.711919"
     inkscape:cy="94.065651"
     inkscape:window-x="65"
     inkscape:window-y="80"
     inkscape:window-maximized="0"
     inkscape:current-layer="Calque_1" /><path
     fill="param(fill) #FFF"
     d="M71.269,139c0,0-23.696-48.46-29.618-60.432c-6.777-13.703-11.986-26.031-11.986-34.647  c0-22.978,18.627-41.604,41.604-41.604s41.605,18.627,41.605,41.604c-0.001,8.616-5.21,20.944-11.987,34.647  C94.966,90.54,71.269,139,71.269,139z"
     id="path3" /><circle
     fill="#FFFFFF"
     cx="71.258"
     cy="44.511"
     r="33.489"
     id="circle5" /><g
     id="g7"><path
       fill="param(fill) #FFF"
       d="M69.93,15.96c1.262,0.35,2.361,0.982,3.378,1.944c0.491,0.467,1.019,1.048,1.181,1.305l0.295,0.465   l0.717-0.361c3.175-1.598,7.004-0.976,9.514,1.549c0.934,0.939,1.492,1.807,1.911,2.972c0.662,1.83,0.694,3.552,0.105,5.316   c-0.178,0.534-0.394,1.077-0.479,1.208c-0.148,0.225-0.124,0.25,0.624,0.61c1.67,0.8,2.954,2.084,3.761,3.752   c0.674,1.393,0.843,2.213,0.782,3.817c-0.041,1.036-0.112,1.51-0.345,2.232l-0.295,0.922l0.299,0.469   c0.805,1.271,1.244,3.38,1.032,4.951c-0.459,3.423-2.661,6-5.929,6.942l-0.876,0.255l-0.23,0.685   c-0.635,1.891-1.979,3.595-3.609,4.572c-1.386,0.834-3.398,1.269-5.003,1.084c-1.208-0.14-1.92-0.363-3.068-0.965l-0.985-0.512   v6.085v6.084h7.86h7.857v0.748v0.748H71.212H53.996V72.09v-0.748h7.806h7.806v-5.834v-5.832l-0.3,0.212   c-0.455,0.327-1.508,0.64-2.532,0.755c-2.256,0.255-4.377-0.448-6.073-2.015c-0.363-0.331-0.985-0.767-1.37-0.951   c-2.614-1.264-4.354-3.797-4.64-6.758c-0.079-0.813,0.085-2.341,0.326-3.018l0.165-0.459l-0.352-0.26   c-0.643-0.473-1.949-1.884-2.313-2.499c-0.198-0.333-0.514-1.031-0.698-1.543c-0.324-0.901-0.338-1.001-0.338-2.648   c0-1.593,0.022-1.769,0.302-2.566c0.39-1.1,0.994-2.12,1.74-2.93l0.59-0.642l-0.313-0.62c-0.648-1.284-0.819-2.072-0.819-3.774   c0-1.722,0.117-2.275,0.745-3.528c1.125-2.233,3.221-3.876,5.593-4.385c0.514-0.111,0.541-0.136,0.651-0.575   c0.219-0.867,1.046-2.341,1.73-3.092c1.725-1.882,3.939-2.812,6.409-2.69C68.668,15.717,69.49,15.841,69.93,15.96L69.93,15.96z"
       id="path9" /></g></svg>
