<?xml version="1.0" encoding="UTF-8" standalone="no"?>
<!-- Generator: Adobe Illustrator 16.0.0, SVG Export Plug-In . SVG Version: 6.00 Build 0)  -->

<svg
   xmlns:dc="http://purl.org/dc/elements/1.1/"
   xmlns:cc="http://creativecommons.org/ns#"
   xmlns:rdf="http://www.w3.org/1999/02/22-rdf-syntax-ns#"
   xmlns:svg="http://www.w3.org/2000/svg"
   xmlns="http://www.w3.org/2000/svg"
   xmlns:sodipodi="http://sodipodi.sourceforge.net/DTD/sodipodi-0.dtd"
   xmlns:inkscape="http://www.inkscape.org/namespaces/inkscape"
   version="1.1"
   id="Calque_1"
   x="0px"
   y="0px"
   width="141.73px"
   height="141.73px"
   viewBox="0 0 141.73 141.73"
   enable-background="new 0 0 141.73 141.73"
   xml:space="preserve"
   inkscape:version="0.91 r13725"
   sodipodi:docname="tranquilite.svg"><metadata
     id="metadata17"><rdf:RDF><cc:Work
         rdf:about=""><dc:format>image/svg+xml</dc:format><dc:type
           rdf:resource="http://purl.org/dc/dcmitype/StillImage" /><dc:title></dc:title></cc:Work></rdf:RDF></metadata><defs
     id="defs15" /><sodipodi:namedview
     pagecolor="#ffffff"
     bordercolor="#666666"
     borderopacity="1"
     objecttolerance="10"
     gridtolerance="10"
     guidetolerance="10"
     inkscape:pageopacity="0"
     inkscape:pageshadow="2"
     inkscape:window-width="884"
     inkscape:window-height="480"
     id="namedview13"
     showgrid="false"
     inkscape:zoom="1.665138"
     inkscape:cx="-0.60055083"
     inkscape:cy="70.864998"
     inkscape:window-x="65"
     inkscape:window-y="80"
     inkscape:window-maximized="0"
     inkscape:current-layer="Calque_1" /><path
     fill="param(fill) #FFF"
     d="M71.64,139c0,0-23.697-48.46-29.618-60.432c-6.778-13.703-11.987-26.031-11.987-34.647  c0-22.978,18.627-41.604,41.605-41.604s41.605,18.627,41.605,41.604c-0.001,8.616-5.21,20.944-11.987,34.647  C95.337,90.54,71.64,139,71.64,139z"
     id="path3" /><circle
     fill="#FFFFFF"
     cx="71.64"
     cy="44.511"
     r="33.489"
     id="circle5" /><g
     id="g7"><path
       fill="param(fill) #FFF"
       d="M62.272,23.723l-9.961,5.376v10.533v10.533l0.109,0.149c0.061,0.081,0.192,0.191,0.294,0.242   c0.174,0.089,1.221,0.094,19.572,0.094c18.353,0,19.399-0.005,19.575-0.094c0.103-0.051,0.242-0.176,0.308-0.274l0.12-0.182V39.6   V29.099l-10.004-5.381c-5.501-2.959-10.015-5.379-10.028-5.376C72.245,18.345,67.753,20.766,62.272,23.723L62.272,23.723z    M75.027,32.323c0.338,0.241,0.331,0.184,0.331,2.929c0,2.334-0.006,2.512-0.099,2.687c-0.054,0.102-0.182,0.236-0.28,0.294   c-0.175,0.103-0.278,0.106-2.692,0.106c-2.377,0-2.52-0.005-2.679-0.102c-0.094-0.057-0.218-0.189-0.28-0.302   c-0.109-0.194-0.111-0.265-0.111-2.679c0-2.814-0.012-2.739,0.432-2.971l0.235-0.121l2.484,0.016l2.483,0.016L75.027,32.323   L75.027,32.323z"
       id="path9" /><path
       fill="param(fill) #FFF"
       d="M56.628,53.028c-0.307,0.083-0.519,0.182-0.828,0.387c-0.166,0.109-6.508,7.097-6.547,7.213   c-0.007,0.021,2.143,2.188,4.781,4.822c4.252,4.245,4.829,4.803,5.104,4.931c0.67,0.313,0.187,0.299,10.8,0.299   c6.394,0,9.891-0.019,10.111-0.055c0.448-0.073,0.856-0.232,1.207-0.471c0.158-0.107,3.047-2.631,6.423-5.612   c4.39-3.875,6.144-5.455,6.167-5.554c0.059-0.242,0.05-1.373-0.012-1.672c-0.078-0.38-0.277-0.772-0.513-1.016   c-0.553-0.568-1.678-0.616-2.954-0.123c-1.354,0.521-3.461,1.753-6.729,3.933c-1.527,1.02-4.304,2.947-4.962,3.447l-0.235,0.179   h-3.445h-3.444l-3.077-2.308l-3.076-2.308l0.24-0.042c0.133-0.024,1.021-0.165,1.977-0.313c2.938-0.458,5.44-0.948,6.436-1.262   c1.053-0.331,1.837-0.923,2.203-1.661c0.191-0.389,0.201-0.431,0.201-0.943c0-0.465-0.02-0.576-0.139-0.831   c-0.266-0.565-0.684-0.911-1.271-1.05C74.579,52.909,57.035,52.918,56.628,53.028L56.628,53.028z"
       id="path11" /></g></svg>
